{
copyright = "Copyright (c) 2007 by Frantisek Storm. www.stormtype.com. All rights reserved.";
customParameters = (
{
name = description;
value = "Copyright (c) 2007 by Frantisek Storm. www.stormtype.com. All rights reserved.";
},
{
name = license;

glyphs = (
{
glyphname = C;
layers = (
{
layerId = "7A03799E-F594-4F0C-AED7-187FAD140615";
name = Regular;
paths = (
{
closed = 1;
nodes = (
"35 108 OFFCURVE",
"195 -17 OFFCURVE",
"427 -17 CURVE SMOOTH",
"495 -17 OFFCURVE",
"556 -6 OFFCURVE",
"652 20 CURVE",
"652 74 OFFCURVE",
"654 117 OFFCURVE",
"662 153 CURVE",
"662 164 OFFCURVE",
"654 169 OFFCURVE",
"644 169 CURVE SMOOTH",
"635 169 OFFCURVE",
"627 166 OFFCURVE",
"627 154 CURVE",
"625 137 OFFCURVE",
"621 122 OFFCURVE",
"619 106 CURVE",
"559 64 OFFCURVE",
"501 41 OFFCURVE",
"433 41 CURVE SMOOTH",
"279 41 OFFCURVE",
"155 155 OFFCURVE",
"155 353 CURVE SMOOTH",
"155 548 OFFCURVE",
"279 652 OFFCURVE",
"425 652 CURVE SMOOTH",
"492 652 OFFCURVE",
"549 628 OFFCURVE",
"607 578 CURVE",
"614 528 LINE",
"616 520 OFFCURVE",
"624 517 OFFCURVE",
"631 517 CURVE SMOOTH",
"639 517 OFFCURVE",
"649 522 OFFCURVE",
"649 530 CURVE",
"642 580 OFFCURVE",
"640 623 OFFCURVE",
"640 677 CURVE",
"560 703 OFFCURVE",
"509 714 OFFCURVE",
"447 714 CURVE SMOOTH",
"228 714 OFFCURVE",
"35 582 OFFCURVE",
"35 329 CURVE SMOOTH"
);
}
);
width = 718;
}
);
note = C;
unicode = 0043;
},
{
glyphname = D;
layers = (
{
layerId = "7A03799E-F594-4F0C-AED7-187FAD140615";
name = Regular;
paths = (
{
closed = 1;
nodes = (
"309 0 LINE SMOOTH",
"538 0 OFFCURVE",
"706 132 OFFCURVE",
"706 352 CURVE SMOOTH",
"706 562 OFFCURVE",
"551 700 OFFCURVE",
"289 700 CURVE SMOOTH",
"39 700 LINE SMOOTH",
"33 700 OFFCURVE",
"31 692 OFFCURVE",
"31 682 CURVE SMOOTH",
"31 672 OFFCURVE",
"33 664 OFFCURVE",
"39 664 CURVE SMOOTH",
"101 664 LINE",
"101 36 LINE",
"39 36 LINE SMOOTH",
"33 36 OFFCURVE",
"31 27 OFFCURVE",
"31 18 CURVE SMOOTH",
"31 8 OFFCURVE",
"35 0 OFFCURVE",
"40 0 CURVE SMOOTH"
);
},
{
closed = 1;
nodes = (
"205 247 OFFCURVE",
"208 489 OFFCURVE",
"216 655 CURVE",
"460 649 OFFCURVE",
"590 539 OFFCURVE",
"590 326 CURVE SMOOTH",
"590 159 OFFCURVE",
"478 50 OFFCURVE",
"312 50 CURVE SMOOTH",
"227 50 OFFCURVE",
"205 60 OFFCURVE",
"205 90 CURVE SMOOTH"
);
}
);
width = 751;
}
);
note = D;
unicode = 0044;
},
{
glyphname = E;
layers = (
{
layerId = "7A03799E-F594-4F0C-AED7-187FAD140615";
name = Regular;
paths = (
{
closed = 1;
nodes = (
"39 700 LINE SMOOTH",
"33 700 OFFCURVE",
"31 692 OFFCURVE",
"31 682 CURVE SMOOTH",
"31 672 OFFCURVE",
"33 664 OFFCURVE",
"39 664 CURVE SMOOTH",
"101 664 LINE",
"101 36 LINE",
"39 36 LINE SMOOTH",
"33 36 OFFCURVE",
"31 27 OFFCURVE",
"31 18 CURVE SMOOTH",
"31 8 OFFCURVE",
"35 0 OFFCURVE",
"40 0 CURVE SMOOTH",
"514 0 LINE",
"514 55 OFFCURVE",
"516 97 OFFCURVE",
"523 148 CURVE",
"523 155 OFFCURVE",
"514 158 OFFCURVE",
"507 158 CURVE SMOOTH",
"498 158 OFFCURVE",
"490 156 OFFCURVE",
"490 149 CURVE",
"488 134 OFFCURVE",
"484 119 OFFCURVE",
"482 105 CURVE",
"443 79 OFFCURVE",
"356 53 OFFCURVE",
"265 53 CURVE SMOOTH",
"229 53 OFFCURVE",
"205 54 OFFCURVE",
"205 68 CURVE SMOOTH",
"205 205 OFFCURVE",
"207 270 OFFCURVE",
"207 335 CURVE",
"288 333 OFFCURVE",
"379 322 OFFCURVE",
"399 318 CURVE",
"411 259 LINE",
"411 253 OFFCURVE",
"416 251 OFFCURVE",
"423 251 CURVE SMOOTH",
"431 251 OFFCURVE",
"442 256 OFFCURVE",
"442 262 CURVE",
"440 295 OFFCURVE",
"438 326 OFFCURVE",
"438 358 CURVE SMOOTH",
"438 393 OFFCURVE",
"440 419 OFFCURVE",
"442 444 CURVE",
"443 451 OFFCURVE",
"431 455 OFFCURVE",
"423 455 CURVE SMOOTH",
"416 455 OFFCURVE",
"411 454 OFFCURVE",
"411 448 CURVE",
"400 388 LINE",
"390 385 OFFCURVE",
"294 375 OFFCURVE",
"208 373 CURVE",
"210 507 OFFCURVE",
"214 598 OFFCURVE",
"217 652 CURVE",
"321 652 OFFCURVE",
"394 647 OFFCURVE",
"437 630 CURVE",
"448 559 LINE",
"452 551 OFFCURVE",
"458 549 OFFCURVE",
"464 549 CURVE SMOOTH",
"473 549 OFFCURVE",
"480 553 OFFCURVE",
"480 560 CURVE",
"473 603 OFFCURVE",
"471 645 OFFCURVE",
"471 700 CURVE"
);
}
);
width = 567;
}
);
note = E;
unicode = 0045;
},
{
glyphname = F;
layers = (
{
layerId = "7A03799E-F594-4F0C-AED7-187FAD140615";
name = Regular;
paths = (
{
closed = 1;
nodes = (
"205 36 LINE",
"205 116 OFFCURVE",
"206 228 OFFCURVE",
"207 331 CURVE",
"288 329 OFFCURVE",
"379 318 OFFCURVE",
"399 315 CURVE",
"411 255 LINE",
"411 249 OFFCURVE",
"416 247 OFFCURVE",
"423 247 CURVE SMOOTH",
"431 247 OFFCURVE",
"442 252 OFFCURVE",
"442 258 CURVE",
"440 291 OFFCURVE",
"438 322 OFFCURVE",
"438 354 CURVE SMOOTH",
"438 389 OFFCURVE",
"440 415 OFFCURVE",
"442 440 CURVE",
"443 447 OFFCURVE",
"431 452 OFFCURVE",
"423 452 CURVE SMOOTH",
"416 452 OFFCURVE",
"411 450 OFFCURVE",
"411 444 CURVE",
"400 385 LINE",
"390 381 OFFCURVE",
"294 371 OFFCURVE",
"208 369 CURVE",
"210 503 OFFCURVE",
"214 595 OFFCURVE",
"217 648 CURVE",
"320 648 OFFCURVE",
"401 642 OFFCURVE",
"445 626 CURVE",
"457 556 LINE",
"461 547 OFFCURVE",
"468 545 OFFCURVE",
"474 545 CURVE SMOOTH",
"483 545 OFFCURVE",
"490 549 OFFCURVE",
"490 556 CURVE",
"483 599 OFFCURVE",
"481 646 OFFCURVE",
"481 700 CURVE",
"39 700 LINE SMOOTH",
"33 700 OFFCURVE",
"31 692 OFFCURVE",
"31 682 CURVE SMOOTH",
"31 672 OFFCURVE",
"33 664 OFFCURVE",
"39 664 CURVE SMOOTH",
"101 664 LINE",
"101 36 LINE",
"39 36 LINE SMOOTH",
"33 36 OFFCURVE",
"31 27 OFFCURVE",
"31 18 CURVE SMOOTH",
"31 8 OFFCURVE",
"33 0 OFFCURVE",
"39 0 CURVE SMOOTH",
"266 0 LINE SMOOTH",
"273 0 OFFCURVE",
"275 8 OFFCURVE",
"275 18 CURVE SMOOTH",
"275 27 OFFCURVE",
"273 36 OFFCURVE",
"266 36 CURVE SMOOTH"
);
}
);
width = 538;
}
);
note = F;
unicode = 0046;
},
{
glyphname = G;
layers = (
{
layerId = "7A03799E-F594-4F0C-AED7-187FAD140615";
name = Regular;
paths = (
{
closed = 1;
nodes = (
"423 302 LINE SMOOTH",
"416 302 OFFCURVE",
"414 292 OFFCURVE",
"414 283 CURVE SMOOTH",
"414 273 OFFCURVE",
"416 265 OFFCURVE",
"423 265 CURVE SMOOTH",
"560 265 LINE",
"560 70 LINE",
"518 50 OFFCURVE",
"482 41 OFFCURVE",
"440 41 CURVE SMOOTH",
"286 41 OFFCURVE",
"155 155 OFFCURVE",
"155 353 CURVE SMOOTH",
"155 548 OFFCURVE",
"283 652 OFFCURVE",
"429 652 CURVE SMOOTH",
"496 652 OFFCURVE",
"553 628 OFFCURVE",
"611 578 CURVE",
"618 528 LINE",
"620 520 OFFCURVE",
"628 517 OFFCURVE",
"635 517 CURVE SMOOTH",
"643 517 OFFCURVE",
"653 522 OFFCURVE",
"653 530 CURVE",
"646 580 OFFCURVE",
"644 623 OFFCURVE",
"644 677 CURVE",
"564 703 OFFCURVE",
"513 714 OFFCURVE",
"451 714 CURVE SMOOTH",
"232 714 OFFCURVE",
"35 582 OFFCURVE",
"35 329 CURVE SMOOTH",
"35 108 OFFCURVE",
"202 -17 OFFCURVE",
"434 -17 CURVE SMOOTH",
"502 -17 OFFCURVE",
"583 -4 OFFCURVE",
"659 22 CURVE",
"661 107 OFFCURVE",
"666 234 OFFCURVE",
"676 265 CURVE",
"732 265 LINE SMOOTH",
"738 265 OFFCURVE",
"740 273 OFFCURVE",
"740 283 CURVE SMOOTH",
"740 292 OFFCURVE",
"738 302 OFFCURVE",
"732 302 CURVE SMOOTH"
);
}
);
width = 774;
}
);
note = G;
unicode = 0047;
},
{
glyphname = H;
layers = (
{
layerId = "7A03799E-F594-4F0C-AED7-187FAD140615";
name = Regular;
paths = (
{
closed = 1;
nodes = (
"683 664 LINE SMOOTH",
"690 664 OFFCURVE",
"692 672 OFFCURVE",
"692 682 CURVE SMOOTH",
"692 692 OFFCURVE",
"690 700 OFFCURVE",
"683 700 CURVE SMOOTH",
"456 700 LINE SMOOTH",
"450 700 OFFCURVE",
"448 692 OFFCURVE",
"448 682 CURVE SMOOTH",
"448 672 OFFCURVE",
"450 664 OFFCURVE",
"456 664 CURVE SMOOTH",
"518 664 LINE",
"518 388 LINE",
"486 389 OFFCURVE",
"441 390 OFFCURVE",
"387 390 CURVE SMOOTH",
"315 390 OFFCURVE",
"243 389 OFFCURVE",
"205 387 CURVE",
"205 664 LINE",
"266 664 LINE SMOOTH",
"273 664 OFFCURVE",
"275 672 OFFCURVE",
"275 682 CURVE SMOOTH",
"275 692 OFFCURVE",
"273 700 OFFCURVE",
"266 700 CURVE SMOOTH",
"39 700 LINE SMOOTH",
"33 700 OFFCURVE",
"31 692 OFFCURVE",
"31 682 CURVE SMOOTH",
"31 672 OFFCURVE",
"33 664 OFFCURVE",
"39 664 CURVE SMOOTH",
"89 664 LINE",
"97 535 OFFCURVE",
"101 244 OFFCURVE",
"101 36 CURVE",
"39 36 LINE SMOOTH",
"33 36 OFFCURVE",
"31 27 OFFCURVE",
"31 18 CURVE SMOOTH",
"31 8 OFFCURVE",
"33 0 OFFCURVE",
"39 0 CURVE SMOOTH",
"266 0 LINE SMOOTH",
"273 0 OFFCURVE",
"275 8 OFFCURVE",
"275 18 CURVE SMOOTH",
"275 27 OFFCURVE",
"273 36 OFFCURVE",
"266 36 CURVE SMOOTH",
"205 36 LINE",
"205 337 LINE",
"237 339 OFFCURVE",
"315 340 OFFCURVE",
"393 340 CURVE SMOOTH",
"442 340 OFFCURVE",
"488 341 OFFCURVE",
"518 339 CURVE",
"518 36 LINE",
"456 36 LINE SMOOTH",
"450 36 OFFCURVE",
"448 27 OFFCURVE",
"448 18 CURVE SMOOTH",
"448 8 OFFCURVE",
"450 0 OFFCURVE",
"456 0 CURVE SMOOTH",
"683 0 LINE SMOOTH",
"690 0 OFFCURVE",
"692 8 OFFCURVE",
"692 18 CURVE SMOOTH",
"692 27 OFFCURVE",
"690 36 OFFCURVE",
"683 36 CURVE SMOOTH",
"622 36 LINE",
"622 240 OFFCURVE",
"625 530 OFFCURVE",
"633 664 CURVE"
);
}
);
width = 733;
}
);
note = H;
unicode = 0048;
},
{
glyphname = I;
layers = (
{
layerId = "7A03799E-F594-4F0C-AED7-187FAD140615";
name = Regular;
paths = (
{
closed = 1;
nodes = (
"101 36 LINE",
"39 36 LINE SMOOTH",
"33 36 OFFCURVE",
"31 27 OFFCURVE",
"31 18 CURVE SMOOTH",
"31 8 OFFCURVE",
"33 0 OFFCURVE",
"39 0 CURVE SMOOTH",
"266 0 LINE SMOOTH",
"273 0 OFFCURVE",
"275 8 OFFCURVE",
"275 18 CURVE SMOOTH",
"275 27 OFFCURVE",
"273 36 OFFCURVE",
"266 36 CURVE SMOOTH",
"205 36 LINE",
"205 240 OFFCURVE",
"208 530 OFFCURVE",
"216 664 CURVE",
"266 664 LINE SMOOTH",
"273 664 OFFCURVE",
"275 672 OFFCURVE",
"275 682 CURVE SMOOTH",
"275 692 OFFCURVE",
"273 700 OFFCURVE",
"266 700 CURVE SMOOTH",
"39 700 LINE SMOOTH",
"33 700 OFFCURVE",
"31 692 OFFCURVE",
"31 682 CURVE SMOOTH",
"31 672 OFFCURVE",
"33 664 OFFCURVE",
"39 664 CURVE SMOOTH",
"101 664 LINE"
);
}
);
width = 310;
}
);
note = I;
unicode = 0049;
},
{
glyphname = J;
layers = (
{
layerId = "7A03799E-F594-4F0C-AED7-187FAD140615";
name = Regular;
paths = (
{
closed = 1;
nodes = (
"205 261 OFFCURVE",
"208 531 OFFCURVE",
"216 664 CURVE",
"266 664 LINE SMOOTH",
"273 664 OFFCURVE",
"275 672 OFFCURVE",
"275 682 CURVE SMOOTH",
"275 692 OFFCURVE",
"273 700 OFFCURVE",
"266 700 CURVE SMOOTH",
"39 700 LINE SMOOTH",
"33 700 OFFCURVE",
"31 692 OFFCURVE",
"31 682 CURVE SMOOTH",
"31 672 OFFCURVE",
"33 664 OFFCURVE",
"39 664 CURVE SMOOTH",
"101 664 LINE",
"101 -21 LINE SMOOTH",
"101 -112 OFFCURVE",
"64 -147 OFFCURVE",
"27 -147 CURVE SMOOTH",
"1 -147 OFFCURVE",
"-26 -130 OFFCURVE",
"-42 -105 CURVE",
"-75 -105 OFFCURVE",
"-93 -133 OFFCURVE",
"-93 -160 CURVE SMOOTH",
"-93 -188 OFFCURVE",
"-72 -224 OFFCURVE",
"-17 -224 CURVE SMOOTH",
"104 -224 OFFCURVE",
"205 -115 OFFCURVE",
"205 58 CURVE SMOOTH"
);
}
);
width = 310;
}
);
note = J;
unicode = 004A;
},
{
glyphname = K;
layers = (
{
layerId = "7A03799E-F594-4F0C-AED7-187FAD140615";
name = Regular;
paths = (
{
closed = 1;
nodes = (
"633 664 LINE SMOOTH",
"640 664 OFFCURVE",
"642 672 OFFCURVE",
"642 682 CURVE SMOOTH",
"642 692 OFFCURVE",
"640 700 OFFCURVE",
"633 700 CURVE SMOOTH",
"416 700 LINE SMOOTH",
"409 700 OFFCURVE",
"407 692 OFFCURVE",
"407 682 CURVE SMOOTH",
"407 672 OFFCURVE",
"409 664 OFFCURVE",
"416 664 CURVE SMOOTH",
"476 664 LINE",
"463 627 OFFCURVE",
"379 513 OFFCURVE",
"207 353 CURVE",
"208 476 OFFCURVE",
"211 592 OFFCURVE",
"216 664 CURVE",
"266 664 LINE SMOOTH",
"273 664 OFFCURVE",
"275 672 OFFCURVE",
"275 682 CURVE SMOOTH",
"275 692 OFFCURVE",
"273 700 OFFCURVE",
"266 700 CURVE SMOOTH",
"39 700 LINE SMOOTH",
"33 700 OFFCURVE",
"31 692 OFFCURVE",
"31 682 CURVE SMOOTH",
"31 672 OFFCURVE",
"33 664 OFFCURVE",
"39 664 CURVE SMOOTH",
"101 664 LINE",
"101 36 LINE",
"39 36 LINE SMOOTH",
"33 36 OFFCURVE",
"31 27 OFFCURVE",
"31 18 CURVE SMOOTH",
"31 8 OFFCURVE",
"33 0 OFFCURVE",
"39 0 CURVE SMOOTH",
"266 0 LINE SMOOTH",
"273 0 OFFCURVE",
"275 8 OFFCURVE",
"275 18 CURVE SMOOTH",
"275 27 OFFCURVE",
"273 36 OFFCURVE",
"266 36 CURVE SMOOTH",
"205 36 LINE",
"205 131 OFFCURVE",
"205 245 OFFCURVE",
"207 353 CURVE",
"266 317 OFFCURVE",
"439 132 OFFCURVE",
"507 36 CURVE",
"461 36 LINE SMOOTH",
"454 36 OFFCURVE",
"452 27 OFFCURVE",
"452 18 CURVE SMOOTH",
"452 8 OFFCURVE",
"454 0 OFFCURVE",
"461 0 CURVE SMOOTH",
"685 0 LINE SMOOTH",
"692 0 OFFCURVE",
"694 8 OFFCURVE",
"694 18 CURVE SMOOTH",
"694 27 OFFCURVE",
"692 36 OFFCURVE",
"685 36 CURVE SMOOTH",
"642 36 LINE",
"555 143 OFFCURVE",
"409 316 OFFCURVE",
"323 387 CURVE",
"388 449 OFFCURVE",
"520 589 OFFCURVE",
"581 664 CURVE"
);
}
);
width = 700;
}
);
note = K;
unicode = 004B;
},
{
glyphname = L;
layers = (
{
layerId = "7A03799E-F594-4F0C-AED7-187FAD140615";
name = Regular;
paths = (
{
closed = 1;
nodes = (
"479 106 LINE",
"449 79 OFFCURVE",
"351 53 OFFCURVE",
"264 53 CURVE SMOOTH",
"226 53 OFFCURVE",
"205 55 OFFCURVE",
"205 79 CURVE SMOOTH",
"205 282 OFFCURVE",
"208 532 OFFCURVE",
"216 664 CURVE",
"276 664 LINE SMOOTH",
"283 664 OFFCURVE",
"285 672 OFFCURVE",
"285 682 CURVE SMOOTH",
"285 692 OFFCURVE",
"283 700 OFFCURVE",
"276 700 CURVE SMOOTH",
"39 700 LINE SMOOTH",
"33 700 OFFCURVE",
"31 692 OFFCURVE",
"31 682 CURVE SMOOTH",
"31 672 OFFCURVE",
"33 664 OFFCURVE",
"39 664 CURVE SMOOTH",
"101 664 LINE",
"101 36 LINE",
"39 36 LINE SMOOTH",
"33 36 OFFCURVE",
"31 27 OFFCURVE",
"31 18 CURVE SMOOTH",
"31 8 OFFCURVE",
"33 0 OFFCURVE",
"39 0 CURVE SMOOTH",
"510 0 LINE",
"510 68 OFFCURVE",
"513 97 OFFCURVE",
"521 173 CURVE",
"521 180 OFFCURVE",
"512 184 OFFCURVE",
"505 184 CURVE SMOOTH",
"497 184 OFFCURVE",
"489 181 OFFCURVE",
"488 175 CURVE"
);
}
);
width = 537;
}
);
note = L;
unicode = 004C;
},
{
glyphname = M;
layers = (
{
layerId = "7A03799E-F594-4F0C-AED7-187FAD140615";
name = Regular;
paths = (
{
closed = 1;
nodes = (
"682 551 LINE",
"696 372 OFFCURVE",
"710 215 OFFCURVE",
"724 36 CURVE",
"663 36 LINE SMOOTH",
"656 36 OFFCURVE",
"654 27 OFFCURVE",
"654 18 CURVE SMOOTH",
"654 8 OFFCURVE",
"656 0 OFFCURVE",
"663 0 CURVE SMOOTH",
"901 0 LINE SMOOTH",
"908 0 OFFCURVE",
"910 8 OFFCURVE",
"910 18 CURVE SMOOTH",
"910 27 OFFCURVE",
"908 36 OFFCURVE",
"901 36 CURVE SMOOTH",
"839 36 LINE",
"825 116 OFFCURVE",
"779 595 OFFCURVE",
"777 664 CURVE",
"842 664 LINE SMOOTH",
"849 664 OFFCURVE",
"851 672 OFFCURVE",
"851 682 CURVE SMOOTH",
"851 692 OFFCURVE",
"849 700 OFFCURVE",
"842 700 CURVE SMOOTH",
"674 700 LINE",
"664 662 OFFCURVE",
"608 525 OFFCURVE",
"462 166 CURVE",
"325 517 OFFCURVE",
"271 655 OFFCURVE",
"258 700 CURVE",
"72 700 LINE SMOOTH",
"65 700 OFFCURVE",
"63 692 OFFCURVE",
"63 682 CURVE SMOOTH",
"63 672 OFFCURVE",
"65 664 OFFCURVE",
"72 664 CURVE SMOOTH",
"139 664 LINE",
"135 569 OFFCURVE",
"89 122 OFFCURVE",
"74 36 CURVE",
"12 36 LINE SMOOTH",
"5 36 OFFCURVE",
"3 27 OFFCURVE",
"3 18 CURVE SMOOTH",
"3 8 OFFCURVE",
"5 0 OFFCURVE",
"12 0 CURVE SMOOTH",
"218 0 LINE SMOOTH",
"225 0 OFFCURVE",
"227 8 OFFCURVE",
"227 18 CURVE SMOOTH",
"227 27 OFFCURVE",
"225 36 OFFCURVE",
"218 36 CURVE SMOOTH",
"154 36 LINE",
"168 211 OFFCURVE",
"179 378 OFFCURVE",
"193 551 CURVE",
"407 27 LINE",
"441 27 OFFCURVE",
"469 35 OFFCURVE",
"479 58 CURVE SMOOTH"
);
}
);
width = 926;
}
);
note = M;
unicode = 004D;
},
{
glyphname = N;
layers = (
{
layerId = "7A03799E-F594-4F0C-AED7-187FAD140615";
name = Regular;
paths = (
{
closed = 1;
nodes = (
"645 232 OFFCURVE",
"652 553 OFFCURVE",
"662 664 CURVE",
"712 664 LINE SMOOTH",
"719 664 OFFCURVE",
"721 672 OFFCURVE",
"721 682 CURVE SMOOTH",
"721 692 OFFCURVE",
"719 700 OFFCURVE",
"712 700 CURVE SMOOTH",
"524 700 LINE SMOOTH",
"517 700 OFFCURVE",
"515 692 OFFCURVE",
"515 682 CURVE SMOOTH",
"515 672 OFFCURVE",
"517 664 OFFCURVE",
"524 664 CURVE SMOOTH",
"585 664 LINE",
"585 168 LINE",
"205 700 LINE",
"21 700 LINE SMOOTH",
"14 700 OFFCURVE",
"12 692 OFFCURVE",
"12 682 CURVE SMOOTH",
"12 672 OFFCURVE",
"12 665 OFFCURVE",
"21 665 CURVE SMOOTH",
"77 665 OFFCURVE",
"91 651 OFFCURVE",
"113 623 CURVE SMOOTH",
"120 614 OFFCURVE",
"131 603 OFFCURVE",
"138 595 CURVE",
"137 435 OFFCURVE",
"129 169 OFFCURVE",
"117 36 CURVE",
"56 36 LINE SMOOTH",
"49 36 OFFCURVE",
"47 27 OFFCURVE",
"47 18 CURVE SMOOTH",
"47 8 OFFCURVE",
"49 0 OFFCURVE",
"56 0 CURVE SMOOTH",
"259 0 LINE SMOOTH",
"266 0 OFFCURVE",
"268 8 OFFCURVE",
"268 18 CURVE SMOOTH",
"268 27 OFFCURVE",
"266 36 OFFCURVE",
"259 36 CURVE SMOOTH",
"198 36 LINE",
"198 520 LINE",
"595 -17 LINE",
"626 -17 OFFCURVE",
"645 -4 OFFCURVE",
"645 17 CURVE SMOOTH"
);
}
);
width = 750;
}
);
note = N;
unicode = 004E;
},
{
glyphname = O;
layers = (
{
layerId = "7A03799E-F594-4F0C-AED7-187FAD140615";
name = Regular;
paths = (
{
closed = 1;
nodes = (
"204 714 OFFCURVE",
"35 550 OFFCURVE",
"35 348 CURVE SMOOTH",
"35 147 OFFCURVE",
"204 -17 OFFCURVE",
"414 -17 CURVE SMOOTH",
"624 -17 OFFCURVE",
"794 147 OFFCURVE",
"794 348 CURVE SMOOTH",
"794 550 OFFCURVE",
"624 714 OFFCURVE",
"414 714 CURVE SMOOTH"
);
},
{
closed = 1;
nodes = (
"558 656 OFFCURVE",
"671 519 OFFCURVE",
"671 348 CURVE SMOOTH",
"671 178 OFFCURVE",
"558 42 OFFCURVE",
"414 42 CURVE SMOOTH",
"270 42 OFFCURVE",
"158 178 OFFCURVE",
"158 348 CURVE SMOOTH",
"158 519 OFFCURVE",
"270 656 OFFCURVE",
"414 656 CURVE SMOOTH"
);
}
);
width = 840;
}
);
note = O;
unicode = 004F;
},
{
glyphname = P;
layers = (
{
layerId = "7A03799E-F594-4F0C-AED7-187FAD140615";
name = Regular;
paths = (
{
closed = 1;
nodes = (
"206 36 LINE",
"206 124 OFFCURVE",
"207 209 OFFCURVE",
"209 316 CURVE",
"247 301 OFFCURVE",
"285 295 OFFCURVE",
"318 295 CURVE SMOOTH",
"459 295 OFFCURVE",
"535 392 OFFCURVE",
"535 492 CURVE SMOOTH",
"535 595 OFFCURVE",
"454 700 OFFCURVE",
"277 700 CURVE SMOOTH",
"39 700 LINE SMOOTH",
"33 700 OFFCURVE",
"31 692 OFFCURVE",
"31 682 CURVE SMOOTH",
"31 672 OFFCURVE",
"33 664 OFFCURVE",
"39 664 CURVE SMOOTH",
"101 664 LINE",
"101 36 LINE",
"39 36 LINE SMOOTH",
"33 36 OFFCURVE",
"31 27 OFFCURVE",
"31 18 CURVE SMOOTH",
"31 8 OFFCURVE",
"33 0 OFFCURVE",
"39 0 CURVE SMOOTH",
"276 0 LINE SMOOTH",
"283 0 OFFCURVE",
"285 8 OFFCURVE",
"285 18 CURVE SMOOTH",
"285 27 OFFCURVE",
"283 36 OFFCURVE",
"276 36 CURVE SMOOTH"
);
},
{
closed = 1;
nodes = (
"365 647 OFFCURVE",
"421 570 OFFCURVE",
"421 493 CURVE SMOOTH",
"421 419 OFFCURVE",
"368 346 OFFCURVE",
"262 346 CURVE SMOOTH",
"245 346 OFFCURVE",
"229 348 OFFCURVE",
"209 352 CURVE",
"211 452 OFFCURVE",
"214 602 OFFCURVE",
"216 646 CURVE",
"223 647 OFFCURVE",
"232 647 OFFCURVE",
"249 647 CURVE SMOOTH"
);
}
);
width = 571;
}
);
note = P;
unicode = 0050;
},
{
glyphname = Q;
layers = (
{
layerId = "7A03799E-F594-4F0C-AED7-187FAD140615";
name = Regular;
paths = (
{
closed = 1;
nodes = (
"794 550 OFFCURVE",
"624 714 OFFCURVE",
"414 714 CURVE SMOOTH",
"204 714 OFFCURVE",
"35 550 OFFCURVE",
"35 348 CURVE SMOOTH",
"35 146 OFFCURVE",
"203 -5 OFFCURVE",
"381 -15 CURVE",
"504 -160 OFFCURVE",
"653 -236 OFFCURVE",
"816 -236 CURVE SMOOTH",
"875 -236 OFFCURVE",
"937 -226 OFFCURVE",
"999 -206 CURVE",
"1005 -202 OFFCURVE",
"1007 -195 OFFCURVE",
"1007 -191 CURVE SMOOTH",
"1007 -182 OFFCURVE",
"1001 -175 OFFCURVE",
"990 -177 CURVE",
"965 -183 OFFCURVE",
"940 -185 OFFCURVE",
"912 -185 CURVE SMOOTH",
"783 -185 OFFCURVE",
"621 -126 OFFCURVE",
"497 -9 CURVE",
"668 30 OFFCURVE",
"794 175 OFFCURVE",
"794 348 CURVE SMOOTH"
);
},
{
closed = 1;
nodes = (
"365 77 OFFCURVE",
"347 68 OFFCURVE",
"341 54 CURVE",
"233 93 OFFCURVE",
"158 209 OFFCURVE",
"158 348 CURVE SMOOTH",
"158 519 OFFCURVE",
"270 656 OFFCURVE",
"414 656 CURVE SMOOTH",
"558 656 OFFCURVE",
"671 519 OFFCURVE",
"671 348 CURVE SMOOTH",
"671 192 OFFCURVE",
"579 68 OFFCURVE",
"455 45 CURVE",
"431 68 OFFCURVE",
"404 77 OFFCURVE",
"385 77 CURVE SMOOTH"
);
}
);
width = 840;
}
);
note = Q;
unicode = 0051;
},
{
glyphname = R;
layers = (
{
layerId = "7A03799E-F594-4F0C-AED7-187FAD140615";
name = Regular;
paths = (
{
closed = 1;
nodes = (
"206 36 LINE",
"206 124 OFFCURVE",
"207 231 OFFCURVE",
"209 339 CURVE",
"226 333 OFFCURVE",
"243 330 OFFCURVE",
"257 328 CURVE",
"320 262 OFFCURVE",
"425 114 OFFCURVE",
"472 36 CURVE",
"422 36 LINE SMOOTH",
"417 36 OFFCURVE",
"414 27 OFFCURVE",
"414 18 CURVE SMOOTH",
"414 8 OFFCURVE",
"417 0 OFFCURVE",
"422 0 CURVE SMOOTH",
"643 0 LINE SMOOTH",
"650 0 OFFCURVE",
"652 8 OFFCURVE",
"652 18 CURVE SMOOTH",
"652 27 OFFCURVE",
"650 36 OFFCURVE",
"643 36 CURVE SMOOTH",
"606 36 LINE",
"538 132 OFFCURVE",
"448 258 OFFCURVE",
"376 334 CURVE",
"473 360 OFFCURVE",
"531 440 OFFCURVE",
"531 522 CURVE SMOOTH",
"531 614 OFFCURVE",
"463 700 OFFCURVE",
"299 700 CURVE SMOOTH",
"39 700 LINE SMOOTH",
"33 700 OFFCURVE",
"31 692 OFFCURVE",
"31 682 CURVE SMOOTH",
"31 672 OFFCURVE",
"33 664 OFFCURVE",
"39 664 CURVE SMOOTH",
"101 664 LINE",
"101 36 LINE",
"39 36 LINE SMOOTH",
"33 36 OFFCURVE",
"31 27 OFFCURVE",
"31 18 CURVE SMOOTH",
"31 8 OFFCURVE",
"33 0 OFFCURVE",
"39 0 CURVE SMOOTH",
"276 0 LINE SMOOTH",
"283 0 OFFCURVE",
"285 8 OFFCURVE",
"285 18 CURVE SMOOTH",
"285 27 OFFCURVE",
"283 36 OFFCURVE",
"276 36 CURVE SMOOTH"
);
},
{
closed = 1;
nodes = (
"364 647 OFFCURVE",
"421 585 OFFCURVE",
"421 501 CURVE SMOOTH",
"421 435 OFFCURVE",
"374 371 OFFCURVE",
"265 371 CURVE SMOOTH",
"248 371 OFFCURVE",
"229 373 OFFCURVE",
"209 378 CURVE",
"211 477 OFFCURVE",
"214 604 OFFCURVE",
"216 646 CURVE",
"224 647 OFFCURVE",
"234 647 OFFCURVE",
"251 647 CURVE SMOOTH"
);
}
);
width = 656;
}
);
note = R;
unicode = 0052;
},
{
glyphname = S;
layers = (
{
layerId = "7A03799E-F594-4F0C-AED7-187FAD140615";
name = Regular;
paths = (
{
closed = 1;
nodes = (
"179 50 OFFCURVE",
"117 70 OFFCURVE",
"86 106 CURVE",
"77 155 LINE",
"76 162 OFFCURVE",
"68 165 OFFCURVE",
"59 165 CURVE SMOOTH",
"50 165 OFFCURVE",
"42 161 OFFCURVE",
"42 153 CURVE",
"49 114 OFFCURVE",
"51 65 OFFCURVE",
"51 10 CURVE",
"106 -2 OFFCURVE",
"174 -17 OFFCURVE",
"234 -17 CURVE SMOOTH",
"353 -17 OFFCURVE",
"466 50 OFFCURVE",
"466 180 CURVE SMOOTH",
"466 287 OFFCURVE",
"376 342 OFFCURVE",
"294 388 CURVE SMOOTH",
"225 428 OFFCURVE",
"156 469 OFFCURVE",
"156 538 CURVE SMOOTH",
"156 596 OFFCURVE",
"190 646 OFFCURVE",
"268 646 CURVE SMOOTH",
"313 646 OFFCURVE",
"355 629 OFFCURVE",
"385 593 CURVE",
"394 541 LINE",
"396 534 OFFCURVE",
"403 532 OFFCURVE",
"410 532 CURVE SMOOTH",
"419 532 OFFCURVE",
"429 536 OFFCURVE",
"429 543 CURVE",
"422 583 OFFCURVE",
"420 626 OFFCURVE",
"420 688 CURVE",
"370 702 OFFCURVE",
"323 714 OFFCURVE",
"269 714 CURVE SMOOTH",
"152 714 OFFCURVE",
"58 635 OFFCURVE",
"58 515 CURVE SMOOTH",
"58 394 OFFCURVE",
"154 340 OFFCURVE",
"237 295 CURVE SMOOTH",
"300 260 OFFCURVE",
"364 224 OFFCURVE",
"364 161 CURVE SMOOTH",
"364 86 OFFCURVE",
"300 50 OFFCURVE",
"232 50 CURVE SMOOTH"
);
}
);
width = 509;
}
);
note = S;
unicode = 0053;
},
{
glyphname = T;
layers = (
{
layerId = "7A03799E-F594-4F0C-AED7-187FAD140615";
name = Regular;
paths = (
{
closed = 1;
nodes = (
"417 638 OFFCURVE",
"465 634 OFFCURVE",
"517 620 CURVE",
"534 548 LINE",
"535 541 OFFCURVE",
"542 538 OFFCURVE",
"549 538 CURVE SMOOTH",
"557 538 OFFCURVE",
"567 544 OFFCURVE",
"567 550 CURVE",
"560 594 OFFCURVE",
"558 646 OFFCURVE",
"558 700 CURVE",
"-7 700 LINE",
"-7 646 OFFCURVE",
"-9 594 OFFCURVE",
"-16 550 CURVE",
"-16 544 OFFCURVE",
"-6 538 OFFCURVE",
"2 538 CURVE SMOOTH",
"7 538 OFFCURVE",
"14 543 OFFCURVE",
"17 548 CURVE",
"35 620 LINE",
"86 634 OFFCURVE",
"134 638 OFFCURVE",
"220 638 CURVE",
"220 36 LINE",
"159 36 LINE SMOOTH",
"152 36 OFFCURVE",
"150 27 OFFCURVE",
"150 18 CURVE SMOOTH",
"150 8 OFFCURVE",
"152 0 OFFCURVE",
"159 0 CURVE SMOOTH",
"385 0 LINE SMOOTH",
"392 0 OFFCURVE",
"394 8 OFFCURVE",
"394 18 CURVE SMOOTH",
"394 27 OFFCURVE",
"392 36 OFFCURVE",
"385 36 CURVE SMOOTH",
"325 36 LINE",
"325 223 OFFCURVE",
"328 521 OFFCURVE",
"336 638 CURVE"
);
}
);
width = 559;
}
);
note = T;
unicode = 0054;
},
{
glyphname = U;
layers = (
{
layerId = "7A03799E-F594-4F0C-AED7-187FAD140615";
name = Regular;
paths = (
{
closed = 1;
nodes = (
"570 664 LINE",
"570 302 LINE SMOOTH",
"570 141 OFFCURVE",
"501 70 OFFCURVE",
"396 70 CURVE SMOOTH",
"292 70 OFFCURVE",
"205 133 OFFCURVE",
"205 281 CURVE SMOOTH",
"205 664 LINE",
"266 664 LINE SMOOTH",
"273 664 OFFCURVE",
"275 672 OFFCURVE",
"275 682 CURVE SMOOTH",
"275 692 OFFCURVE",
"273 700 OFFCURVE",
"266 700 CURVE SMOOTH",
"39 700 LINE SMOOTH",
"33 700 OFFCURVE",
"31 692 OFFCURVE",
"31 682 CURVE SMOOTH",
"31 672 OFFCURVE",
"33 664 OFFCURVE",
"39 664 CURVE SMOOTH",
"89 664 LINE",
"91 634 OFFCURVE",
"99 358 OFFCURVE",
"99 251 CURVE SMOOTH",
"99 71 OFFCURVE",
"227 -17 OFFCURVE",
"367 -17 CURVE SMOOTH",
"509 -17 OFFCURVE",
"647 75 OFFCURVE",
"647 266 CURVE SMOOTH",
"647 357 OFFCURVE",
"649 586 OFFCURVE",
"651 664 CURVE",
"700 664 LINE SMOOTH",
"707 664 OFFCURVE",
"709 672 OFFCURVE",
"709 682 CURVE SMOOTH",
"709 692 OFFCURVE",
"707 700 OFFCURVE",
"700 700 CURVE SMOOTH",
"509 700 LINE SMOOTH",
"502 700 OFFCURVE",
"500 692 OFFCURVE",
"500 682 CURVE SMOOTH",
"500 672 OFFCURVE",
"502 664 OFFCURVE",
"509 664 CURVE SMOOTH"
);
}
);
width = 750;
}
);
note = U;
unicode = 0055;
},
{
glyphname = V;
layers = (
{
layerId = "7A03799E-F594-4F0C-AED7-187FAD140615";
name = Regular;
paths = (
{
closed = 1;
nodes = (
"608 664 LINE",
"659 664 LINE SMOOTH",
"665 664 OFFCURVE",
"667 672 OFFCURVE",
"667 682 CURVE SMOOTH",
"667 692 OFFCURVE",
"665 700 OFFCURVE",
"659 700 CURVE SMOOTH",
"448 700 LINE SMOOTH",
"441 700 OFFCURVE",
"439 692 OFFCURVE",
"439 682 CURVE SMOOTH",
"439 672 OFFCURVE",
"441 664 OFFCURVE",
"448 664 CURVE SMOOTH",
"509 664 LINE",
"505 619 OFFCURVE",
"435 390 OFFCURVE",
"339 132 CURVE",
"292 285 OFFCURVE",
"192 535 OFFCURVE",
"154 664 CURVE",
"215 664 LINE SMOOTH",
"222 664 OFFCURVE",
"224 672 OFFCURVE",
"224 682 CURVE SMOOTH",
"224 692 OFFCURVE",
"222 700 OFFCURVE",
"215 700 CURVE SMOOTH",
"-22 700 LINE SMOOTH",
"-29 700 OFFCURVE",
"-31 692 OFFCURVE",
"-31 682 CURVE SMOOTH",
"-31 672 OFFCURVE",
"-29 664 OFFCURVE",
"-22 664 CURVE SMOOTH",
"29 664 LINE",
"282 -17 LINE",
"315 -17 OFFCURVE",
"346 -6 OFFCURVE",
"356 15 CURVE"
);
}
);
width = 640;
}
);
note = V;
unicode = 0056;
},
{
glyphname = W;
layers = (
{
layerId = "7A03799E-F594-4F0C-AED7-187FAD140615";
name = Regular;
paths = (
{
closed = 1;
nodes = (
"890 664 LINE",
"935 664 LINE SMOOTH",
"942 664 OFFCURVE",
"944 672 OFFCURVE",
"944 682 CURVE SMOOTH",
"944 692 OFFCURVE",
"942 700 OFFCURVE",
"935 700 CURVE SMOOTH",
"737 700 LINE SMOOTH",
"731 700 OFFCURVE",
"729 692 OFFCURVE",
"729 682 CURVE SMOOTH",
"729 672 OFFCURVE",
"731 664 OFFCURVE",
"737 664 CURVE SMOOTH",
"792 664 LINE",
"787 616 OFFCURVE",
"733 398 OFFCURVE",
"649 143 CURVE",
"607 289 OFFCURVE",
"524 542 OFFCURVE",
"490 664 CURVE",
"544 664 LINE SMOOTH",
"549 664 OFFCURVE",
"552 672 OFFCURVE",
"552 682 CURVE SMOOTH",
"552 692 OFFCURVE",
"549 700 OFFCURVE",
"544 700 CURVE SMOOTH",
"326 700 LINE SMOOTH",
"319 700 OFFCURVE",
"317 692 OFFCURVE",
"317 682 CURVE SMOOTH",
"317 672 OFFCURVE",
"319 664 OFFCURVE",
"326 664 CURVE SMOOTH",
"371 664 LINE",
"413 535 LINE",
"394 464 OFFCURVE",
"353 335 OFFCURVE",
"290 143 CURVE",
"250 286 OFFCURVE",
"164 545 OFFCURVE",
"132 664 CURVE",
"186 664 LINE SMOOTH",
"193 664 OFFCURVE",
"195 672 OFFCURVE",
"195 682 CURVE SMOOTH",
"195 692 OFFCURVE",
"193 700 OFFCURVE",
"186 700 CURVE SMOOTH",
"-32 700 LINE SMOOTH",
"-38 700 OFFCURVE",
"-40 692 OFFCURVE",
"-40 682 CURVE SMOOTH",
"-40 672 OFFCURVE",
"-38 664 OFFCURVE",
"-32 664 CURVE SMOOTH",
"13 664 LINE",
"240 -17 LINE",
"273 -17 OFFCURVE",
"297 -6 OFFCURVE",
"306 16 CURVE",
"450 427 LINE",
"597 -17 LINE",
"631 -17 OFFCURVE",
"655 -6 OFFCURVE",
"664 16 CURVE"
);
}
);
width = 916;
}
);
note = W;
unicode = 0057;
},
{
glyphname = X;
layers = (
{
layerId = "7A03799E-F594-4F0C-AED7-187FAD140615";
name = Regular;
paths = (
{
closed = 1;
nodes = (
"650 36 LINE",
"569 147 OFFCURVE",
"489 263 OFFCURVE",
"411 375 CURVE",
"520 509 OFFCURVE",
"614 622 OFFCURVE",
"655 664 CURVE",
"702 664 LINE SMOOTH",
"709 664 OFFCURVE",
"711 672 OFFCURVE",
"711 682 CURVE SMOOTH",
"711 692 OFFCURVE",
"709 700 OFFCURVE",
"702 700 CURVE SMOOTH",
"491 700 LINE SMOOTH",
"484 700 OFFCURVE",
"482 692 OFFCURVE",
"482 682 CURVE SMOOTH",
"482 672 OFFCURVE",
"484 664 OFFCURVE",
"491 664 CURVE SMOOTH",
"537 664 LINE",
"521 629 OFFCURVE",
"459 530 OFFCURVE",
"376 422 CURVE",
"292 537 OFFCURVE",
"221 638 OFFCURVE",
"208 664 CURVE",
"258 664 LINE SMOOTH",
"265 664 OFFCURVE",
"267 672 OFFCURVE",
"267 682 CURVE SMOOTH",
"267 692 OFFCURVE",
"265 700 OFFCURVE",
"258 700 CURVE SMOOTH",
"22 700 LINE SMOOTH",
"15 700 OFFCURVE",
"13 692 OFFCURVE",
"13 682 CURVE SMOOTH",
"13 672 OFFCURVE",
"15 664 OFFCURVE",
"22 664 CURVE SMOOTH",
"74 664 LINE",
"107 622 OFFCURVE",
"209 481 OFFCURVE",
"310 342 CURVE",
"229 239 OFFCURVE",
"150 128 OFFCURVE",
"69 36 CURVE",
"22 36 LINE SMOOTH",
"15 36 OFFCURVE",
"13 27 OFFCURVE",
"13 18 CURVE SMOOTH",
"13 8 OFFCURVE",
"15 0 OFFCURVE",
"22 0 CURVE SMOOTH",
"233 0 LINE SMOOTH",
"240 0 OFFCURVE",
"242 8 OFFCURVE",
"242 18 CURVE SMOOTH",
"242 27 OFFCURVE",
"240 36 OFFCURVE",
"233 36 CURVE SMOOTH",
"184 36 LINE",
"191 69 OFFCURVE",
"256 175 OFFCURVE",
"345 292 CURVE",
"429 174 OFFCURVE",
"500 66 OFFCURVE",
"515 36 CURVE",
"465 36 LINE SMOOTH",
"458 36 OFFCURVE",
"456 27 OFFCURVE",
"456 18 CURVE SMOOTH",
"456 8 OFFCURVE",
"458 0 OFFCURVE",
"465 0 CURVE SMOOTH",
"702 0 LINE SMOOTH",
"709 0 OFFCURVE",
"711 8 OFFCURVE",
"711 18 CURVE SMOOTH",
"711 27 OFFCURVE",
"709 36 OFFCURVE",
"702 36 CURVE SMOOTH"
);
}
);
width = 734;
}
);
note = X;
unicode = 0058;
},
{
glyphname = Y;
layers = (
{
layerId = "7A03799E-F594-4F0C-AED7-187FAD140615";
name = Regular;
paths = (
{
closed = 1;
nodes = (
"353 366 OFFCURVE",
"539 622 OFFCURVE",
"592 664 CURVE",
"634 664 LINE SMOOTH",
"641 664 OFFCURVE",
"643 672 OFFCURVE",
"643 682 CURVE SMOOTH",
"643 692 OFFCURVE",
"641 700 OFFCURVE",
"634 700 CURVE SMOOTH",
"427 700 LINE SMOOTH",
"420 700 OFFCURVE",
"418 692 OFFCURVE",
"418 682 CURVE SMOOTH",
"418 672 OFFCURVE",
"420 664 OFFCURVE",
"427 664 CURVE SMOOTH",
"486 664 LINE",
"423 560 OFFCURVE",
"359 456 OFFCURVE",
"323 394 CURVE",
"282 472 OFFCURVE",
"201 603 OFFCURVE",
"155 664 CURVE",
"210 664 LINE SMOOTH",
"217 664 OFFCURVE",
"219 672 OFFCURVE",
"219 682 CURVE SMOOTH",
"219 692 OFFCURVE",
"217 700 OFFCURVE",
"210 700 CURVE SMOOTH",
"-27 700 LINE SMOOTH",
"-34 700 OFFCURVE",
"-35 692 OFFCURVE",
"-35 682 CURVE SMOOTH",
"-35 672 OFFCURVE",
"-34 664 OFFCURVE",
"-27 664 CURVE SMOOTH",
"16 664 LINE",
"77 599 OFFCURVE",
"245 350 OFFCURVE",
"245 309 CURVE SMOOTH",
"245 36 LINE",
"181 36 LINE SMOOTH",
"175 36 OFFCURVE",
"173 27 OFFCURVE",
"173 18 CURVE SMOOTH",
"173 8 OFFCURVE",
"175 0 OFFCURVE",
"181 0 CURVE SMOOTH",
"414 0 LINE SMOOTH",
"421 0 OFFCURVE",
"423 8 OFFCURVE",
"423 18 CURVE SMOOTH",
"423 27 OFFCURVE",
"421 36 OFFCURVE",
"414 36 CURVE SMOOTH",
"350 36 LINE",
"350 125 OFFCURVE",
"351 226 OFFCURVE",
"352 327 CURVE SMOOTH"
);
}
);
width = 598;
}
);
note = Y;
unicode = 0059;
},
{
glyphname = Z;
layers = (
{
layerId = "7A03799E-F594-4F0C-AED7-187FAD140615";
name = Regular;
paths = (
{
closed = 1;
nodes = (
"94 614 LINE",
"146 629 OFFCURVE",
"331 640 OFFCURVE",
"434 641 CURVE",
"345 507 OFFCURVE",
"65 68 OFFCURVE",
"29 27 CURVE",
"26 23 OFFCURVE",
"25 19 OFFCURVE",
"25 14 CURVE SMOOTH",
"25 6 OFFCURVE",
"29 0 OFFCURVE",
"35 0 CURVE SMOOTH",
"576 0 LINE",
"576 55 OFFCURVE",
"578 106 OFFCURVE",
"584 165 CURVE",
"582 172 OFFCURVE",
"575 175 OFFCURVE",
"568 175 CURVE SMOOTH",
"560 175 OFFCURVE",
"553 172 OFFCURVE",
"553 166 CURVE",
"544 104 LINE",
"448 71 OFFCURVE",
"325 61 OFFCURVE",
"239 61 CURVE SMOOTH",
"215 61 OFFCURVE",
"193 62 OFFCURVE",
"179 63 CURVE",
"241 153 OFFCURVE",
"545 634 OFFCURVE",
"581 675 CURVE",
"582 678 OFFCURVE",
"582 682 OFFCURVE",
"582 686 CURVE SMOOTH",
"582 694 OFFCURVE",
"580 700 OFFCURVE",
"572 700 CURVE SMOOTH",
"63 700 LINE",
"63 644 OFFCURVE",
"61 598 OFFCURVE",
"55 547 CURVE",
"57 541 OFFCURVE",
"63 539 OFFCURVE",
"70 539 CURVE SMOOTH",
"75 539 OFFCURVE",
"83 541 OFFCURVE",
"84 547 CURVE SMOOTH"
);
}
);
width = 627;
}
);
note = Z;
unicode = 005A;
},
{
glyphname = AE;
layers = (
{
layerId = "7A03799E-F594-4F0C-AED7-187FAD140615";
name = Regular;
paths = (
{
closed = 1;
nodes = (
"411 700 LINE SMOOTH",
"404 700 OFFCURVE",
"402 692 OFFCURVE",
"402 682 CURVE SMOOTH",
"402 672 OFFCURVE",
"404 664 OFFCURVE",
"411 664 CURVE SMOOTH",
"471 664 LINE",
"10 36 LINE",
"-34 36 LINE SMOOTH",
"-40 36 OFFCURVE",
"-42 27 OFFCURVE",
"-42 18 CURVE SMOOTH",
"-42 8 OFFCURVE",
"-40 0 OFFCURVE",
"-34 0 CURVE SMOOTH",
"178 0 LINE SMOOTH",
"185 0 OFFCURVE",
"187 8 OFFCURVE",
"187 18 CURVE SMOOTH",
"187 27 OFFCURVE",
"183 36 OFFCURVE",
"177 36 CURVE SMOOTH",
"116 36 LINE",
"129 65 OFFCURVE",
"175 135 OFFCURVE",
"245 241 CURVE",
"472 241 LINE",
"472 36 LINE",
"411 36 LINE SMOOTH",
"404 36 OFFCURVE",
"402 27 OFFCURVE",
"402 18 CURVE SMOOTH",
"402 8 OFFCURVE",
"406 0 OFFCURVE",
"412 0 CURVE SMOOTH",
"885 0 LINE",
"885 55 OFFCURVE",
"887 97 OFFCURVE",
"894 148 CURVE",
"894 155 OFFCURVE",
"885 158 OFFCURVE",
"878 158 CURVE SMOOTH",
"870 158 OFFCURVE",
"862 156 OFFCURVE",
"862 150 CURVE",
"860 135 OFFCURVE",
"856 120 OFFCURVE",
"854 105 CURVE",
"814 79 OFFCURVE",
"728 53 OFFCURVE",
"637 53 CURVE SMOOTH",
"600 53 OFFCURVE",
"577 54 OFFCURVE",
"577 68 CURVE SMOOTH",
"577 205 OFFCURVE",
"579 270 OFFCURVE",
"579 335 CURVE",
"660 333 OFFCURVE",
"750 322 OFFCURVE",
"771 318 CURVE",
"783 259 LINE",
"783 253 OFFCURVE",
"788 251 OFFCURVE",
"795 251 CURVE SMOOTH",
"803 251 OFFCURVE",
"813 256 OFFCURVE",
"813 262 CURVE",
"811 295 OFFCURVE",
"809 326 OFFCURVE",
"809 358 CURVE SMOOTH",
"809 393 OFFCURVE",
"811 419 OFFCURVE",
"813 444 CURVE",
"814 451 OFFCURVE",
"803 455 OFFCURVE",
"795 455 CURVE SMOOTH",
"788 455 OFFCURVE",
"783 454 OFFCURVE",
"783 447 CURVE",
"783 448 LINE",
"772 388 LINE",
"762 385 OFFCURVE",
"665 375 OFFCURVE",
"580 373 CURVE",
"582 507 OFFCURVE",
"586 598 OFFCURVE",
"589 652 CURVE",
"693 652 OFFCURVE",
"766 647 OFFCURVE",
"808 630 CURVE",
"819 559 LINE",
"823 551 OFFCURVE",
"830 549 OFFCURVE",
"836 549 CURVE SMOOTH",
"845 549 OFFCURVE",
"852 553 OFFCURVE",
"852 560 CURVE",
"845 603 OFFCURVE",
"843 645 OFFCURVE",
"843 700 CURVE"
);
},
{
closed = 1;
nodes = (
"279 292 LINE",
"336 379 OFFCURVE",
"396 466 OFFCURVE",
"472 571 CURVE",
"472 292 LINE"
);
}
);
width = 954;
}
);
note = AE;
unicode = 00C6;
},
{
glyphname = Eng;
layers = (
{
layerId = "7A03799E-F594-4F0C-AED7-187FAD140615";
name = Regular;
paths = (
{
closed = 1;
nodes = (
"594 -14 LINE",
"593 -106 OFFCURVE",
"560 -153 OFFCURVE",
"509 -153 CURVE SMOOTH",
"476 -153 OFFCURVE",
"461 -140 OFFCURVE",
"450 -114 CURVE",
"420 -114 OFFCURVE",
"398 -137 OFFCURVE",
"398 -165 CURVE SMOOTH",
"398 -193 OFFCURVE",
"419 -224 OFFCURVE",
"474 -224 CURVE SMOOTH",
"595 -224 OFFCURVE",
"645 -129 OFFCURVE",
"645 17 CURVE SMOOTH",
"645 232 OFFCURVE",
"652 553 OFFCURVE",
"662 664 CURVE",
"712 664 LINE SMOOTH",
"719 664 OFFCURVE",
"721 672 OFFCURVE",
"721 682 CURVE SMOOTH",
"721 692 OFFCURVE",
"719 700 OFFCURVE",
"712 700 CURVE SMOOTH",
"524 700 LINE SMOOTH",
"517 700 OFFCURVE",
"515 692 OFFCURVE",
"515 682 CURVE SMOOTH",
"515 672 OFFCURVE",
"517 664 OFFCURVE",
"524 664 CURVE SMOOTH",
"585 664 LINE",
"585 168 LINE",
"205 700 LINE",
"21 700 LINE SMOOTH",
"14 700 OFFCURVE",
"12 692 OFFCURVE",
"12 682 CURVE SMOOTH",
"12 672 OFFCURVE",
"12 665 OFFCURVE",
"21 665 CURVE SMOOTH",
"77 665 OFFCURVE",
"90 650 OFFCURVE",
"114 623 CURVE SMOOTH",
"138 595 LINE",
"137 435 OFFCURVE",
"129 169 OFFCURVE",
"117 36 CURVE",
"56 36 LINE SMOOTH",
"49 36 OFFCURVE",
"47 27 OFFCURVE",
"47 18 CURVE SMOOTH",
"47 8 OFFCURVE",
"49 0 OFFCURVE",
"56 0 CURVE SMOOTH",
"259 0 LINE SMOOTH",
"266 0 OFFCURVE",
"268 8 OFFCURVE",
"268 18 CURVE SMOOTH",
"268 27 OFFCURVE",
"266 36 OFFCURVE",
"259 36 CURVE SMOOTH",
"198 36 LINE",
"198 520 LINE"
);
}
);
width = 750;
}
);
note = Eng;
unicode = 014A;
},
{
glyphname = Eth;
layers = (
{
layerId = "7A03799E-F594-4F0C-AED7-187FAD140615";
name = Regular;
paths = (
{
closed = 1;
nodes = (
"19 375 LINE",
"19 327 LINE",
"101 327 LINE",
"101 36 LINE",
"39 36 LINE SMOOTH",
"33 36 OFFCURVE",
"31 27 OFFCURVE",
"31 18 CURVE SMOOTH",
"31 8 OFFCURVE",
"35 0 OFFCURVE",
"40 0 CURVE SMOOTH",
"309 0 LINE SMOOTH",
"538 0 OFFCURVE",
"706 132 OFFCURVE",
"706 352 CURVE SMOOTH",
"706 562 OFFCURVE",
"551 700 OFFCURVE",
"289 700 CURVE SMOOTH",
"39 700 LINE SMOOTH",
"33 700 OFFCURVE",
"31 692 OFFCURVE",
"31 682 CURVE SMOOTH",
"31 672 OFFCURVE",
"33 664 OFFCURVE",
"39 664 CURVE SMOOTH",
"101 664 LINE",
"101 375 LINE"
);
},
{
closed = 1;
nodes = (
"205 158 OFFCURVE",
"205 241 OFFCURVE",
"206 327 CURVE",
"342 327 LINE",
"342 375 LINE",
"207 375 LINE",
"209 476 OFFCURVE",
"212 572 OFFCURVE",
"216 655 CURVE",
"460 649 OFFCURVE",
"590 539 OFFCURVE",
"590 326 CURVE SMOOTH",
"590 159 OFFCURVE",
"478 50 OFFCURVE",
"312 50 CURVE SMOOTH",
"227 50 OFFCURVE",
"205 60 OFFCURVE",
"205 90 CURVE SMOOTH"
);
}
);
width = 751;
}
);
note = Eth;
unicode = 00D0;
},
{
glyphname = IJ;
layers = (
{
layerId = "7A03799E-F594-4F0C-AED7-187FAD140615";
name = Regular;
paths = (
{
closed = 1;
nodes = (
"101 36 LINE",
"39 36 LINE SMOOTH",
"33 36 OFFCURVE",
"31 27 OFFCURVE",
"31 18 CURVE SMOOTH",
"31 8 OFFCURVE",
"33 0 OFFCURVE",
"39 0 CURVE SMOOTH",
"266 0 LINE SMOOTH",
"273 0 OFFCURVE",
"275 8 OFFCURVE",
"275 18 CURVE SMOOTH",
"275 27 OFFCURVE",
"273 36 OFFCURVE",
"266 36 CURVE SMOOTH",
"205 36 LINE",
"205 240 OFFCURVE",
"208 530 OFFCURVE",
"216 664 CURVE",
"266 664 LINE SMOOTH",
"273 664 OFFCURVE",
"275 672 OFFCURVE",
"275 682 CURVE SMOOTH",
"275 692 OFFCURVE",
"273 700 OFFCURVE",
"266 700 CURVE SMOOTH",
"39 700 LINE SMOOTH",
"33 700 OFFCURVE",
"31 692 OFFCURVE",
"31 682 CURVE SMOOTH",
"31 672 OFFCURVE",
"33 664 OFFCURVE",
"39 664 CURVE SMOOTH",
"101 664 LINE"
);
},
{
closed = 1;
nodes = (
"511 261 OFFCURVE",
"514 531 OFFCURVE",
"522 664 CURVE",
"572 664 LINE SMOOTH",
"579 664 OFFCURVE",
"581 672 OFFCURVE",
"581 682 CURVE SMOOTH",
"581 692 OFFCURVE",
"579 700 OFFCURVE",
"572 700 CURVE SMOOTH",
"345 700 LINE SMOOTH",
"338 700 OFFCURVE",
"336 692 OFFCURVE",
"336 682 CURVE SMOOTH",
"336 672 OFFCURVE",
"338 664 OFFCURVE",
"345 664 CURVE SMOOTH",
"406 664 LINE",
"406 -21 LINE SMOOTH",
"406 -112 OFFCURVE",
"370 -147 OFFCURVE",
"332 -147 CURVE SMOOTH",
"307 -147 OFFCURVE",
"280 -130 OFFCURVE",
"263 -105 CURVE",
"231 -105 OFFCURVE",
"213 -133 OFFCURVE",
"213 -160 CURVE SMOOTH",
"213 -188 OFFCURVE",
"234 -224 OFFCURVE",
"289 -224 CURVE SMOOTH",
"409 -224 OFFCURVE",
"511 -115 OFFCURVE",
"511 58 CURVE SMOOTH"
);
}
);
width = 620;
}
);
note = IJ;
unicode = 0132;
},
{
glyphname = OE;
layers = (
{
layerId = "7A03799E-F594-4F0C-AED7-187FAD140615";
name = Regular;
paths = (
{
closed = 1;
nodes = (
"988 559 LINE",
"992 551 OFFCURVE",
"999 549 OFFCURVE",
"1005 549 CURVE SMOOTH",
"1014 549 OFFCURVE",
"1020 553 OFFCURVE",
"1020 560 CURVE",
"1014 603 OFFCURVE",
"1012 645 OFFCURVE",
"1012 700 CURVE",
"516 700 LINE",
"484 709 OFFCURVE",
"451 714 OFFCURVE",
"414 714 CURVE SMOOTH",
"204 714 OFFCURVE",
"35 550 OFFCURVE",
"35 348 CURVE SMOOTH",
"35 147 OFFCURVE",
"204 -17 OFFCURVE",
"414 -17 CURVE SMOOTH",
"454 -17 OFFCURVE",
"493 -10 OFFCURVE",
"526 0 CURVE",
"1054 0 LINE",
"1054 55 OFFCURVE",
"1056 97 OFFCURVE",
"1063 148 CURVE",
"1063 155 OFFCURVE",
"1054 158 OFFCURVE",
"1047 158 CURVE SMOOTH",
"1038 158 OFFCURVE",
"1030 156 OFFCURVE",
"1030 149 CURVE",
"1028 134 OFFCURVE",
"1024 119 OFFCURVE",
"1022 105 CURVE",
"981 79 OFFCURVE",
"799 53 OFFCURVE",
"707 53 CURVE SMOOTH",
"687 53 OFFCURVE",
"657 53 OFFCURVE",
"634 56 CURVE",
"716 119 OFFCURVE",
"768 220 OFFCURVE",
"773 331 CURVE",
"844 327 OFFCURVE",
"919 321 OFFCURVE",
"940 318 CURVE",
"951 259 LINE",
"951 253 OFFCURVE",
"956 251 OFFCURVE",
"963 251 CURVE SMOOTH",
"971 251 OFFCURVE",
"982 256 OFFCURVE",
"982 262 CURVE",
"980 295 OFFCURVE",
"978 326 OFFCURVE",
"978 358 CURVE SMOOTH",
"978 393 OFFCURVE",
"979 419 OFFCURVE",
"982 444 CURVE SMOOTH",
"983 451 OFFCURVE",
"971 455 OFFCURVE",
"963 455 CURVE SMOOTH",
"956 455 OFFCURVE",
"951 454 OFFCURVE",
"951 448 CURVE",
"941 388 LINE",
"931 386 OFFCURVE",
"852 381 OFFCURVE",
"773 376 CURVE",
"764 490 OFFCURVE",
"707 591 OFFCURVE",
"618 652 CURVE",
"729 651 OFFCURVE",
"934 646 OFFCURVE",
"977 630 CURVE"
);
},
{
closed = 1;
nodes = (
"558 656 OFFCURVE",
"662 519 OFFCURVE",
"662 348 CURVE SMOOTH",
"662 178 OFFCURVE",
"558 42 OFFCURVE",
"414 42 CURVE SMOOTH",
"270 42 OFFCURVE",
"158 178 OFFCURVE",
"158 348 CURVE SMOOTH",
"158 519 OFFCURVE",
"270 656 OFFCURVE",
"414 656 CURVE SMOOTH"
);
}
);
width = 1115;
}
);
note = OE;
unicode = 0152;
},
{
glyphname = Oslash;
layers = (
{
layerId = "7A03799E-F594-4F0C-AED7-187FAD140615";
name = Regular;
paths = (
{
closed = 1;
nodes = (
"650 777 LINE",
"585 673 LINE",
"533 699 OFFCURVE",
"474 714 OFFCURVE",
"414 714 CURVE SMOOTH",
"204 714 OFFCURVE",
"35 550 OFFCURVE",
"35 348 CURVE SMOOTH",
"35 229 OFFCURVE",
"96 120 OFFCURVE",
"189 54 CURVE",
"125 -48 LINE",
"174 -72 LINE",
"235 27 LINE",
"288 -1 OFFCURVE",
"350 -17 OFFCURVE",
"414 -17 CURVE SMOOTH",
"624 -17 OFFCURVE",
"794 147 OFFCURVE",
"794 348 CURVE SMOOTH",
"794 473 OFFCURVE",
"731 583 OFFCURVE",
"631 649 CURVE",
"698 754 LINE"
);
},
{
closed = 1;
nodes = (
"671 178 OFFCURVE",
"558 42 OFFCURVE",
"414 42 CURVE SMOOTH",
"363 42 OFFCURVE",
"315 60 OFFCURVE",
"276 89 CURVE",
"587 578 LINE",
"636 522 OFFCURVE",
"671 438 OFFCURVE",
"671 348 CURVE SMOOTH"
);
},
{
closed = 1;
nodes = (
"462 656 OFFCURVE",
"508 640 OFFCURVE",
"545 613 CURVE",
"236 126 LINE",
"187 182 OFFCURVE",
"158 260 OFFCURVE",
"158 348 CURVE SMOOTH",
"158 519 OFFCURVE",
"270 656 OFFCURVE",
"414 656 CURVE SMOOTH"
);
}
);
width = 840;
}
);
note = Oslash;
unicode = 00D8;
},
{
glyphname = Thorn;
layers = (
{
layerId = "7A03799E-F594-4F0C-AED7-187FAD140615";
name = Regular;
paths = (
{
closed = 1;
nodes = (
"101 36 LINE",
"39 36 LINE SMOOTH",
"33 36 OFFCURVE",
"31 27 OFFCURVE",
"31 18 CURVE SMOOTH",
"31 8 OFFCURVE",
"33 0 OFFCURVE",
"39 0 CURVE SMOOTH",
"266 0 LINE SMOOTH",
"273 0 OFFCURVE",
"275 8 OFFCURVE",
"275 18 CURVE SMOOTH",
"275 27 OFFCURVE",
"273 36 OFFCURVE",
"266 36 CURVE SMOOTH",
"205 36 LINE",
"205 177 LINE",
"244 165 OFFCURVE",
"288 159 OFFCURVE",
"318 159 CURVE SMOOTH",
"459 159 OFFCURVE",
"535 256 OFFCURVE",
"535 356 CURVE SMOOTH",
"535 458 OFFCURVE",
"454 564 OFFCURVE",
"277 564 CURVE SMOOTH",
"212 564 LINE",
"213 603 OFFCURVE",
"214 636 OFFCURVE",
"216 664 CURVE",
"266 664 LINE SMOOTH",
"273 664 OFFCURVE",
"275 672 OFFCURVE",
"275 682 CURVE SMOOTH",
"275 692 OFFCURVE",
"273 700 OFFCURVE",
"266 700 CURVE SMOOTH",
"39 700 LINE SMOOTH",
"33 700 OFFCURVE",
"31 692 OFFCURVE",
"31 682 CURVE SMOOTH",
"31 672 OFFCURVE",
"33 664 OFFCURVE",
"39 664 CURVE SMOOTH",
"101 664 LINE"
);
},
{
closed = 1;
nodes = (
"249 511 LINE SMOOTH",
"365 511 OFFCURVE",
"421 434 OFFCURVE",
"421 357 CURVE SMOOTH",
"421 283 OFFCURVE",
"368 209 OFFCURVE",
"262 209 CURVE SMOOTH",
"248 209 OFFCURVE",
"224 211 OFFCURVE",
"205 214 CURVE",
"206 317 OFFCURVE",
"208 421 OFFCURVE",
"211 511 CURVE"
);
}
);
width = 571;
}
);
note = Thorn;
unicode = 00DE;
},
{
glyphname = Aacute;
layers = (
{
layerId = "7A03799E-F594-4F0C-AED7-187FAD140615";
name = Regular;
paths = (
{
closed = 1;
nodes = (
"191 292 LINE",
"220 381 OFFCURVE",
"249 465 OFFCURVE",
"289 572 CURVE",
"325 470 OFFCURVE",
"355 381 OFFCURVE",
"386 292 CURVE"
);
},
{
closed = 1;
nodes = (
"19 36 LINE",
"-24 36 LINE SMOOTH",
"-31 36 OFFCURVE",
"-33 27 OFFCURVE",
"-33 18 CURVE SMOOTH",
"-33 8 OFFCURVE",
"-31 0 OFFCURVE",
"-24 0 CURVE SMOOTH",
"180 0 LINE SMOOTH",
"187 0 OFFCURVE",
"189 8 OFFCURVE",
"189 18 CURVE SMOOTH",
"189 27 OFFCURVE",
"187 36 OFFCURVE",
"180 36 CURVE SMOOTH",
"116 36 LINE",
"122 66 OFFCURVE",
"142 138 OFFCURVE",
"175 241 CURVE",
"405 241 LINE",
"429 178 OFFCURVE",
"464 77 OFFCURVE",
"476 36 CURVE",
"414 36 LINE SMOOTH",
"407 36 OFFCURVE",
"405 27 OFFCURVE",
"405 18 CURVE SMOOTH",
"405 8 OFFCURVE",
"407 0 OFFCURVE",
"414 0 CURVE SMOOTH",
"639 0 LINE SMOOTH",
"646 0 OFFCURVE",
"648 8 OFFCURVE",
"648 18 CURVE SMOOTH",
"648 27 OFFCURVE",
"646 36 OFFCURVE",
"639 36 CURVE SMOOTH",
"599 36 LINE",
"347 714 LINE",
"315 714 OFFCURVE",
"282 703 OFFCURVE",
"272 682 CURVE"
);
},
{
closed = 1;
nodes = (
"427 863 LINE",
"436 874 OFFCURVE",
"440 884 OFFCURVE",
"440 893 CURVE SMOOTH",
"440 913 OFFCURVE",
"417 925 OFFCURVE",
"396 925 CURVE SMOOTH",
"377 925 OFFCURVE",
"357 917 OFFCURVE",
"349 901 CURVE",
"350 902 LINE",
"256 749 LINE",
"257 741 OFFCURVE",
"269 733 OFFCURVE",
"279 733 CURVE SMOOTH",
"285 733 OFFCURVE",
"289 736 OFFCURVE",
"292 739 CURVE"
);
}
);
width = 647;
}
);
note = Aacute;
unicode = 00C1;
},
{
glyphname = Abreve;
layers = (
{
layerId = "7A03799E-F594-4F0C-AED7-187FAD140615";
name = Regular;
paths = (
{
closed = 1;
nodes = (
"191 292 LINE",
"220 381 OFFCURVE",
"249 465 OFFCURVE",
"289 572 CURVE",
"325 470 OFFCURVE",
"355 381 OFFCURVE",
"386 292 CURVE"
);
},
{
closed = 1;
nodes = (
"19 36 LINE",
"-24 36 LINE SMOOTH",
"-31 36 OFFCURVE",
"-33 27 OFFCURVE",
"-33 18 CURVE SMOOTH",
"-33 8 OFFCURVE",
"-31 0 OFFCURVE",
"-24 0 CURVE SMOOTH",
"180 0 LINE SMOOTH",
"187 0 OFFCURVE",
"189 8 OFFCURVE",
"189 18 CURVE SMOOTH",
"189 27 OFFCURVE",
"187 36 OFFCURVE",
"180 36 CURVE SMOOTH",
"116 36 LINE",
"122 66 OFFCURVE",
"142 138 OFFCURVE",
"175 241 CURVE",
"405 241 LINE",
"429 178 OFFCURVE",
"464 77 OFFCURVE",
"476 36 CURVE",
"414 36 LINE SMOOTH",
"407 36 OFFCURVE",
"405 27 OFFCURVE",
"405 18 CURVE SMOOTH",
"405 8 OFFCURVE",
"407 0 OFFCURVE",
"414 0 CURVE SMOOTH",
"639 0 LINE SMOOTH",
"646 0 OFFCURVE",
"648 8 OFFCURVE",
"648 18 CURVE SMOOTH",
"648 27 OFFCURVE",
"646 36 OFFCURVE",
"639 36 CURVE SMOOTH",
"599 36 LINE",
"347 714 LINE",
"315 714 OFFCURVE",
"282 703 OFFCURVE",
"272 682 CURVE"
);
},
{
closed = 1;
nodes = (
"439 885 OFFCURVE",
"435 890 OFFCURVE",
"420 890 CURVE SMOOTH",
"410 890 OFFCURVE",
"402 888 OFFCURVE",
"402 881 CURVE SMOOTH",
"402 840 OFFCURVE",
"366 817 OFFCURVE",
"317 817 CURVE SMOOTH",
"266 817 OFFCURVE",
"230 840 OFFCURVE",
"230 881 CURVE SMOOTH",
"230 888 OFFCURVE",
"223 890 OFFCURVE",
"213 890 CURVE SMOOTH",
"198 890 OFFCURVE",
"194 885 OFFCURVE",
"194 877 CURVE SMOOTH",
"194 800 OFFCURVE",
"240 750 OFFCURVE",
"317 750 CURVE SMOOTH",
"394 750 OFFCURVE",
"439 800 OFFCURVE",
"439 877 CURVE SMOOTH"
);
}
);
width = 647;
}
);
note = Abreve;
unicode = 0102;
},
{
glyphname = Acircumflex;
layers = (
{
layerId = "7A03799E-F594-4F0C-AED7-187FAD140615";
name = Regular;
paths = (
{
closed = 1;
nodes = (
"191 292 LINE",
"220 381 OFFCURVE",
"249 465 OFFCURVE",
"289 572 CURVE",
"325 470 OFFCURVE",
"355 381 OFFCURVE",
"386 292 CURVE"
);
},
{
closed = 1;
nodes = (
"19 36 LINE",
"-24 36 LINE SMOOTH",
"-31 36 OFFCURVE",
"-33 27 OFFCURVE",
"-33 18 CURVE SMOOTH",
"-33 8 OFFCURVE",
"-31 0 OFFCURVE",
"-24 0 CURVE SMOOTH",
"180 0 LINE SMOOTH",
"187 0 OFFCURVE",
"189 8 OFFCURVE",
"189 18 CURVE SMOOTH",
"189 27 OFFCURVE",
"187 36 OFFCURVE",
"180 36 CURVE SMOOTH",
"116 36 LINE",
"122 66 OFFCURVE",
"142 138 OFFCURVE",
"175 241 CURVE",
"405 241 LINE",
"429 178 OFFCURVE",
"464 77 OFFCURVE",
"476 36 CURVE",
"414 36 LINE SMOOTH",
"407 36 OFFCURVE",
"405 27 OFFCURVE",
"405 18 CURVE SMOOTH",
"405 8 OFFCURVE",
"407 0 OFFCURVE",
"414 0 CURVE SMOOTH",
"639 0 LINE SMOOTH",
"646 0 OFFCURVE",
"648 8 OFFCURVE",
"648 18 CURVE SMOOTH",
"648 27 OFFCURVE",
"646 36 OFFCURVE",
"639 36 CURVE SMOOTH",
"599 36 LINE",
"347 714 LINE",
"315 714 OFFCURVE",
"282 703 OFFCURVE",
"272 682 CURVE"
);
},
{
closed = 1;
nodes = (
"318 825 LINE",
"435 740 LINE",
"434 740 LINE",
"445 729 OFFCURVE",
"466 749 OFFCURVE",
"462 758 CURVE",
"356 901 LINE",
"356 900 LINE",
"347 916 OFFCURVE",
"333 921 OFFCURVE",
"319 921 CURVE SMOOTH",
"307 921 OFFCURVE",
"293 916 OFFCURVE",
"284 900 CURVE",
"284 901 LINE",
"178 758 LINE",
"173 749 OFFCURVE",
"193 730 OFFCURVE",
"203 740 CURVE",
"202 740 LINE"
);
}
);
width = 647;
}
);
note = Acircumflex;
unicode = 00C2;
},
{
glyphname = Adieresis;
layers = (
{
layerId = "7A03799E-F594-4F0C-AED7-187FAD140615";
name = Regular;
paths = (
{
closed = 1;
nodes = (
"191 292 LINE",
"220 381 OFFCURVE",
"249 465 OFFCURVE",
"289 572 CURVE",
"325 470 OFFCURVE",
"355 381 OFFCURVE",
"386 292 CURVE"
);
},
{
closed = 1;
nodes = (
"19 36 LINE",
"-24 36 LINE SMOOTH",
"-31 36 OFFCURVE",
"-33 27 OFFCURVE",
"-33 18 CURVE SMOOTH",
"-33 8 OFFCURVE",
"-31 0 OFFCURVE",
"-24 0 CURVE SMOOTH",
"180 0 LINE SMOOTH",
"187 0 OFFCURVE",
"189 8 OFFCURVE",
"189 18 CURVE SMOOTH",
"189 27 OFFCURVE",
"187 36 OFFCURVE",
"180 36 CURVE SMOOTH",
"116 36 LINE",
"122 66 OFFCURVE",
"142 138 OFFCURVE",
"175 241 CURVE",
"405 241 LINE",
"429 178 OFFCURVE",
"464 77 OFFCURVE",
"476 36 CURVE",
"414 36 LINE SMOOTH",
"407 36 OFFCURVE",
"405 27 OFFCURVE",
"405 18 CURVE SMOOTH",
"405 8 OFFCURVE",
"407 0 OFFCURVE",
"414 0 CURVE SMOOTH",
"639 0 LINE SMOOTH",
"646 0 OFFCURVE",
"648 8 OFFCURVE",
"648 18 CURVE SMOOTH",
"648 27 OFFCURVE",
"646 36 OFFCURVE",
"639 36 CURVE SMOOTH",
"599 36 LINE",
"347 714 LINE",
"315 714 OFFCURVE",
"282 703 OFFCURVE",
"272 682 CURVE"
);
},
{
closed = 1;
nodes = (
"198 852 OFFCURVE",
"175 830 OFFCURVE",
"175 799 CURVE SMOOTH",
"175 767 OFFCURVE",
"198 746 OFFCURVE",
"226 746 CURVE SMOOTH",
"255 746 OFFCURVE",
"277 767 OFFCURVE",
"277 799 CURVE SMOOTH",
"277 830 OFFCURVE",
"255 852 OFFCURVE",
"226 852 CURVE SMOOTH"
);
},
{
closed = 1;
nodes = (
"383 852 OFFCURVE",
"361 830 OFFCURVE",
"361 799 CURVE SMOOTH",
"361 767 OFFCURVE",
"383 746 OFFCURVE",
"412 746 CURVE SMOOTH",
"440 746 OFFCURVE",
"462 767 OFFCURVE",
"462 799 CURVE SMOOTH",
"462 830 OFFCURVE",
"440 852 OFFCURVE",
"412 852 CURVE SMOOTH"
);
}
);
width = 647;
}
);
note = Adieresis;
unicode = 00C4;
},
{
glyphname = Agrave;
layers = (
{
layerId = "7A03799E-F594-4F0C-AED7-187FAD140615";
name = Regular;
paths = (
{
closed = 1;
nodes = (
"191 292 LINE",
"220 381 OFFCURVE",
"249 465 OFFCURVE",
"289 572 CURVE",
"325 470 OFFCURVE",
"355 381 OFFCURVE",
"386 292 CURVE"
);
},
{
closed = 1;
nodes = (
"19 36 LINE",
"-24 36 LINE SMOOTH",
"-31 36 OFFCURVE",
"-33 27 OFFCURVE",
"-33 18 CURVE SMOOTH",
"-33 8 OFFCURVE",
"-31 0 OFFCURVE",
"-24 0 CURVE SMOOTH",
"180 0 LINE SMOOTH",
"187 0 OFFCURVE",
"189 8 OFFCURVE",
"189 18 CURVE SMOOTH",
"189 27 OFFCURVE",
"187 36 OFFCURVE",
"180 36 CURVE SMOOTH",
"116 36 LINE",
"122 66 OFFCURVE",
"142 138 OFFCURVE",
"175 241 CURVE",
"405 241 LINE",
"429 178 OFFCURVE",
"464 77 OFFCURVE",
"476 36 CURVE",
"414 36 LINE SMOOTH",
"407 36 OFFCURVE",
"405 27 OFFCURVE",
"405 18 CURVE SMOOTH",
"405 8 OFFCURVE",
"407 0 OFFCURVE",
"414 0 CURVE SMOOTH",
"639 0 LINE SMOOTH",
"646 0 OFFCURVE",
"648 8 OFFCURVE",
"648 18 CURVE SMOOTH",
"648 27 OFFCURVE",
"646 36 OFFCURVE",
"639 36 CURVE SMOOTH",
"599 36 LINE",
"347 714 LINE",
"315 714 OFFCURVE",
"282 703 OFFCURVE",
"272 682 CURVE"
);
},
{
closed = 1;
nodes = (
"356 739 LINE",
"359 736 OFFCURVE",
"363 733 OFFCURVE",
"369 733 CURVE SMOOTH",
"379 733 OFFCURVE",
"390 741 OFFCURVE",
"392 749 CURVE",
"298 902 LINE",
"299 901 LINE",
"291 917 OFFCURVE",
"271 925 OFFCURVE",
"253 925 CURVE SMOOTH",
"230 925 OFFCURVE",
"208 913 OFFCURVE",
"208 893 CURVE SMOOTH",
"208 884 OFFCURVE",
"212 874 OFFCURVE",
"221 863 CURVE"
);
}
);
width = 647;
}
);
note = Agrave;
unicode = 00C0;
},
{
glyphname = Amacron;
layers = (
{
layerId = "7A03799E-F594-4F0C-AED7-187FAD140615";
name = Regular;
paths = (
{
closed = 1;
nodes = (
"191 292 LINE",
"220 381 OFFCURVE",
"249 465 OFFCURVE",
"289 572 CURVE",
"325 470 OFFCURVE",
"355 381 OFFCURVE",
"386 292 CURVE"
);
},
{
closed = 1;
nodes = (
"19 36 LINE",
"-24 36 LINE SMOOTH",
"-31 36 OFFCURVE",
"-33 27 OFFCURVE",
"-33 18 CURVE SMOOTH",
"-33 8 OFFCURVE",
"-31 0 OFFCURVE",
"-24 0 CURVE SMOOTH",
"180 0 LINE SMOOTH",
"187 0 OFFCURVE",
"189 8 OFFCURVE",
"189 18 CURVE SMOOTH",
"189 27 OFFCURVE",
"187 36 OFFCURVE",
"180 36 CURVE SMOOTH",
"116 36 LINE",
"122 66 OFFCURVE",
"142 138 OFFCURVE",
"175 241 CURVE",
"405 241 LINE",
"429 178 OFFCURVE",
"464 77 OFFCURVE",
"476 36 CURVE",
"414 36 LINE SMOOTH",
"407 36 OFFCURVE",
"405 27 OFFCURVE",
"405 18 CURVE SMOOTH",
"405 8 OFFCURVE",
"407 0 OFFCURVE",
"414 0 CURVE SMOOTH",
"639 0 LINE SMOOTH",
"646 0 OFFCURVE",
"648 8 OFFCURVE",
"648 18 CURVE SMOOTH",
"648 27 OFFCURVE",
"646 36 OFFCURVE",
"639 36 CURVE SMOOTH",
"599 36 LINE",
"347 714 LINE",
"315 714 OFFCURVE",
"282 703 OFFCURVE",
"272 682 CURVE"
);
},
{
closed = 1;
nodes = (
"184 823 LINE",
"184 767 LINE",
"452 767 LINE",
"452 823 LINE"
);
}
);
width = 647;
}
);
note = Amacron;
unicode = 0100;
},
{
glyphname = Aogonek;
layers = (
{
layerId = "7A03799E-F594-4F0C-AED7-187FAD140615";
name = Regular;
paths = (
{
closed = 1;
nodes = (
"19 36 LINE",
"-24 36 LINE SMOOTH",
"-31 36 OFFCURVE",
"-33 27 OFFCURVE",
"-33 18 CURVE SMOOTH",
"-33 8 OFFCURVE",
"-31 0 OFFCURVE",
"-24 0 CURVE SMOOTH",
"180 0 LINE SMOOTH",
"187 0 OFFCURVE",
"189 8 OFFCURVE",
"189 18 CURVE SMOOTH",
"189 27 OFFCURVE",
"187 36 OFFCURVE",
"180 36 CURVE SMOOTH",
"116 36 LINE",
"122 66 OFFCURVE",
"142 138 OFFCURVE",
"175 241 CURVE",
"405 241 LINE",
"429 178 OFFCURVE",
"464 77 OFFCURVE",
"476 36 CURVE",
"414 36 LINE SMOOTH",
"407 36 OFFCURVE",
"405 27 OFFCURVE",
"405 18 CURVE SMOOTH",
"405 8 OFFCURVE",
"407 0 OFFCURVE",
"414 0 CURVE SMOOTH",
"548 0 LINE",
"485 -28 OFFCURVE",
"426 -79 OFFCURVE",
"426 -145 CURVE SMOOTH",
"426 -215 OFFCURVE",
"475 -240 OFFCURVE",
"536 -240 CURVE SMOOTH",
"581 -240 OFFCURVE",
"627 -219 OFFCURVE",
"658 -185 CURVE SMOOTH",
"671 -171 OFFCURVE",
"654 -156 OFFCURVE",
"644 -162 CURVE",
"624 -176 OFFCURVE",
"601 -183 OFFCURVE",
"579 -183 CURVE SMOOTH",
"544 -183 OFFCURVE",
"513 -169 OFFCURVE",
"513 -122 CURVE SMOOTH",
"513 -70 OFFCURVE",
"550 -30 OFFCURVE",
"600 0 CURVE",
"639 0 LINE SMOOTH",
"646 0 OFFCURVE",
"648 8 OFFCURVE",
"648 18 CURVE SMOOTH",
"648 27 OFFCURVE",
"646 36 OFFCURVE",
"639 36 CURVE SMOOTH",
"599 36 LINE",
"347 714 LINE",
"315 714 OFFCURVE",
"282 703 OFFCURVE",
"272 682 CURVE"
);
},
{
closed = 1;
nodes = (
"191 292 LINE",
"220 381 OFFCURVE",
"249 465 OFFCURVE",
"289 572 CURVE",
"325 470 OFFCURVE",
"355 381 OFFCURVE",
"386 292 CURVE"
);
}
);
width = 647;
}
);
note = Aogonek;
unicode = 0104;
},
{
glyphname = Aring;
layers = (
{
layerId = "7A03799E-F594-4F0C-AED7-187FAD140615";
name = Regular;
paths = (
{
closed = 1;
nodes = (
"191 292 LINE",
"220 381 OFFCURVE",
"249 465 OFFCURVE",
"289 572 CURVE",
"325 470 OFFCURVE",
"355 381 OFFCURVE",
"386 292 CURVE"
);
},
{
closed = 1;
nodes = (
"19 36 LINE",
"-24 36 LINE SMOOTH",
"-31 36 OFFCURVE",
"-33 27 OFFCURVE",
"-33 18 CURVE SMOOTH",
"-33 8 OFFCURVE",
"-31 0 OFFCURVE",
"-24 0 CURVE SMOOTH",
"180 0 LINE SMOOTH",
"187 0 OFFCURVE",
"189 8 OFFCURVE",
"189 18 CURVE SMOOTH",
"189 27 OFFCURVE",
"187 36 OFFCURVE",
"180 36 CURVE SMOOTH",
"116 36 LINE",
"122 66 OFFCURVE",
"142 138 OFFCURVE",
"175 241 CURVE",
"405 241 LINE",
"429 178 OFFCURVE",
"464 77 OFFCURVE",
"476 36 CURVE",
"414 36 LINE SMOOTH",
"407 36 OFFCURVE",
"405 27 OFFCURVE",
"405 18 CURVE SMOOTH",
"405 8 OFFCURVE",
"407 0 OFFCURVE",
"414 0 CURVE SMOOTH",
"639 0 LINE SMOOTH",
"646 0 OFFCURVE",
"648 8 OFFCURVE",
"648 18 CURVE SMOOTH",
"648 27 OFFCURVE",
"646 36 OFFCURVE",
"639 36 CURVE SMOOTH",
"599 36 LINE",
"347 714 LINE",
"315 714 OFFCURVE",
"282 703 OFFCURVE",
"272 682 CURVE"
);
},
{
closed = 1;
nodes = (
"247 930 OFFCURVE",
"193 890 OFFCURVE",
"193 822 CURVE SMOOTH",
"193 763 OFFCURVE",
"247 724 OFFCURVE",
"315 724 CURVE SMOOTH",
"383 724 OFFCURVE",
"437 763 OFFCURVE",
"437 822 CURVE SMOOTH",
"437 890 OFFCURVE",
"383 930 OFFCURVE",
"315 930 CURVE SMOOTH"
);
},
{
closed = 1;
nodes = (
"355 878 OFFCURVE",
"374 861 OFFCURVE",
"374 822 CURVE SMOOTH",
"374 791 OFFCURVE",
"355 773 OFFCURVE",
"315 773 CURVE SMOOTH",
"275 773 OFFCURVE",
"256 791 OFFCURVE",
"256 822 CURVE SMOOTH",
"256 861 OFFCURVE",
"275 878 OFFCURVE",
"315 878 CURVE SMOOTH"
);
}
);
width = 647;
}
);
note = Aring;
unicode = 00C5;
},
{
glyphname = Atilde;
layers = (
{
layerId = "7A03799E-F594-4F0C-AED7-187FAD140615";
name = Regular;
paths = (
{
closed = 1;
nodes = (
"191 292 LINE",
"220 381 OFFCURVE",
"249 465 OFFCURVE",
"289 572 CURVE",
"325 470 OFFCURVE",
"355 381 OFFCURVE",
"386 292 CURVE"
);
},
{
closed = 1;
nodes = (
"19 36 LINE",
"-24 36 LINE SMOOTH",
"-31 36 OFFCURVE",
"-33 27 OFFCURVE",
"-33 18 CURVE SMOOTH",
"-33 8 OFFCURVE",
"-31 0 OFFCURVE",
"-24 0 CURVE SMOOTH",
"180 0 LINE SMOOTH",
"187 0 OFFCURVE",
"189 8 OFFCURVE",
"189 18 CURVE SMOOTH",
"189 27 OFFCURVE",
"187 36 OFFCURVE",
"180 36 CURVE SMOOTH",
"116 36 LINE",
"122 66 OFFCURVE",
"142 138 OFFCURVE",
"175 241 CURVE",
"405 241 LINE",
"429 178 OFFCURVE",
"464 77 OFFCURVE",
"476 36 CURVE",
"414 36 LINE SMOOTH",
"407 36 OFFCURVE",
"405 27 OFFCURVE",
"405 18 CURVE SMOOTH",
"405 8 OFFCURVE",
"407 0 OFFCURVE",
"414 0 CURVE SMOOTH",
"639 0 LINE SMOOTH",
"646 0 OFFCURVE",
"648 8 OFFCURVE",
"648 18 CURVE SMOOTH",
"648 27 OFFCURVE",
"646 36 OFFCURVE",
"639 36 CURVE SMOOTH",
"599 36 LINE",
"347 714 LINE",
"315 714 OFFCURVE",
"282 703 OFFCURVE",
"272 682 CURVE"
);
},
{
closed = 1;
nodes = (
"208 815 OFFCURVE",
"231 827 OFFCURVE",
"254 827 CURVE SMOOTH",
"276 827 OFFCURVE",
"295 812 OFFCURVE",
"314 798 CURVE",
"332 782 OFFCURVE",
"352 767 OFFCURVE",
"380 767 CURVE SMOOTH",
"412 767 OFFCURVE",
"445 785 OFFCURVE",
"482 874 CURVE",
"486 890 OFFCURVE",
"461 900 OFFCURVE",
"457 897 CURVE",
"427 849 OFFCURVE",
"414 840 OFFCURVE",
"395 840 CURVE SMOOTH",
"373 840 OFFCURVE",
"352 856 OFFCURVE",
"334 870 CURVE SMOOTH",
"314 886 OFFCURVE",
"295 901 OFFCURVE",
"267 901 CURVE SMOOTH",
"234 901 OFFCURVE",
"194 885 OFFCURVE",
"157 795 CURVE",
"152 784 OFFCURVE",
"180 769 OFFCURVE",
"184 776 CURVE SMOOTH"
);
}
);
width = 647;
}
);
note = Atilde;
unicode = 00C3;
},
{
glyphname = Cacute;
layers = (
{
layerId = "7A03799E-F594-4F0C-AED7-187FAD140615";
name = Regular;
paths = (
{
closed = 1;
nodes = (
"35 108 OFFCURVE",
"195 -17 OFFCURVE",
"427 -17 CURVE SMOOTH",
"495 -17 OFFCURVE",
"556 -6 OFFCURVE",
"652 20 CURVE",
"652 74 OFFCURVE",
"654 117 OFFCURVE",
"662 153 CURVE",
"662 164 OFFCURVE",
"654 169 OFFCURVE",
"644 169 CURVE SMOOTH",
"635 169 OFFCURVE",
"627 166 OFFCURVE",
"627 154 CURVE",
"625 137 OFFCURVE",
"621 122 OFFCURVE",
"619 106 CURVE",
"559 64 OFFCURVE",
"501 41 OFFCURVE",
"433 41 CURVE SMOOTH",
"279 41 OFFCURVE",
"155 155 OFFCURVE",
"155 353 CURVE SMOOTH",
"155 548 OFFCURVE",
"279 652 OFFCURVE",
"425 652 CURVE SMOOTH",
"492 652 OFFCURVE",
"549 628 OFFCURVE",
"607 578 CURVE",
"614 528 LINE",
"616 520 OFFCURVE",
"624 517 OFFCURVE",
"631 517 CURVE SMOOTH",
"639 517 OFFCURVE",
"649 522 OFFCURVE",
"649 530 CURVE",
"642 580 OFFCURVE",
"640 623 OFFCURVE",
"640 677 CURVE",
"560 703 OFFCURVE",
"509 714 OFFCURVE",
"447 714 CURVE SMOOTH",
"228 714 OFFCURVE",
"35 582 OFFCURVE",
"35 329 CURVE SMOOTH"
);
},
{
closed = 1;
nodes = (
"502 863 LINE",
"511 874 OFFCURVE",
"515 884 OFFCURVE",
"515 893 CURVE SMOOTH",
"515 913 OFFCURVE",
"492 925 OFFCURVE",
"471 925 CURVE SMOOTH",
"452 925 OFFCURVE",
"432 917 OFFCURVE",
"424 901 CURVE",
"425 902 LINE",
"331 749 LINE",
"332 741 OFFCURVE",
"344 733 OFFCURVE",
"354 733 CURVE SMOOTH",
"360 733 OFFCURVE",
"364 736 OFFCURVE",
"367 739 CURVE"
);
}
);
width = 718;
}
);
note = Cacute;
unicode = 0106;
},
{
glyphname = Ccaron;
layers = (
{
layerId = "7A03799E-F594-4F0C-AED7-187FAD140615";
name = Regular;
paths = (
{
closed = 1;
nodes = (
"35 108 OFFCURVE",
"195 -17 OFFCURVE",
"427 -17 CURVE SMOOTH",
"495 -17 OFFCURVE",
"556 -6 OFFCURVE",
"652 20 CURVE",
"652 74 OFFCURVE",
"654 117 OFFCURVE",
"662 153 CURVE",
"662 164 OFFCURVE",
"654 169 OFFCURVE",
"644 169 CURVE SMOOTH",
"635 169 OFFCURVE",
"627 166 OFFCURVE",
"627 154 CURVE",
"625 137 OFFCURVE",
"621 122 OFFCURVE",
"619 106 CURVE",
"559 64 OFFCURVE",
"501 41 OFFCURVE",
"433 41 CURVE SMOOTH",
"279 41 OFFCURVE",
"155 155 OFFCURVE",
"155 353 CURVE SMOOTH",
"155 548 OFFCURVE",
"279 652 OFFCURVE",
"425 652 CURVE SMOOTH",
"492 652 OFFCURVE",
"549 628 OFFCURVE",
"607 578 CURVE",
"614 528 LINE",
"616 520 OFFCURVE",
"624 517 OFFCURVE",
"631 517 CURVE SMOOTH",
"639 517 OFFCURVE",
"649 522 OFFCURVE",
"649 530 CURVE",
"642 580 OFFCURVE",
"640 623 OFFCURVE",
"640 677 CURVE",
"560 703 OFFCURVE",
"509 714 OFFCURVE",
"447 714 CURVE SMOOTH",
"228 714 OFFCURVE",
"35 582 OFFCURVE",
"35 329 CURVE SMOOTH"
);
},
{
closed = 1;
nodes = (
"417 837 LINE",
"301 921 LINE",
"302 921 LINE",
"291 932 OFFCURVE",
"270 912 OFFCURVE",
"274 904 CURVE",
"380 761 LINE",
"380 762 LINE",
"388 746 OFFCURVE",
"402 741 OFFCURVE",
"416 741 CURVE SMOOTH",
"429 741 OFFCURVE",
"442 746 OFFCURVE",
"451 762 CURVE",
"451 761 LINE",
"557 904 LINE",
"562 912 OFFCURVE",
"541 931 OFFCURVE",
"531 921 CURVE",
"532 921 LINE"
);
}
);
width = 718;
}
);
note = Ccaron;
unicode = 010C;
},
{
glyphname = Ccircumflex;
layers = (
{
layerId = "7A03799E-F594-4F0C-AED7-187FAD140615";
name = Regular;
paths = (
{
closed = 1;
nodes = (
"35 108 OFFCURVE",
"195 -17 OFFCURVE",
"427 -17 CURVE SMOOTH",
"495 -17 OFFCURVE",
"556 -6 OFFCURVE",
"652 20 CURVE",
"652 74 OFFCURVE",
"654 117 OFFCURVE",
"662 153 CURVE",
"662 164 OFFCURVE",
"654 169 OFFCURVE",
"644 169 CURVE SMOOTH",
"635 169 OFFCURVE",
"627 166 OFFCURVE",
"627 154 CURVE",
"625 137 OFFCURVE",
"621 122 OFFCURVE",
"619 106 CURVE",
"559 64 OFFCURVE",
"501 41 OFFCURVE",
"433 41 CURVE SMOOTH",
"279 41 OFFCURVE",
"155 155 OFFCURVE",
"155 353 CURVE SMOOTH",
"155 548 OFFCURVE",
"279 652 OFFCURVE",
"425 652 CURVE SMOOTH",
"492 652 OFFCURVE",
"549 628 OFFCURVE",
"607 578 CURVE",
"614 528 LINE",
"616 520 OFFCURVE",
"624 517 OFFCURVE",
"631 517 CURVE SMOOTH",
"639 517 OFFCURVE",
"649 522 OFFCURVE",
"649 530 CURVE",
"642 580 OFFCURVE",
"640 623 OFFCURVE",
"640 677 CURVE",
"560 703 OFFCURVE",
"509 714 OFFCURVE",
"447 714 CURVE SMOOTH",
"228 714 OFFCURVE",
"35 582 OFFCURVE",
"35 329 CURVE SMOOTH"
);
},
{
closed = 1;
nodes = (
"436 825 LINE",
"553 740 LINE",
"552 740 LINE",
"563 729 OFFCURVE",
"584 749 OFFCURVE",
"580 758 CURVE",
"474 901 LINE",
"474 900 LINE",
"465 916 OFFCURVE",
"451 921 OFFCURVE",
"437 921 CURVE SMOOTH",
"425 921 OFFCURVE",
"411 916 OFFCURVE",
"402 900 CURVE",
"402 901 LINE",
"296 758 LINE",
"291 749 OFFCURVE",
"311 730 OFFCURVE",
"321 740 CURVE",
"320 740 LINE"
);
}
);
width = 718;
}
);
note = Ccircumflex;
unicode = 0108;
},
{
glyphname = Cdotaccent;
layers = (
{
layerId = "7A03799E-F594-4F0C-AED7-187FAD140615";
name = Regular;
paths = (
{
closed = 1;
nodes = (
"35 108 OFFCURVE",
"195 -17 OFFCURVE",
"427 -17 CURVE SMOOTH",
"495 -17 OFFCURVE",
"556 -6 OFFCURVE",
"652 20 CURVE",
"652 74 OFFCURVE",
"654 117 OFFCURVE",
"662 153 CURVE",
"662 164 OFFCURVE",
"654 169 OFFCURVE",
"644 169 CURVE SMOOTH",
"635 169 OFFCURVE",
"627 166 OFFCURVE",
"627 154 CURVE",
"625 137 OFFCURVE",
"621 122 OFFCURVE",
"619 106 CURVE",
"559 64 OFFCURVE",
"501 41 OFFCURVE",
"433 41 CURVE SMOOTH",
"279 41 OFFCURVE",
"155 155 OFFCURVE",
"155 353 CURVE SMOOTH",
"155 548 OFFCURVE",
"279 652 OFFCURVE",
"425 652 CURVE SMOOTH",
"492 652 OFFCURVE",
"549 628 OFFCURVE",
"607 578 CURVE",
"614 528 LINE",
"616 520 OFFCURVE",
"624 517 OFFCURVE",
"631 517 CURVE SMOOTH",
"639 517 OFFCURVE",
"649 522 OFFCURVE",
"649 530 CURVE",
"642 580 OFFCURVE",
"640 623 OFFCURVE",
"640 677 CURVE",
"560 703 OFFCURVE",
"509 714 OFFCURVE",
"447 714 CURVE SMOOTH",
"228 714 OFFCURVE",
"35 582 OFFCURVE",
"35 329 CURVE SMOOTH"
);
},
{
closed = 1;
nodes = (
"406 871 OFFCURVE",
"382 846 OFFCURVE",
"382 817 CURVE SMOOTH",
"382 787 OFFCURVE",
"406 763 OFFCURVE",
"435 763 CURVE SMOOTH",
"465 763 OFFCURVE",
"489 787 OFFCURVE",
"489 817 CURVE SMOOTH",
"489 846 OFFCURVE",
"465 871 OFFCURVE",
"435 871 CURVE SMOOTH"
);
}
);
width = 718;
}
);
note = Cdotaccent;
unicode = 010A;
},
{
glyphname = Ccedilla;
layers = (
{
layerId = "7A03799E-F594-4F0C-AED7-187FAD140615";
name = Regular;
paths = (
{
closed = 1;
nodes = (
"35 115 OFFCURVE",
"185 -9 OFFCURVE",
"405 -16 CURVE",
"379 -34 OFFCURVE",
"356 -58 OFFCURVE",
"356 -77 CURVE SMOOTH",
"356 -99 OFFCURVE",
"381 -105 OFFCURVE",
"407 -113 CURVE SMOOTH",
"435 -121 OFFCURVE",
"468 -129 OFFCURVE",
"468 -161 CURVE SMOOTH",
"468 -192 OFFCURVE",
"440 -198 OFFCURVE",
"412 -198 CURVE SMOOTH",
"387 -198 OFFCURVE",
"357 -191 OFFCURVE",
"335 -174 CURVE SMOOTH",
"326 -167 OFFCURVE",
"313 -178 OFFCURVE",
"313 -187 CURVE SMOOTH",
"313 -189 OFFCURVE",
"314 -190 OFFCURVE",
"315 -192 CURVE",
"341 -226 OFFCURVE",
"387 -240 OFFCURVE",
"427 -240 CURVE SMOOTH",
"483 -240 OFFCURVE",
"538 -216 OFFCURVE",
"538 -154 CURVE SMOOTH",
"538 -88 OFFCURVE",
"483 -74 OFFCURVE",
"447 -65 CURVE SMOOTH",
"433 -62 OFFCURVE",
"422 -59 OFFCURVE",
"422 -55 CURVE SMOOTH",
"422 -44 OFFCURVE",
"441 -28 OFFCURVE",
"459 -16 CURVE",
"515 -13 OFFCURVE",
"571 -2 OFFCURVE",
"652 20 CURVE",
"652 74 OFFCURVE",
"654 117 OFFCURVE",
"662 153 CURVE",
"662 164 OFFCURVE",
"654 169 OFFCURVE",
"644 169 CURVE SMOOTH",
"635 169 OFFCURVE",
"627 166 OFFCURVE",
"627 154 CURVE",
"625 137 OFFCURVE",
"621 122 OFFCURVE",
"619 106 CURVE",
"559 64 OFFCURVE",
"501 41 OFFCURVE",
"433 41 CURVE SMOOTH",
"279 41 OFFCURVE",
"155 155 OFFCURVE",
"155 353 CURVE SMOOTH",
"155 548 OFFCURVE",
"279 652 OFFCURVE",
"425 652 CURVE SMOOTH",
"492 652 OFFCURVE",
"549 628 OFFCURVE",
"607 578 CURVE",
"614 528 LINE",
"616 520 OFFCURVE",
"624 517 OFFCURVE",
"631 517 CURVE SMOOTH",
"639 517 OFFCURVE",
"649 522 OFFCURVE",
"649 530 CURVE",
"642 580 OFFCURVE",
"640 623 OFFCURVE",
"640 677 CURVE",
"560 703 OFFCURVE",
"509 714 OFFCURVE",
"447 714 CURVE SMOOTH",
"228 714 OFFCURVE",
"35 582 OFFCURVE",
"35 329 CURVE SMOOTH"
);
}
);
width = 718;
}
);
note = Ccedilla;
unicode = 00C7;
},
{
glyphname = Dcroat;
layers = (
{
layerId = "7A03799E-F594-4F0C-AED7-187FAD140615";
name = Regular;
paths = (
{
closed = 1;
nodes = (
"19 375 LINE",
"19 327 LINE",
"101 327 LINE",
"101 36 LINE",
"39 36 LINE SMOOTH",
"33 36 OFFCURVE",
"31 27 OFFCURVE",
"31 18 CURVE SMOOTH",
"31 8 OFFCURVE",
"35 0 OFFCURVE",
"40 0 CURVE SMOOTH",
"309 0 LINE SMOOTH",
"538 0 OFFCURVE",
"706 132 OFFCURVE",
"706 352 CURVE SMOOTH",
"706 562 OFFCURVE",
"551 700 OFFCURVE",
"289 700 CURVE SMOOTH",
"39 700 LINE SMOOTH",
"33 700 OFFCURVE",
"31 692 OFFCURVE",
"31 682 CURVE SMOOTH",
"31 672 OFFCURVE",
"33 664 OFFCURVE",
"39 664 CURVE SMOOTH",
"101 664 LINE",
"101 375 LINE"
);
},
{
closed = 1;
nodes = (
"205 158 OFFCURVE",
"205 241 OFFCURVE",
"206 327 CURVE",
"342 327 LINE",
"342 375 LINE",
"207 375 LINE",
"209 476 OFFCURVE",
"212 572 OFFCURVE",
"216 655 CURVE",
"460 649 OFFCURVE",
"590 539 OFFCURVE",
"590 326 CURVE SMOOTH",
"590 159 OFFCURVE",
"478 50 OFFCURVE",
"312 50 CURVE SMOOTH",
"227 50 OFFCURVE",
"205 60 OFFCURVE",
"205 90 CURVE SMOOTH"
);
}
);
width = 751;
}
);
note = Dcroat;
unicode = 0110;
},
{
glyphname = Dcaron;
layers = (
{
layerId = "7A03799E-F594-4F0C-AED7-187FAD140615";
name = Regular;
paths = (
{
closed = 1;
nodes = (
"309 0 LINE SMOOTH",
"538 0 OFFCURVE",
"706 132 OFFCURVE",
"706 352 CURVE SMOOTH",
"706 562 OFFCURVE",
"551 700 OFFCURVE",
"289 700 CURVE SMOOTH",
"39 700 LINE SMOOTH",
"33 700 OFFCURVE",
"31 692 OFFCURVE",
"31 682 CURVE SMOOTH",
"31 672 OFFCURVE",
"33 664 OFFCURVE",
"39 664 CURVE SMOOTH",
"101 664 LINE",
"101 36 LINE",
"39 36 LINE SMOOTH",
"33 36 OFFCURVE",
"31 27 OFFCURVE",
"31 18 CURVE SMOOTH",
"31 8 OFFCURVE",
"35 0 OFFCURVE",
"40 0 CURVE SMOOTH"
);
},
{
closed = 1;
nodes = (
"205 247 OFFCURVE",
"208 489 OFFCURVE",
"216 655 CURVE",
"460 649 OFFCURVE",
"590 539 OFFCURVE",
"590 326 CURVE SMOOTH",
"590 159 OFFCURVE",
"478 50 OFFCURVE",
"312 50 CURVE SMOOTH",
"227 50 OFFCURVE",
"205 60 OFFCURVE",
"205 90 CURVE SMOOTH"
);
},
{
closed = 1;
nodes = (
"350 837 LINE",
"234 921 LINE",
"235 921 LINE",
"224 932 OFFCURVE",
"203 912 OFFCURVE",
"207 904 CURVE",
"313 761 LINE",
"313 762 LINE",
"321 746 OFFCURVE",
"335 741 OFFCURVE",
"349 741 CURVE SMOOTH",
"362 741 OFFCURVE",
"375 746 OFFCURVE",
"384 762 CURVE",
"384 761 LINE",
"490 904 LINE",
"495 912 OFFCURVE",
"474 931 OFFCURVE",
"464 921 CURVE",
"465 921 LINE"
);
}
);
width = 751;
}
);
note = Dcaron;
unicode = 010E;
},
{
glyphname = Eacute;
layers = (
{
layerId = "7A03799E-F594-4F0C-AED7-187FAD140615";
name = Regular;
paths = (
{
closed = 1;
nodes = (
"39 700 LINE SMOOTH",
"33 700 OFFCURVE",
"31 692 OFFCURVE",
"31 682 CURVE SMOOTH",
"31 672 OFFCURVE",
"33 664 OFFCURVE",
"39 664 CURVE SMOOTH",
"101 664 LINE",
"101 36 LINE",
"39 36 LINE SMOOTH",
"33 36 OFFCURVE",
"31 27 OFFCURVE",
"31 18 CURVE SMOOTH",
"31 8 OFFCURVE",
"35 0 OFFCURVE",
"40 0 CURVE SMOOTH",
"514 0 LINE",
"514 55 OFFCURVE",
"516 97 OFFCURVE",
"523 148 CURVE",
"523 155 OFFCURVE",
"514 158 OFFCURVE",
"507 158 CURVE SMOOTH",
"498 158 OFFCURVE",
"490 156 OFFCURVE",
"490 149 CURVE",
"488 134 OFFCURVE",
"484 119 OFFCURVE",
"482 105 CURVE",
"443 79 OFFCURVE",
"356 53 OFFCURVE",
"265 53 CURVE SMOOTH",
"229 53 OFFCURVE",
"205 54 OFFCURVE",
"205 68 CURVE SMOOTH",
"205 205 OFFCURVE",
"207 270 OFFCURVE",
"207 335 CURVE",
"288 333 OFFCURVE",
"379 322 OFFCURVE",
"399 318 CURVE",
"411 259 LINE",
"411 253 OFFCURVE",
"416 251 OFFCURVE",
"423 251 CURVE SMOOTH",
"431 251 OFFCURVE",
"442 256 OFFCURVE",
"442 262 CURVE",
"440 295 OFFCURVE",
"438 326 OFFCURVE",
"438 358 CURVE SMOOTH",
"438 393 OFFCURVE",
"440 419 OFFCURVE",
"442 444 CURVE",
"443 451 OFFCURVE",
"431 455 OFFCURVE",
"423 455 CURVE SMOOTH",
"416 455 OFFCURVE",
"411 454 OFFCURVE",
"411 448 CURVE",
"400 388 LINE",
"390 385 OFFCURVE",
"294 375 OFFCURVE",
"208 373 CURVE",
"210 507 OFFCURVE",
"214 598 OFFCURVE",
"217 652 CURVE",
"321 652 OFFCURVE",
"394 647 OFFCURVE",
"437 630 CURVE",
"448 559 LINE",
"452 551 OFFCURVE",
"458 549 OFFCURVE",
"464 549 CURVE SMOOTH",
"473 549 OFFCURVE",
"480 553 OFFCURVE",
"480 560 CURVE",
"473 603 OFFCURVE",
"471 645 OFFCURVE",
"471 700 CURVE"
);
},
{
closed = 1;
nodes = (
"392 863 LINE",
"401 874 OFFCURVE",
"405 884 OFFCURVE",
"405 893 CURVE SMOOTH",
"405 913 OFFCURVE",
"382 925 OFFCURVE",
"361 925 CURVE SMOOTH",
"342 925 OFFCURVE",
"322 917 OFFCURVE",
"314 901 CURVE",
"315 902 LINE",
"221 749 LINE",
"222 741 OFFCURVE",
"234 733 OFFCURVE",
"244 733 CURVE SMOOTH",
"250 733 OFFCURVE",
"254 736 OFFCURVE",
"257 739 CURVE"
);
}
);
width = 567;
}
);
note = Eacute;
unicode = 00C9;
},
{
glyphname = Ebreve;
layers = (
{
layerId = "7A03799E-F594-4F0C-AED7-187FAD140615";
name = Regular;
paths = (
{
closed = 1;
nodes = (
"39 700 LINE SMOOTH",
"33 700 OFFCURVE",
"31 692 OFFCURVE",
"31 682 CURVE SMOOTH",
"31 672 OFFCURVE",
"33 664 OFFCURVE",
"39 664 CURVE SMOOTH",
"101 664 LINE",
"101 36 LINE",
"39 36 LINE SMOOTH",
"33 36 OFFCURVE",
"31 27 OFFCURVE",
"31 18 CURVE SMOOTH",
"31 8 OFFCURVE",
"35 0 OFFCURVE",
"40 0 CURVE SMOOTH",
"514 0 LINE",
"514 55 OFFCURVE",
"516 97 OFFCURVE",
"523 148 CURVE",
"523 155 OFFCURVE",
"514 158 OFFCURVE",
"507 158 CURVE SMOOTH",
"498 158 OFFCURVE",
"490 156 OFFCURVE",
"490 149 CURVE",
"488 134 OFFCURVE",
"484 119 OFFCURVE",
"482 105 CURVE",
"443 79 OFFCURVE",
"356 53 OFFCURVE",
"265 53 CURVE SMOOTH",
"229 53 OFFCURVE",
"205 54 OFFCURVE",
"205 68 CURVE SMOOTH",
"205 205 OFFCURVE",
"207 270 OFFCURVE",
"207 335 CURVE",
"288 333 OFFCURVE",
"379 322 OFFCURVE",
"399 318 CURVE",
"411 259 LINE",
"411 253 OFFCURVE",
"416 251 OFFCURVE",
"423 251 CURVE SMOOTH",
"431 251 OFFCURVE",
"442 256 OFFCURVE",
"442 262 CURVE",
"440 295 OFFCURVE",
"438 326 OFFCURVE",
"438 358 CURVE SMOOTH",
"438 393 OFFCURVE",
"440 419 OFFCURVE",
"442 444 CURVE",
"443 451 OFFCURVE",
"431 455 OFFCURVE",
"423 455 CURVE SMOOTH",
"416 455 OFFCURVE",
"411 454 OFFCURVE",
"411 448 CURVE",
"400 388 LINE",
"390 385 OFFCURVE",
"294 375 OFFCURVE",
"208 373 CURVE",
"210 507 OFFCURVE",
"214 598 OFFCURVE",
"217 652 CURVE",
"321 652 OFFCURVE",
"394 647 OFFCURVE",
"437 630 CURVE",
"448 559 LINE",
"452 551 OFFCURVE",
"458 549 OFFCURVE",
"464 549 CURVE SMOOTH",
"473 549 OFFCURVE",
"480 553 OFFCURVE",
"480 560 CURVE",
"473 603 OFFCURVE",
"471 645 OFFCURVE",
"471 700 CURVE"
);
},
{
closed = 1;
nodes = (
"406 885 OFFCURVE",
"402 890 OFFCURVE",
"387 890 CURVE SMOOTH",
"377 890 OFFCURVE",
"369 888 OFFCURVE",
"369 881 CURVE SMOOTH",
"369 840 OFFCURVE",
"333 817 OFFCURVE",
"284 817 CURVE SMOOTH",
"233 817 OFFCURVE",
"197 840 OFFCURVE",
"197 881 CURVE SMOOTH",
"197 888 OFFCURVE",
"190 890 OFFCURVE",
"180 890 CURVE SMOOTH",
"165 890 OFFCURVE",
"161 885 OFFCURVE",
"161 877 CURVE SMOOTH",
"161 800 OFFCURVE",
"207 750 OFFCURVE",
"284 750 CURVE SMOOTH",
"361 750 OFFCURVE",
"406 800 OFFCURVE",
"406 877 CURVE SMOOTH"
);
}
);
width = 567;
}
);
note = Ebreve;
unicode = 0114;
},
{
glyphname = Ecaron;
layers = (
{
layerId = "7A03799E-F594-4F0C-AED7-187FAD140615";
name = Regular;
paths = (
{
closed = 1;
nodes = (
"39 700 LINE SMOOTH",
"33 700 OFFCURVE",
"31 692 OFFCURVE",
"31 682 CURVE SMOOTH",
"31 672 OFFCURVE",
"33 664 OFFCURVE",
"39 664 CURVE SMOOTH",
"101 664 LINE",
"101 36 LINE",
"39 36 LINE SMOOTH",
"33 36 OFFCURVE",
"31 27 OFFCURVE",
"31 18 CURVE SMOOTH",
"31 8 OFFCURVE",
"35 0 OFFCURVE",
"40 0 CURVE SMOOTH",
"514 0 LINE",
"514 55 OFFCURVE",
"516 97 OFFCURVE",
"523 148 CURVE",
"523 155 OFFCURVE",
"514 158 OFFCURVE",
"507 158 CURVE SMOOTH",
"498 158 OFFCURVE",
"490 156 OFFCURVE",
"490 149 CURVE",
"488 134 OFFCURVE",
"484 119 OFFCURVE",
"482 105 CURVE",
"443 79 OFFCURVE",
"356 53 OFFCURVE",
"265 53 CURVE SMOOTH",
"229 53 OFFCURVE",
"205 54 OFFCURVE",
"205 68 CURVE SMOOTH",
"205 205 OFFCURVE",
"207 270 OFFCURVE",
"207 335 CURVE",
"288 333 OFFCURVE",
"379 322 OFFCURVE",
"399 318 CURVE",
"411 259 LINE",
"411 253 OFFCURVE",
"416 251 OFFCURVE",
"423 251 CURVE SMOOTH",
"431 251 OFFCURVE",
"442 256 OFFCURVE",
"442 262 CURVE",
"440 295 OFFCURVE",
"438 326 OFFCURVE",
"438 358 CURVE SMOOTH",
"438 393 OFFCURVE",
"440 419 OFFCURVE",
"442 444 CURVE",
"443 451 OFFCURVE",
"431 455 OFFCURVE",
"423 455 CURVE SMOOTH",
"416 455 OFFCURVE",
"411 454 OFFCURVE",
"411 448 CURVE",
"400 388 LINE",
"390 385 OFFCURVE",
"294 375 OFFCURVE",
"208 373 CURVE",
"210 507 OFFCURVE",
"214 598 OFFCURVE",
"217 652 CURVE",
"321 652 OFFCURVE",
"394 647 OFFCURVE",
"437 630 CURVE",
"448 559 LINE",
"452 551 OFFCURVE",
"458 549 OFFCURVE",
"464 549 CURVE SMOOTH",
"473 549 OFFCURVE",
"480 553 OFFCURVE",
"480 560 CURVE",
"473 603 OFFCURVE",
"471 645 OFFCURVE",
"471 700 CURVE"
);
},
{
closed = 1;
nodes = (
"287 837 LINE",
"171 921 LINE",
"172 921 LINE",
"161 932 OFFCURVE",
"140 912 OFFCURVE",
"144 904 CURVE",
"250 761 LINE",
"250 762 LINE",
"258 746 OFFCURVE",
"272 741 OFFCURVE",
"286 741 CURVE SMOOTH",
"299 741 OFFCURVE",
"312 746 OFFCURVE",
"321 762 CURVE",
"321 761 LINE",
"427 904 LINE",
"432 912 OFFCURVE",
"411 931 OFFCURVE",
"401 921 CURVE",
"402 921 LINE"
);
}
);
width = 567;
}
);
note = Ecaron;
unicode = 011A;
},
{
glyphname = Ecircumflex;
layers = (
{
layerId = "7A03799E-F594-4F0C-AED7-187FAD140615";
name = Regular;
paths = (
{
closed = 1;
nodes = (
"39 700 LINE SMOOTH",
"33 700 OFFCURVE",
"31 692 OFFCURVE",
"31 682 CURVE SMOOTH",
"31 672 OFFCURVE",
"33 664 OFFCURVE",
"39 664 CURVE SMOOTH",
"101 664 LINE",
"101 36 LINE",
"39 36 LINE SMOOTH",
"33 36 OFFCURVE",
"31 27 OFFCURVE",
"31 18 CURVE SMOOTH",
"31 8 OFFCURVE",
"35 0 OFFCURVE",
"40 0 CURVE SMOOTH",
"514 0 LINE",
"514 55 OFFCURVE",
"516 97 OFFCURVE",
"523 148 CURVE",
"523 155 OFFCURVE",
"514 158 OFFCURVE",
"507 158 CURVE SMOOTH",
"498 158 OFFCURVE",
"490 156 OFFCURVE",
"490 149 CURVE",
"488 134 OFFCURVE",
"484 119 OFFCURVE",
"482 105 CURVE",
"443 79 OFFCURVE",
"356 53 OFFCURVE",
"265 53 CURVE SMOOTH",
"229 53 OFFCURVE",
"205 54 OFFCURVE",
"205 68 CURVE SMOOTH",
"205 205 OFFCURVE",
"207 270 OFFCURVE",
"207 335 CURVE",
"288 333 OFFCURVE",
"379 322 OFFCURVE",
"399 318 CURVE",
"411 259 LINE",
"411 253 OFFCURVE",
"416 251 OFFCURVE",
"423 251 CURVE SMOOTH",
"431 251 OFFCURVE",
"442 256 OFFCURVE",
"442 262 CURVE",
"440 295 OFFCURVE",
"438 326 OFFCURVE",
"438 358 CURVE SMOOTH",
"438 393 OFFCURVE",
"440 419 OFFCURVE",
"442 444 CURVE",
"443 451 OFFCURVE",
"431 455 OFFCURVE",
"423 455 CURVE SMOOTH",
"416 455 OFFCURVE",
"411 454 OFFCURVE",
"411 448 CURVE",
"400 388 LINE",
"390 385 OFFCURVE",
"294 375 OFFCURVE",
"208 373 CURVE",
"210 507 OFFCURVE",
"214 598 OFFCURVE",
"217 652 CURVE",
"321 652 OFFCURVE",
"394 647 OFFCURVE",
"437 630 CURVE",
"448 559 LINE",
"452 551 OFFCURVE",
"458 549 OFFCURVE",
"464 549 CURVE SMOOTH",
"473 549 OFFCURVE",
"480 553 OFFCURVE",
"480 560 CURVE",
"473 603 OFFCURVE",
"471 645 OFFCURVE",
"471 700 CURVE"
);
},
{
closed = 1;
nodes = (
"295 825 LINE",
"412 740 LINE",
"411 740 LINE",
"422 729 OFFCURVE",
"443 749 OFFCURVE",
"439 758 CURVE",
"333 901 LINE",
"333 900 LINE",
"324 916 OFFCURVE",
"310 921 OFFCURVE",
"296 921 CURVE SMOOTH",
"284 921 OFFCURVE",
"270 916 OFFCURVE",
"261 900 CURVE",
"261 901 LINE",
"155 758 LINE",
"150 749 OFFCURVE",
"170 730 OFFCURVE",
"180 740 CURVE",
"179 740 LINE"
);
}
);
width = 567;
}
);
note = Ecircumflex;
unicode = 00CA;
},
{
glyphname = Edieresis;
layers = (
{
layerId = "7A03799E-F594-4F0C-AED7-187FAD140615";
name = Regular;
paths = (
{
closed = 1;
nodes = (
"39 700 LINE SMOOTH",
"33 700 OFFCURVE",
"31 692 OFFCURVE",
"31 682 CURVE SMOOTH",
"31 672 OFFCURVE",
"33 664 OFFCURVE",
"39 664 CURVE SMOOTH",
"101 664 LINE",
"101 36 LINE",
"39 36 LINE SMOOTH",
"33 36 OFFCURVE",
"31 27 OFFCURVE",
"31 18 CURVE SMOOTH",
"31 8 OFFCURVE",
"35 0 OFFCURVE",
"40 0 CURVE SMOOTH",
"514 0 LINE",
"514 55 OFFCURVE",
"516 97 OFFCURVE",
"523 148 CURVE",
"523 155 OFFCURVE",
"514 158 OFFCURVE",
"507 158 CURVE SMOOTH",
"498 158 OFFCURVE",
"490 156 OFFCURVE",
"490 149 CURVE",
"488 134 OFFCURVE",
"484 119 OFFCURVE",
"482 105 CURVE",
"443 79 OFFCURVE",
"356 53 OFFCURVE",
"265 53 CURVE SMOOTH",
"229 53 OFFCURVE",
"205 54 OFFCURVE",
"205 68 CURVE SMOOTH",
"205 205 OFFCURVE",
"207 270 OFFCURVE",
"207 335 CURVE",
"288 333 OFFCURVE",
"379 322 OFFCURVE",
"399 318 CURVE",
"411 259 LINE",
"411 253 OFFCURVE",
"416 251 OFFCURVE",
"423 251 CURVE SMOOTH",
"431 251 OFFCURVE",
"442 256 OFFCURVE",
"442 262 CURVE",
"440 295 OFFCURVE",
"438 326 OFFCURVE",
"438 358 CURVE SMOOTH",
"438 393 OFFCURVE",
"440 419 OFFCURVE",
"442 444 CURVE",
"443 451 OFFCURVE",
"431 455 OFFCURVE",
"423 455 CURVE SMOOTH",
"416 455 OFFCURVE",
"411 454 OFFCURVE",
"411 448 CURVE",
"400 388 LINE",
"390 385 OFFCURVE",
"294 375 OFFCURVE",
"208 373 CURVE",
"210 507 OFFCURVE",
"214 598 OFFCURVE",
"217 652 CURVE",
"321 652 OFFCURVE",
"394 647 OFFCURVE",
"437 630 CURVE",
"448 559 LINE",
"452 551 OFFCURVE",
"458 549 OFFCURVE",
"464 549 CURVE SMOOTH",
"473 549 OFFCURVE",
"480 553 OFFCURVE",
"480 560 CURVE",
"473 603 OFFCURVE",
"471 645 OFFCURVE",
"471 700 CURVE"
);
},
{
closed = 1;
nodes = (
"171 852 OFFCURVE",
"148 830 OFFCURVE",
"148 799 CURVE SMOOTH",
"148 767 OFFCURVE",
"171 746 OFFCURVE",
"199 746 CURVE SMOOTH",
"228 746 OFFCURVE",
"250 767 OFFCURVE",
"250 799 CURVE SMOOTH",
"250 830 OFFCURVE",
"228 852 OFFCURVE",
"199 852 CURVE SMOOTH"
);
},
{
closed = 1;
nodes = (
"356 852 OFFCURVE",
"334 830 OFFCURVE",
"334 799 CURVE SMOOTH",
"334 767 OFFCURVE",
"356 746 OFFCURVE",
"385 746 CURVE SMOOTH",
"413 746 OFFCURVE",
"435 767 OFFCURVE",
"435 799 CURVE SMOOTH",
"435 830 OFFCURVE",
"413 852 OFFCURVE",
"385 852 CURVE SMOOTH"
);
}
);
width = 567;
}
);
note = Edieresis;
unicode = 00CB;
},
{
glyphname = Edotaccent;
layers = (
{
layerId = "7A03799E-F594-4F0C-AED7-187FAD140615";
name = Regular;
paths = (
{
closed = 1;
nodes = (
"39 700 LINE SMOOTH",
"33 700 OFFCURVE",
"31 692 OFFCURVE",
"31 682 CURVE SMOOTH",
"31 672 OFFCURVE",
"33 664 OFFCURVE",
"39 664 CURVE SMOOTH",
"101 664 LINE",
"101 36 LINE",
"39 36 LINE SMOOTH",
"33 36 OFFCURVE",
"31 27 OFFCURVE",
"31 18 CURVE SMOOTH",
"31 8 OFFCURVE",
"35 0 OFFCURVE",
"40 0 CURVE SMOOTH",
"514 0 LINE",
"514 55 OFFCURVE",
"516 97 OFFCURVE",
"523 148 CURVE",
"523 155 OFFCURVE",
"514 158 OFFCURVE",
"507 158 CURVE SMOOTH",
"498 158 OFFCURVE",
"490 156 OFFCURVE",
"490 149 CURVE",
"488 134 OFFCURVE",
"484 119 OFFCURVE",
"482 105 CURVE",
"443 79 OFFCURVE",
"356 53 OFFCURVE",
"265 53 CURVE SMOOTH",
"229 53 OFFCURVE",
"205 54 OFFCURVE",
"205 68 CURVE SMOOTH",
"205 205 OFFCURVE",
"207 270 OFFCURVE",
"207 335 CURVE",
"288 333 OFFCURVE",
"379 322 OFFCURVE",
"399 318 CURVE",
"411 259 LINE",
"411 253 OFFCURVE",
"416 251 OFFCURVE",
"423 251 CURVE SMOOTH",
"431 251 OFFCURVE",
"442 256 OFFCURVE",
"442 262 CURVE",
"440 295 OFFCURVE",
"438 326 OFFCURVE",
"438 358 CURVE SMOOTH",
"438 393 OFFCURVE",
"440 419 OFFCURVE",
"442 444 CURVE",
"443 451 OFFCURVE",
"431 455 OFFCURVE",
"423 455 CURVE SMOOTH",
"416 455 OFFCURVE",
"411 454 OFFCURVE",
"411 448 CURVE",
"400 388 LINE",
"390 385 OFFCURVE",
"294 375 OFFCURVE",
"208 373 CURVE",
"210 507 OFFCURVE",
"214 598 OFFCURVE",
"217 652 CURVE",
"321 652 OFFCURVE",
"394 647 OFFCURVE",
"437 630 CURVE",
"448 559 LINE",
"452 551 OFFCURVE",
"458 549 OFFCURVE",
"464 549 CURVE SMOOTH",
"473 549 OFFCURVE",
"480 553 OFFCURVE",
"480 560 CURVE",
"473 603 OFFCURVE",
"471 645 OFFCURVE",
"471 700 CURVE"
);
},
{
closed = 1;
nodes = (
"274 871 OFFCURVE",
"250 846 OFFCURVE",
"250 817 CURVE SMOOTH",
"250 787 OFFCURVE",
"274 763 OFFCURVE",
"303 763 CURVE SMOOTH",
"333 763 OFFCURVE",
"357 787 OFFCURVE",
"357 817 CURVE SMOOTH",
"357 846 OFFCURVE",
"333 871 OFFCURVE",
"303 871 CURVE SMOOTH"
);
}
);
width = 567;
}
);
note = Edotaccent;
unicode = 0116;
},
{
glyphname = Egrave;
layers = (
{
layerId = "7A03799E-F594-4F0C-AED7-187FAD140615";
name = Regular;
paths = (
{
closed = 1;
nodes = (
"39 700 LINE SMOOTH",
"33 700 OFFCURVE",
"31 692 OFFCURVE",
"31 682 CURVE SMOOTH",
"31 672 OFFCURVE",
"33 664 OFFCURVE",
"39 664 CURVE SMOOTH",
"101 664 LINE",
"101 36 LINE",
"39 36 LINE SMOOTH",
"33 36 OFFCURVE",
"31 27 OFFCURVE",
"31 18 CURVE SMOOTH",
"31 8 OFFCURVE",
"35 0 OFFCURVE",
"40 0 CURVE SMOOTH",
"514 0 LINE",
"514 55 OFFCURVE",
"516 97 OFFCURVE",
"523 148 CURVE",
"523 155 OFFCURVE",
"514 158 OFFCURVE",
"507 158 CURVE SMOOTH",
"498 158 OFFCURVE",
"490 156 OFFCURVE",
"490 149 CURVE",
"488 134 OFFCURVE",
"484 119 OFFCURVE",
"482 105 CURVE",
"443 79 OFFCURVE",
"356 53 OFFCURVE",
"265 53 CURVE SMOOTH",
"229 53 OFFCURVE",
"205 54 OFFCURVE",
"205 68 CURVE SMOOTH",
"205 205 OFFCURVE",
"207 270 OFFCURVE",
"207 335 CURVE",
"288 333 OFFCURVE",
"379 322 OFFCURVE",
"399 318 CURVE",
"411 259 LINE",
"411 253 OFFCURVE",
"416 251 OFFCURVE",
"423 251 CURVE SMOOTH",
"431 251 OFFCURVE",
"442 256 OFFCURVE",
"442 262 CURVE",
"440 295 OFFCURVE",
"438 326 OFFCURVE",
"438 358 CURVE SMOOTH",
"438 393 OFFCURVE",
"440 419 OFFCURVE",
"442 444 CURVE",
"443 451 OFFCURVE",
"431 455 OFFCURVE",
"423 455 CURVE SMOOTH",
"416 455 OFFCURVE",
"411 454 OFFCURVE",
"411 448 CURVE",
"400 388 LINE",
"390 385 OFFCURVE",
"294 375 OFFCURVE",
"208 373 CURVE",
"210 507 OFFCURVE",
"214 598 OFFCURVE",
"217 652 CURVE",
"321 652 OFFCURVE",
"394 647 OFFCURVE",
"437 630 CURVE",
"448 559 LINE",
"452 551 OFFCURVE",
"458 549 OFFCURVE",
"464 549 CURVE SMOOTH",
"473 549 OFFCURVE",
"480 553 OFFCURVE",
"480 560 CURVE",
"473 603 OFFCURVE",
"471 645 OFFCURVE",
"471 700 CURVE"
);
},
{
closed = 1;
nodes = (
"329 739 LINE",
"332 736 OFFCURVE",
"336 733 OFFCURVE",
"342 733 CURVE SMOOTH",
"352 733 OFFCURVE",
"363 741 OFFCURVE",
"365 749 CURVE",
"271 902 LINE",
"272 901 LINE",
"264 917 OFFCURVE",
"244 925 OFFCURVE",
"226 925 CURVE SMOOTH",
"203 925 OFFCURVE",
"181 913 OFFCURVE",
"181 893 CURVE SMOOTH",
"181 884 OFFCURVE",
"185 874 OFFCURVE",
"194 863 CURVE"
);
}
);
width = 567;
}
);
note = Egrave;
unicode = 00C8;
},
{
glyphname = Emacron;
layers = (
{
layerId = "7A03799E-F594-4F0C-AED7-187FAD140615";
name = Regular;
paths = (
{
closed = 1;
nodes = (
"39 700 LINE SMOOTH",
"33 700 OFFCURVE",
"31 692 OFFCURVE",
"31 682 CURVE SMOOTH",
"31 672 OFFCURVE",
"33 664 OFFCURVE",
"39 664 CURVE SMOOTH",
"101 664 LINE",
"101 36 LINE",
"39 36 LINE SMOOTH",
"33 36 OFFCURVE",
"31 27 OFFCURVE",
"31 18 CURVE SMOOTH",
"31 8 OFFCURVE",
"35 0 OFFCURVE",
"40 0 CURVE SMOOTH",
"514 0 LINE",
"514 55 OFFCURVE",
"516 97 OFFCURVE",
"523 148 CURVE",
"523 155 OFFCURVE",
"514 158 OFFCURVE",
"507 158 CURVE SMOOTH",
"498 158 OFFCURVE",
"490 156 OFFCURVE",
"490 149 CURVE",
"488 134 OFFCURVE",
"484 119 OFFCURVE",
"482 105 CURVE",
"443 79 OFFCURVE",
"356 53 OFFCURVE",
"265 53 CURVE SMOOTH",
"229 53 OFFCURVE",
"205 54 OFFCURVE",
"205 68 CURVE SMOOTH",
"205 205 OFFCURVE",
"207 270 OFFCURVE",
"207 335 CURVE",
"288 333 OFFCURVE",
"379 322 OFFCURVE",
"399 318 CURVE",
"411 259 LINE",
"411 253 OFFCURVE",
"416 251 OFFCURVE",
"423 251 CURVE SMOOTH",
"431 251 OFFCURVE",
"442 256 OFFCURVE",
"442 262 CURVE",
"440 295 OFFCURVE",
"438 326 OFFCURVE",
"438 358 CURVE SMOOTH",
"438 393 OFFCURVE",
"440 419 OFFCURVE",
"442 444 CURVE",
"443 451 OFFCURVE",
"431 455 OFFCURVE",
"423 455 CURVE SMOOTH",
"416 455 OFFCURVE",
"411 454 OFFCURVE",
"411 448 CURVE",
"400 388 LINE",
"390 385 OFFCURVE",
"294 375 OFFCURVE",
"208 373 CURVE",
"210 507 OFFCURVE",
"214 598 OFFCURVE",
"217 652 CURVE",
"321 652 OFFCURVE",
"394 647 OFFCURVE",
"437 630 CURVE",
"448 559 LINE",
"452 551 OFFCURVE",
"458 549 OFFCURVE",
"464 549 CURVE SMOOTH",
"473 549 OFFCURVE",
"480 553 OFFCURVE",
"480 560 CURVE",
"473 603 OFFCURVE",
"471 645 OFFCURVE",
"471 700 CURVE"
);
},
{
closed = 1;
nodes = (
"160 823 LINE",
"160 767 LINE",
"428 767 LINE",
"428 823 LINE"
);
}
);
width = 567;
}
);
note = Emacron;
unicode = 0112;
},
{
glyphname = Eogonek;
layers = (
{
layerId = "7A03799E-F594-4F0C-AED7-187FAD140615";
name = Regular;
paths = (
{
closed = 1;
nodes = (
"39 700 LINE SMOOTH",
"33 700 OFFCURVE",
"31 692 OFFCURVE",
"31 682 CURVE SMOOTH",
"31 672 OFFCURVE",
"33 664 OFFCURVE",
"39 664 CURVE SMOOTH",
"101 664 LINE",
"101 36 LINE",
"39 36 LINE SMOOTH",
"33 36 OFFCURVE",
"31 27 OFFCURVE",
"31 18 CURVE SMOOTH",
"31 8 OFFCURVE",
"35 0 OFFCURVE",
"40 0 CURVE SMOOTH",
"381 0 LINE",
"318 -28 OFFCURVE",
"259 -79 OFFCURVE",
"259 -145 CURVE SMOOTH",
"259 -215 OFFCURVE",
"308 -240 OFFCURVE",
"369 -240 CURVE SMOOTH",
"414 -240 OFFCURVE",
"460 -219 OFFCURVE",
"491 -185 CURVE SMOOTH",
"504 -171 OFFCURVE",
"487 -156 OFFCURVE",
"477 -162 CURVE",
"457 -176 OFFCURVE",
"434 -183 OFFCURVE",
"412 -183 CURVE SMOOTH",
"377 -183 OFFCURVE",
"346 -169 OFFCURVE",
"346 -122 CURVE SMOOTH",
"346 -70 OFFCURVE",
"383 -30 OFFCURVE",
"433 0 CURVE",
"514 0 LINE",
"514 55 OFFCURVE",
"516 97 OFFCURVE",
"523 148 CURVE",
"523 155 OFFCURVE",
"514 158 OFFCURVE",
"507 158 CURVE SMOOTH",
"498 158 OFFCURVE",
"490 156 OFFCURVE",
"490 149 CURVE",
"488 134 OFFCURVE",
"484 119 OFFCURVE",
"482 105 CURVE",
"443 79 OFFCURVE",
"356 53 OFFCURVE",
"265 53 CURVE SMOOTH",
"229 53 OFFCURVE",
"205 54 OFFCURVE",
"205 68 CURVE SMOOTH",
"205 205 OFFCURVE",
"207 270 OFFCURVE",
"207 335 CURVE",
"288 333 OFFCURVE",
"379 322 OFFCURVE",
"399 318 CURVE",
"411 259 LINE",
"411 253 OFFCURVE",
"416 251 OFFCURVE",
"423 251 CURVE SMOOTH",
"431 251 OFFCURVE",
"442 256 OFFCURVE",
"442 262 CURVE",
"440 295 OFFCURVE",
"438 326 OFFCURVE",
"438 358 CURVE SMOOTH",
"438 393 OFFCURVE",
"440 419 OFFCURVE",
"442 444 CURVE",
"443 451 OFFCURVE",
"431 455 OFFCURVE",
"423 455 CURVE SMOOTH",
"416 455 OFFCURVE",
"411 454 OFFCURVE",
"411 448 CURVE",
"400 388 LINE",
"390 385 OFFCURVE",
"294 375 OFFCURVE",
"208 373 CURVE",
"210 507 OFFCURVE",
"214 598 OFFCURVE",
"217 652 CURVE",
"321 652 OFFCURVE",
"394 647 OFFCURVE",
"437 630 CURVE",
"448 559 LINE",
"452 551 OFFCURVE",
"458 549 OFFCURVE",
"464 549 CURVE SMOOTH",
"473 549 OFFCURVE",
"480 553 OFFCURVE",
"480 560 CURVE",
"473 603 OFFCURVE",
"471 645 OFFCURVE",
"471 700 CURVE"
);
}
);
width = 567;
}
);
note = Eogonek;
unicode = 0118;
},
{
glyphname = Gbreve;
layers = (
{
layerId = "7A03799E-F594-4F0C-AED7-187FAD140615";
name = Regular;
paths = (
{
closed = 1;
nodes = (
"423 302 LINE SMOOTH",
"416 302 OFFCURVE",
"414 292 OFFCURVE",
"414 283 CURVE SMOOTH",
"414 273 OFFCURVE",
"416 265 OFFCURVE",
"423 265 CURVE SMOOTH",
"560 265 LINE",
"560 70 LINE",
"518 50 OFFCURVE",
"482 41 OFFCURVE",
"440 41 CURVE SMOOTH",
"286 41 OFFCURVE",
"155 155 OFFCURVE",
"155 353 CURVE SMOOTH",
"155 548 OFFCURVE",
"283 652 OFFCURVE",
"429 652 CURVE SMOOTH",
"496 652 OFFCURVE",
"553 628 OFFCURVE",
"611 578 CURVE",
"618 528 LINE",
"620 520 OFFCURVE",
"628 517 OFFCURVE",
"635 517 CURVE SMOOTH",
"643 517 OFFCURVE",
"653 522 OFFCURVE",
"653 530 CURVE",
"646 580 OFFCURVE",
"644 623 OFFCURVE",
"644 677 CURVE",
"564 703 OFFCURVE",
"513 714 OFFCURVE",
"451 714 CURVE SMOOTH",
"232 714 OFFCURVE",
"35 582 OFFCURVE",
"35 329 CURVE SMOOTH",
"35 108 OFFCURVE",
"202 -17 OFFCURVE",
"434 -17 CURVE SMOOTH",
"502 -17 OFFCURVE",
"583 -4 OFFCURVE",
"659 22 CURVE",
"661 107 OFFCURVE",
"666 234 OFFCURVE",
"676 265 CURVE",
"732 265 LINE SMOOTH",
"738 265 OFFCURVE",
"740 273 OFFCURVE",
"740 283 CURVE SMOOTH",
"740 292 OFFCURVE",
"738 302 OFFCURVE",
"732 302 CURVE SMOOTH"
);
},
{
closed = 1;
nodes = (
"563 885 OFFCURVE",
"559 890 OFFCURVE",
"544 890 CURVE SMOOTH",
"534 890 OFFCURVE",
"526 888 OFFCURVE",
"526 881 CURVE SMOOTH",
"526 840 OFFCURVE",
"490 817 OFFCURVE",
"441 817 CURVE SMOOTH",
"390 817 OFFCURVE",
"354 840 OFFCURVE",
"354 881 CURVE SMOOTH",
"354 888 OFFCURVE",
"347 890 OFFCURVE",
"337 890 CURVE SMOOTH",
"322 890 OFFCURVE",
"318 885 OFFCURVE",
"318 877 CURVE SMOOTH",
"318 800 OFFCURVE",
"364 750 OFFCURVE",
"441 750 CURVE SMOOTH",
"518 750 OFFCURVE",
"563 800 OFFCURVE",
"563 877 CURVE SMOOTH"
);
}
);
width = 774;
}
);
note = Gbreve;
unicode = 011E;
},
{
glyphname = Gcircumflex;
layers = (
{
layerId = "7A03799E-F594-4F0C-AED7-187FAD140615";
name = Regular;
paths = (
{
closed = 1;
nodes = (
"423 302 LINE SMOOTH",
"416 302 OFFCURVE",
"414 292 OFFCURVE",
"414 283 CURVE SMOOTH",
"414 273 OFFCURVE",
"416 265 OFFCURVE",
"423 265 CURVE SMOOTH",
"560 265 LINE",
"560 70 LINE",
"518 50 OFFCURVE",
"482 41 OFFCURVE",
"440 41 CURVE SMOOTH",
"286 41 OFFCURVE",
"155 155 OFFCURVE",
"155 353 CURVE SMOOTH",
"155 548 OFFCURVE",
"283 652 OFFCURVE",
"429 652 CURVE SMOOTH",
"496 652 OFFCURVE",
"553 628 OFFCURVE",
"611 578 CURVE",
"618 528 LINE",
"620 520 OFFCURVE",
"628 517 OFFCURVE",
"635 517 CURVE SMOOTH",
"643 517 OFFCURVE",
"653 522 OFFCURVE",
"653 530 CURVE",
"646 580 OFFCURVE",
"644 623 OFFCURVE",
"644 677 CURVE",
"564 703 OFFCURVE",
"513 714 OFFCURVE",
"451 714 CURVE SMOOTH",
"232 714 OFFCURVE",
"35 582 OFFCURVE",
"35 329 CURVE SMOOTH",
"35 108 OFFCURVE",
"202 -17 OFFCURVE",
"434 -17 CURVE SMOOTH",
"502 -17 OFFCURVE",
"583 -4 OFFCURVE",
"659 22 CURVE",
"661 107 OFFCURVE",
"666 234 OFFCURVE",
"676 265 CURVE",
"732 265 LINE SMOOTH",
"738 265 OFFCURVE",
"740 273 OFFCURVE",
"740 283 CURVE SMOOTH",
"740 292 OFFCURVE",
"738 302 OFFCURVE",
"732 302 CURVE SMOOTH"
);
},
{
closed = 1;
nodes = (
"437 825 LINE",
"554 740 LINE",
"553 740 LINE",
"564 729 OFFCURVE",
"585 749 OFFCURVE",
"581 758 CURVE",
"475 901 LINE",
"475 900 LINE",
"466 916 OFFCURVE",
"452 921 OFFCURVE",
"438 921 CURVE SMOOTH",
"426 921 OFFCURVE",
"412 916 OFFCURVE",
"403 900 CURVE",
"403 901 LINE",
"297 758 LINE",
"292 749 OFFCURVE",
"312 730 OFFCURVE",
"322 740 CURVE",
"321 740 LINE"
);
}
);
width = 774;
}
);
note = Gcircumflex;
unicode = 011C;
},
{
glyphname = Gcommaaccent;
layers = (
{
layerId = "7A03799E-F594-4F0C-AED7-187FAD140615";
name = Regular;
paths = (
{
closed = 1;
nodes = (
"423 302 LINE SMOOTH",
"416 302 OFFCURVE",
"414 292 OFFCURVE",
"414 283 CURVE SMOOTH",
"414 273 OFFCURVE",
"416 265 OFFCURVE",
"423 265 CURVE SMOOTH",
"560 265 LINE",
"560 70 LINE",
"518 50 OFFCURVE",
"482 41 OFFCURVE",
"440 41 CURVE SMOOTH",
"286 41 OFFCURVE",
"155 155 OFFCURVE",
"155 353 CURVE SMOOTH",
"155 548 OFFCURVE",
"283 652 OFFCURVE",
"429 652 CURVE SMOOTH",
"496 652 OFFCURVE",
"553 628 OFFCURVE",
"611 578 CURVE",
"618 528 LINE",
"620 520 OFFCURVE",
"628 517 OFFCURVE",
"635 517 CURVE SMOOTH",
"643 517 OFFCURVE",
"653 522 OFFCURVE",
"653 530 CURVE",
"646 580 OFFCURVE",
"644 623 OFFCURVE",
"644 677 CURVE",
"564 703 OFFCURVE",
"513 714 OFFCURVE",
"451 714 CURVE SMOOTH",
"232 714 OFFCURVE",
"35 582 OFFCURVE",
"35 329 CURVE SMOOTH",
"35 108 OFFCURVE",
"202 -17 OFFCURVE",
"434 -17 CURVE SMOOTH",
"502 -17 OFFCURVE",
"583 -4 OFFCURVE",
"659 22 CURVE",
"661 107 OFFCURVE",
"666 234 OFFCURVE",
"676 265 CURVE",
"732 265 LINE SMOOTH",
"738 265 OFFCURVE",
"740 273 OFFCURVE",
"740 283 CURVE SMOOTH",
"740 292 OFFCURVE",
"738 302 OFFCURVE",
"732 302 CURVE SMOOTH"
);
},
{
closed = 1;
nodes = (
"406 -264 OFFCURVE",
"501 -242 OFFCURVE",
"501 -136 CURVE SMOOTH",
"501 -75 OFFCURVE",
"470 -57 OFFCURVE",
"430 -57 CURVE SMOOTH",
"399 -57 OFFCURVE",
"376 -76 OFFCURVE",
"376 -105 CURVE SMOOTH",
"376 -135 OFFCURVE",
"395 -153 OFFCURVE",
"425 -153 CURVE SMOOTH",
"438 -153 OFFCURVE",
"445 -159 OFFCURVE",
"445 -173 CURVE SMOOTH",
"445 -198 OFFCURVE",
"427 -222 OFFCURVE",
"381 -231 CURVE",
"377 -232 OFFCURVE",
"375 -235 OFFCURVE",
"375 -240 CURVE SMOOTH",
"375 -246 OFFCURVE",
"386 -264 OFFCURVE",
"395 -264 CURVE SMOOTH"
);
}
);
width = 774;
}
);
note = Gcommaaccent;
unicode = 0122;
},
{
glyphname = Gdotaccent;
layers = (
{
layerId = "7A03799E-F594-4F0C-AED7-187FAD140615";
name = Regular;
paths = (
{
closed = 1;
nodes = (
"423 302 LINE SMOOTH",
"416 302 OFFCURVE",
"414 292 OFFCURVE",
"414 283 CURVE SMOOTH",
"414 273 OFFCURVE",
"416 265 OFFCURVE",
"423 265 CURVE SMOOTH",
"560 265 LINE",
"560 70 LINE",
"518 50 OFFCURVE",
"482 41 OFFCURVE",
"440 41 CURVE SMOOTH",
"286 41 OFFCURVE",
"155 155 OFFCURVE",
"155 353 CURVE SMOOTH",
"155 548 OFFCURVE",
"283 652 OFFCURVE",
"429 652 CURVE SMOOTH",
"496 652 OFFCURVE",
"553 628 OFFCURVE",
"611 578 CURVE",
"618 528 LINE",
"620 520 OFFCURVE",
"628 517 OFFCURVE",
"635 517 CURVE SMOOTH",
"643 517 OFFCURVE",
"653 522 OFFCURVE",
"653 530 CURVE",
"646 580 OFFCURVE",
"644 623 OFFCURVE",
"644 677 CURVE",
"564 703 OFFCURVE",
"513 714 OFFCURVE",
"451 714 CURVE SMOOTH",
"232 714 OFFCURVE",
"35 582 OFFCURVE",
"35 329 CURVE SMOOTH",
"35 108 OFFCURVE",
"202 -17 OFFCURVE",
"434 -17 CURVE SMOOTH",
"502 -17 OFFCURVE",
"583 -4 OFFCURVE",
"659 22 CURVE",
"661 107 OFFCURVE",
"666 234 OFFCURVE",
"676 265 CURVE",
"732 265 LINE SMOOTH",
"738 265 OFFCURVE",
"740 273 OFFCURVE",
"740 283 CURVE SMOOTH",
"740 292 OFFCURVE",
"738 302 OFFCURVE",
"732 302 CURVE SMOOTH"
);
},
{
closed = 1;
nodes = (
"409 871 OFFCURVE",
"385 846 OFFCURVE",
"385 817 CURVE SMOOTH",
"385 787 OFFCURVE",
"409 763 OFFCURVE",
"438 763 CURVE SMOOTH",
"468 763 OFFCURVE",
"492 787 OFFCURVE",
"492 817 CURVE SMOOTH",
"492 846 OFFCURVE",
"468 871 OFFCURVE",
"438 871 CURVE SMOOTH"
);
}
);
width = 774;
}
);
note = Gdotaccent;
unicode = 0120;
},
{
glyphname = Hcircumflex;
layers = (
{
layerId = "7A03799E-F594-4F0C-AED7-187FAD140615";
name = Regular;
paths = (
{
closed = 1;
nodes = (
"683 664 LINE SMOOTH",
"690 664 OFFCURVE",
"692 672 OFFCURVE",
"692 682 CURVE SMOOTH",
"692 692 OFFCURVE",
"690 700 OFFCURVE",
"683 700 CURVE SMOOTH",
"456 700 LINE SMOOTH",
"450 700 OFFCURVE",
"448 692 OFFCURVE",
"448 682 CURVE SMOOTH",
"448 672 OFFCURVE",
"450 664 OFFCURVE",
"456 664 CURVE SMOOTH",
"518 664 LINE",
"518 388 LINE",
"486 389 OFFCURVE",
"441 390 OFFCURVE",
"387 390 CURVE SMOOTH",
"315 390 OFFCURVE",
"243 389 OFFCURVE",
"205 387 CURVE",
"205 664 LINE",
"266 664 LINE SMOOTH",
"273 664 OFFCURVE",
"275 672 OFFCURVE",
"275 682 CURVE SMOOTH",
"275 692 OFFCURVE",
"273 700 OFFCURVE",
"266 700 CURVE SMOOTH",
"39 700 LINE SMOOTH",
"33 700 OFFCURVE",
"31 692 OFFCURVE",
"31 682 CURVE SMOOTH",
"31 672 OFFCURVE",
"33 664 OFFCURVE",
"39 664 CURVE SMOOTH",
"89 664 LINE",
"97 535 OFFCURVE",
"101 244 OFFCURVE",
"101 36 CURVE",
"39 36 LINE SMOOTH",
"33 36 OFFCURVE",
"31 27 OFFCURVE",
"31 18 CURVE SMOOTH",
"31 8 OFFCURVE",
"33 0 OFFCURVE",
"39 0 CURVE SMOOTH",
"266 0 LINE SMOOTH",
"273 0 OFFCURVE",
"275 8 OFFCURVE",
"275 18 CURVE SMOOTH",
"275 27 OFFCURVE",
"273 36 OFFCURVE",
"266 36 CURVE SMOOTH",
"205 36 LINE",
"205 337 LINE",
"237 339 OFFCURVE",
"315 340 OFFCURVE",
"393 340 CURVE SMOOTH",
"442 340 OFFCURVE",
"488 341 OFFCURVE",
"518 339 CURVE",
"518 36 LINE",
"456 36 LINE SMOOTH",
"450 36 OFFCURVE",
"448 27 OFFCURVE",
"448 18 CURVE SMOOTH",
"448 8 OFFCURVE",
"450 0 OFFCURVE",
"456 0 CURVE SMOOTH",
"683 0 LINE SMOOTH",
"690 0 OFFCURVE",
"692 8 OFFCURVE",
"692 18 CURVE SMOOTH",
"692 27 OFFCURVE",
"690 36 OFFCURVE",
"683 36 CURVE SMOOTH",
"622 36 LINE",
"622 240 OFFCURVE",
"625 530 OFFCURVE",
"633 664 CURVE"
);
},
{
closed = 1;
nodes = (
"361 825 LINE",
"478 740 LINE",
"477 740 LINE",
"488 729 OFFCURVE",
"509 749 OFFCURVE",
"505 758 CURVE",
"399 901 LINE",
"399 900 LINE",
"390 916 OFFCURVE",
"376 921 OFFCURVE",
"362 921 CURVE SMOOTH",
"350 921 OFFCURVE",
"336 916 OFFCURVE",
"327 900 CURVE",
"327 901 LINE",
"221 758 LINE",
"216 749 OFFCURVE",
"236 730 OFFCURVE",
"246 740 CURVE",
"245 740 LINE"
);
}
);
width = 733;
}
);
note = Hcircumflex;
unicode = 0124;
},
{
glyphname = Hbar;
layers = (
{
layerId = "7A03799E-F594-4F0C-AED7-187FAD140615";
name = Regular;
paths = (
{
closed = 1;
nodes = (
"683 664 LINE SMOOTH",
"690 664 OFFCURVE",
"692 672 OFFCURVE",
"692 682 CURVE SMOOTH",
"692 692 OFFCURVE",
"690 700 OFFCURVE",
"683 700 CURVE SMOOTH",
"456 700 LINE SMOOTH",
"450 700 OFFCURVE",
"448 692 OFFCURVE",
"448 682 CURVE SMOOTH",
"448 672 OFFCURVE",
"450 664 OFFCURVE",
"456 664 CURVE SMOOTH",
"518 664 LINE",
"518 388 LINE",
"486 389 OFFCURVE",
"441 390 OFFCURVE",
"387 390 CURVE SMOOTH",
"315 390 OFFCURVE",
"243 389 OFFCURVE",
"205 387 CURVE",
"205 664 LINE",
"266 664 LINE SMOOTH",
"273 664 OFFCURVE",
"275 672 OFFCURVE",
"275 682 CURVE SMOOTH",
"275 692 OFFCURVE",
"273 700 OFFCURVE",
"266 700 CURVE SMOOTH",
"39 700 LINE SMOOTH",
"33 700 OFFCURVE",
"31 692 OFFCURVE",
"31 682 CURVE SMOOTH",
"31 672 OFFCURVE",
"33 664 OFFCURVE",
"39 664 CURVE SMOOTH",
"89 664 LINE",
"97 535 OFFCURVE",
"101 244 OFFCURVE",
"101 36 CURVE",
"39 36 LINE SMOOTH",
"33 36 OFFCURVE",
"31 27 OFFCURVE",
"31 18 CURVE SMOOTH",
"31 8 OFFCURVE",
"33 0 OFFCURVE",
"39 0 CURVE SMOOTH",
"266 0 LINE SMOOTH",
"273 0 OFFCURVE",
"275 8 OFFCURVE",
"275 18 CURVE SMOOTH",
"275 27 OFFCURVE",
"273 36 OFFCURVE",
"266 36 CURVE SMOOTH",
"205 36 LINE",
"205 337 LINE",
"237 339 OFFCURVE",
"315 340 OFFCURVE",
"393 340 CURVE SMOOTH",
"442 340 OFFCURVE",
"488 341 OFFCURVE",
"518 339 CURVE",
"518 36 LINE",
"456 36 LINE SMOOTH",
"450 36 OFFCURVE",
"448 27 OFFCURVE",
"448 18 CURVE SMOOTH",
"448 8 OFFCURVE",
"450 0 OFFCURVE",
"456 0 CURVE SMOOTH",
"683 0 LINE SMOOTH",
"690 0 OFFCURVE",
"692 8 OFFCURVE",
"692 18 CURVE SMOOTH",
"692 27 OFFCURVE",
"690 36 OFFCURVE",
"683 36 CURVE SMOOTH",
"622 36 LINE",
"622 240 OFFCURVE",
"625 530 OFFCURVE",
"633 664 CURVE"
);
},
{
closed = 1;
nodes = (
"227 823 LINE",
"227 767 LINE",
"495 767 LINE",
"495 823 LINE"
);
}
);
width = 733;
}
);
note = Hbar;
unicode = 0126;
},
{
glyphname = Iacute;
layers = (
{
layerId = "7A03799E-F594-4F0C-AED7-187FAD140615";
name = Regular;
paths = (
{
closed = 1;
nodes = (
"101 36 LINE",
"39 36 LINE SMOOTH",
"33 36 OFFCURVE",
"31 27 OFFCURVE",
"31 18 CURVE SMOOTH",
"31 8 OFFCURVE",
"33 0 OFFCURVE",
"39 0 CURVE SMOOTH",
"266 0 LINE SMOOTH",
"273 0 OFFCURVE",
"275 8 OFFCURVE",
"275 18 CURVE SMOOTH",
"275 27 OFFCURVE",
"273 36 OFFCURVE",
"266 36 CURVE SMOOTH",
"205 36 LINE",
"205 240 OFFCURVE",
"208 530 OFFCURVE",
"216 664 CURVE",
"266 664 LINE SMOOTH",
"273 664 OFFCURVE",
"275 672 OFFCURVE",
"275 682 CURVE SMOOTH",
"275 692 OFFCURVE",
"273 700 OFFCURVE",
"266 700 CURVE SMOOTH",
"39 700 LINE SMOOTH",
"33 700 OFFCURVE",
"31 692 OFFCURVE",
"31 682 CURVE SMOOTH",
"31 672 OFFCURVE",
"33 664 OFFCURVE",
"39 664 CURVE SMOOTH",
"101 664 LINE"
);
},
{
closed = 1;
nodes = (
"252 863 LINE",
"261 874 OFFCURVE",
"265 884 OFFCURVE",
"265 893 CURVE SMOOTH",
"265 913 OFFCURVE",
"242 925 OFFCURVE",
"221 925 CURVE SMOOTH",
"202 925 OFFCURVE",
"182 917 OFFCURVE",
"174 901 CURVE",
"175 902 LINE",
"81 749 LINE",
"82 741 OFFCURVE",
"94 733 OFFCURVE",
"104 733 CURVE SMOOTH",
"110 733 OFFCURVE",
"114 736 OFFCURVE",
"117 739 CURVE"
);
}
);
width = 310;
}
);
note = Iacute;
unicode = 00CD;
},
{
glyphname = Ibreve;
layers = (
{
layerId = "7A03799E-F594-4F0C-AED7-187FAD140615";
name = Regular;
paths = (
{
closed = 1;
nodes = (
"101 36 LINE",
"39 36 LINE SMOOTH",
"33 36 OFFCURVE",
"31 27 OFFCURVE",
"31 18 CURVE SMOOTH",
"31 8 OFFCURVE",
"33 0 OFFCURVE",
"39 0 CURVE SMOOTH",
"266 0 LINE SMOOTH",
"273 0 OFFCURVE",
"275 8 OFFCURVE",
"275 18 CURVE SMOOTH",
"275 27 OFFCURVE",
"273 36 OFFCURVE",
"266 36 CURVE SMOOTH",
"205 36 LINE",
"205 240 OFFCURVE",
"208 530 OFFCURVE",
"216 664 CURVE",
"266 664 LINE SMOOTH",
"273 664 OFFCURVE",
"275 672 OFFCURVE",
"275 682 CURVE SMOOTH",
"275 692 OFFCURVE",
"273 700 OFFCURVE",
"266 700 CURVE SMOOTH",
"39 700 LINE SMOOTH",
"33 700 OFFCURVE",
"31 692 OFFCURVE",
"31 682 CURVE SMOOTH",
"31 672 OFFCURVE",
"33 664 OFFCURVE",
"39 664 CURVE SMOOTH",
"101 664 LINE"
);
},
{
closed = 1;
nodes = (
"274 885 OFFCURVE",
"270 890 OFFCURVE",
"255 890 CURVE SMOOTH",
"245 890 OFFCURVE",
"237 888 OFFCURVE",
"237 881 CURVE SMOOTH",
"237 840 OFFCURVE",
"201 817 OFFCURVE",
"152 817 CURVE SMOOTH",
"101 817 OFFCURVE",
"65 840 OFFCURVE",
"65 881 CURVE SMOOTH",
"65 888 OFFCURVE",
"58 890 OFFCURVE",
"48 890 CURVE SMOOTH",
"33 890 OFFCURVE",
"29 885 OFFCURVE",
"29 877 CURVE SMOOTH",
"29 800 OFFCURVE",
"75 750 OFFCURVE",
"152 750 CURVE SMOOTH",
"229 750 OFFCURVE",
"274 800 OFFCURVE",
"274 877 CURVE SMOOTH"
);
}
);
width = 310;
}
);
note = Ibreve;
unicode = 012C;
},
{
glyphname = Icircumflex;
layers = (
{
layerId = "7A03799E-F594-4F0C-AED7-187FAD140615";
name = Regular;
paths = (
{
closed = 1;
nodes = (
"101 36 LINE",
"39 36 LINE SMOOTH",
"33 36 OFFCURVE",
"31 27 OFFCURVE",
"31 18 CURVE SMOOTH",
"31 8 OFFCURVE",
"33 0 OFFCURVE",
"39 0 CURVE SMOOTH",
"266 0 LINE SMOOTH",
"273 0 OFFCURVE",
"275 8 OFFCURVE",
"275 18 CURVE SMOOTH",
"275 27 OFFCURVE",
"273 36 OFFCURVE",
"266 36 CURVE SMOOTH",
"205 36 LINE",
"205 240 OFFCURVE",
"208 530 OFFCURVE",
"216 664 CURVE",
"266 664 LINE SMOOTH",
"273 664 OFFCURVE",
"275 672 OFFCURVE",
"275 682 CURVE SMOOTH",
"275 692 OFFCURVE",
"273 700 OFFCURVE",
"266 700 CURVE SMOOTH",
"39 700 LINE SMOOTH",
"33 700 OFFCURVE",
"31 692 OFFCURVE",
"31 682 CURVE SMOOTH",
"31 672 OFFCURVE",
"33 664 OFFCURVE",
"39 664 CURVE SMOOTH",
"101 664 LINE"
);
},
{
closed = 1;
nodes = (
"150 825 LINE",
"267 740 LINE",
"266 740 LINE",
"277 729 OFFCURVE",
"298 749 OFFCURVE",
"294 758 CURVE",
"188 901 LINE",
"188 900 LINE",
"179 916 OFFCURVE",
"165 921 OFFCURVE",
"151 921 CURVE SMOOTH",
"139 921 OFFCURVE",
"125 916 OFFCURVE",
"116 900 CURVE",
"116 901 LINE",
"10 758 LINE",
"5 749 OFFCURVE",
"25 730 OFFCURVE",
"35 740 CURVE",
"34 740 LINE"
);
}
);
width = 310;
}
);
note = Icircumflex;
unicode = 00CE;
},
{
glyphname = Idieresis;
layers = (
{
layerId = "7A03799E-F594-4F0C-AED7-187FAD140615";
name = Regular;
paths = (
{
closed = 1;
nodes = (
"101 36 LINE",
"39 36 LINE SMOOTH",
"33 36 OFFCURVE",
"31 27 OFFCURVE",
"31 18 CURVE SMOOTH",
"31 8 OFFCURVE",
"33 0 OFFCURVE",
"39 0 CURVE SMOOTH",
"266 0 LINE SMOOTH",
"273 0 OFFCURVE",
"275 8 OFFCURVE",
"275 18 CURVE SMOOTH",
"275 27 OFFCURVE",
"273 36 OFFCURVE",
"266 36 CURVE SMOOTH",
"205 36 LINE",
"205 240 OFFCURVE",
"208 530 OFFCURVE",
"216 664 CURVE",
"266 664 LINE SMOOTH",
"273 664 OFFCURVE",
"275 672 OFFCURVE",
"275 682 CURVE SMOOTH",
"275 692 OFFCURVE",
"273 700 OFFCURVE",
"266 700 CURVE SMOOTH",
"39 700 LINE SMOOTH",
"33 700 OFFCURVE",
"31 692 OFFCURVE",
"31 682 CURVE SMOOTH",
"31 672 OFFCURVE",
"33 664 OFFCURVE",
"39 664 CURVE SMOOTH",
"101 664 LINE"
);
},
{
closed = 1;
nodes = (
"30 852 OFFCURVE",
"7 830 OFFCURVE",
"7 799 CURVE SMOOTH",
"7 767 OFFCURVE",
"30 746 OFFCURVE",
"58 746 CURVE SMOOTH",
"87 746 OFFCURVE",
"109 767 OFFCURVE",
"109 799 CURVE SMOOTH",
"109 830 OFFCURVE",
"87 852 OFFCURVE",
"58 852 CURVE SMOOTH"
);
},
{
closed = 1;
nodes = (
"215 852 OFFCURVE",
"193 830 OFFCURVE",
"193 799 CURVE SMOOTH",
"193 767 OFFCURVE",
"215 746 OFFCURVE",
"244 746 CURVE SMOOTH",
"272 746 OFFCURVE",
"294 767 OFFCURVE",
"294 799 CURVE SMOOTH",
"294 830 OFFCURVE",
"272 852 OFFCURVE",
"244 852 CURVE SMOOTH"
);
}
);
width = 310;
}
);
note = Idieresis;
unicode = 00CF;
},
{
glyphname = Idotaccent;
layers = (
{
layerId = "7A03799E-F594-4F0C-AED7-187FAD140615";
name = Regular;
paths = (
{
closed = 1;
nodes = (
"101 36 LINE",
"39 36 LINE SMOOTH",
"33 36 OFFCURVE",
"31 27 OFFCURVE",
"31 18 CURVE SMOOTH",
"31 8 OFFCURVE",
"33 0 OFFCURVE",
"39 0 CURVE SMOOTH",
"266 0 LINE SMOOTH",
"273 0 OFFCURVE",
"275 8 OFFCURVE",
"275 18 CURVE SMOOTH",
"275 27 OFFCURVE",
"273 36 OFFCURVE",
"266 36 CURVE SMOOTH",
"205 36 LINE",
"205 240 OFFCURVE",
"208 530 OFFCURVE",
"216 664 CURVE",
"266 664 LINE SMOOTH",
"273 664 OFFCURVE",
"275 672 OFFCURVE",
"275 682 CURVE SMOOTH",
"275 692 OFFCURVE",
"273 700 OFFCURVE",
"266 700 CURVE SMOOTH",
"39 700 LINE SMOOTH",
"33 700 OFFCURVE",
"31 692 OFFCURVE",
"31 682 CURVE SMOOTH",
"31 672 OFFCURVE",
"33 664 OFFCURVE",
"39 664 CURVE SMOOTH",
"101 664 LINE"
);
},
{
closed = 1;
nodes = (
"126 871 OFFCURVE",
"102 846 OFFCURVE",
"102 817 CURVE SMOOTH",
"102 787 OFFCURVE",
"126 763 OFFCURVE",
"155 763 CURVE SMOOTH",
"185 763 OFFCURVE",
"209 787 OFFCURVE",
"209 817 CURVE SMOOTH",
"209 846 OFFCURVE",
"185 871 OFFCURVE",
"155 871 CURVE SMOOTH"
);
}
);
width = 310;
}
);
note = Idotaccent;
unicode = 0130;
},
{
glyphname = Igrave;
layers = (
{
layerId = "7A03799E-F594-4F0C-AED7-187FAD140615";
name = Regular;
paths = (
{
closed = 1;
nodes = (
"101 36 LINE",
"39 36 LINE SMOOTH",
"33 36 OFFCURVE",
"31 27 OFFCURVE",
"31 18 CURVE SMOOTH",
"31 8 OFFCURVE",
"33 0 OFFCURVE",
"39 0 CURVE SMOOTH",
"266 0 LINE SMOOTH",
"273 0 OFFCURVE",
"275 8 OFFCURVE",
"275 18 CURVE SMOOTH",
"275 27 OFFCURVE",
"273 36 OFFCURVE",
"266 36 CURVE SMOOTH",
"205 36 LINE",
"205 240 OFFCURVE",
"208 530 OFFCURVE",
"216 664 CURVE",
"266 664 LINE SMOOTH",
"273 664 OFFCURVE",
"275 672 OFFCURVE",
"275 682 CURVE SMOOTH",
"275 692 OFFCURVE",
"273 700 OFFCURVE",
"266 700 CURVE SMOOTH",
"39 700 LINE SMOOTH",
"33 700 OFFCURVE",
"31 692 OFFCURVE",
"31 682 CURVE SMOOTH",
"31 672 OFFCURVE",
"33 664 OFFCURVE",
"39 664 CURVE SMOOTH",
"101 664 LINE"
);
},
{
closed = 1;
nodes = (
"199 739 LINE",
"202 736 OFFCURVE",
"206 733 OFFCURVE",
"212 733 CURVE SMOOTH",
"222 733 OFFCURVE",
"233 741 OFFCURVE",
"235 749 CURVE",
"141 902 LINE",
"142 901 LINE",
"134 917 OFFCURVE",
"114 925 OFFCURVE",
"96 925 CURVE SMOOTH",
"73 925 OFFCURVE",
"51 913 OFFCURVE",
"51 893 CURVE SMOOTH",
"51 884 OFFCURVE",
"55 874 OFFCURVE",
"64 863 CURVE"
);
}
);
width = 310;
}
);
note = Igrave;
unicode = 00CC;
},
{
glyphname = Imacron;
layers = (
{
layerId = "7A03799E-F594-4F0C-AED7-187FAD140615";
name = Regular;
paths = (
{
closed = 1;
nodes = (
"101 36 LINE",
"39 36 LINE SMOOTH",
"33 36 OFFCURVE",
"31 27 OFFCURVE",
"31 18 CURVE SMOOTH",
"31 8 OFFCURVE",
"33 0 OFFCURVE",
"39 0 CURVE SMOOTH",
"266 0 LINE SMOOTH",
"273 0 OFFCURVE",
"275 8 OFFCURVE",
"275 18 CURVE SMOOTH",
"275 27 OFFCURVE",
"273 36 OFFCURVE",
"266 36 CURVE SMOOTH",
"205 36 LINE",
"205 240 OFFCURVE",
"208 530 OFFCURVE",
"216 664 CURVE",
"266 664 LINE SMOOTH",
"273 664 OFFCURVE",
"275 672 OFFCURVE",
"275 682 CURVE SMOOTH",
"275 692 OFFCURVE",
"273 700 OFFCURVE",
"266 700 CURVE SMOOTH",
"39 700 LINE SMOOTH",
"33 700 OFFCURVE",
"31 692 OFFCURVE",
"31 682 CURVE SMOOTH",
"31 672 OFFCURVE",
"33 664 OFFCURVE",
"39 664 CURVE SMOOTH",
"101 664 LINE"
);
},
{
closed = 1;
nodes = (
"16 823 LINE",
"16 767 LINE",
"284 767 LINE",
"284 823 LINE"
);
}
);
width = 310;
}
);
note = Imacron;
unicode = 012A;
},
{
glyphname = Iogonek;
layers = (
{
layerId = "7A03799E-F594-4F0C-AED7-187FAD140615";
name = Regular;
paths = (
{
closed = 1;
nodes = (
"101 36 LINE",
"39 36 LINE SMOOTH",
"33 36 OFFCURVE",
"31 27 OFFCURVE",
"31 18 CURVE SMOOTH",
"31 8 OFFCURVE",
"33 0 OFFCURVE",
"39 0 CURVE SMOOTH",
"160 0 LINE",
"97 -28 OFFCURVE",
"38 -79 OFFCURVE",
"38 -145 CURVE SMOOTH",
"38 -215 OFFCURVE",
"87 -240 OFFCURVE",
"148 -240 CURVE SMOOTH",
"193 -240 OFFCURVE",
"239 -219 OFFCURVE",
"270 -185 CURVE SMOOTH",
"283 -171 OFFCURVE",
"266 -156 OFFCURVE",
"256 -162 CURVE",
"236 -176 OFFCURVE",
"213 -183 OFFCURVE",
"191 -183 CURVE SMOOTH",
"156 -183 OFFCURVE",
"125 -169 OFFCURVE",
"125 -122 CURVE SMOOTH",
"125 -70 OFFCURVE",
"162 -30 OFFCURVE",
"212 0 CURVE",
"266 0 LINE SMOOTH",
"273 0 OFFCURVE",
"275 8 OFFCURVE",
"275 18 CURVE SMOOTH",
"275 27 OFFCURVE",
"273 36 OFFCURVE",
"266 36 CURVE SMOOTH",
"205 36 LINE",
"205 240 OFFCURVE",
"208 530 OFFCURVE",
"216 664 CURVE",
"266 664 LINE SMOOTH",
"273 664 OFFCURVE",
"275 672 OFFCURVE",
"275 682 CURVE SMOOTH",
"275 692 OFFCURVE",
"273 700 OFFCURVE",
"266 700 CURVE SMOOTH",
"39 700 LINE SMOOTH",
"33 700 OFFCURVE",
"31 692 OFFCURVE",
"31 682 CURVE SMOOTH",
"31 672 OFFCURVE",
"33 664 OFFCURVE",
"39 664 CURVE SMOOTH",
"101 664 LINE"
);
}
);
width = 310;
}
);
note = Iogonek;
unicode = 012E;
},
{
glyphname = Itilde;
layers = (
{
layerId = "7A03799E-F594-4F0C-AED7-187FAD140615";
name = Regular;
paths = (
{
closed = 1;
nodes = (
"101 36 LINE",
"39 36 LINE SMOOTH",
"33 36 OFFCURVE",
"31 27 OFFCURVE",
"31 18 CURVE SMOOTH",
"31 8 OFFCURVE",
"33 0 OFFCURVE",
"39 0 CURVE SMOOTH",
"266 0 LINE SMOOTH",
"273 0 OFFCURVE",
"275 8 OFFCURVE",
"275 18 CURVE SMOOTH",
"275 27 OFFCURVE",
"273 36 OFFCURVE",
"266 36 CURVE SMOOTH",
"205 36 LINE",
"205 240 OFFCURVE",
"208 530 OFFCURVE",
"216 664 CURVE",
"266 664 LINE SMOOTH",
"273 664 OFFCURVE",
"275 672 OFFCURVE",
"275 682 CURVE SMOOTH",
"275 692 OFFCURVE",
"273 700 OFFCURVE",
"266 700 CURVE SMOOTH",
"39 700 LINE SMOOTH",
"33 700 OFFCURVE",
"31 692 OFFCURVE",
"31 682 CURVE SMOOTH",
"31 672 OFFCURVE",
"33 664 OFFCURVE",
"39 664 CURVE SMOOTH",
"101 664 LINE"
);
},
{
closed = 1;
nodes = (
"40 815 OFFCURVE",
"63 827 OFFCURVE",
"86 827 CURVE SMOOTH",
"108 827 OFFCURVE",
"127 812 OFFCURVE",
"146 798 CURVE",
"164 782 OFFCURVE",
"184 767 OFFCURVE",
"212 767 CURVE SMOOTH",
"244 767 OFFCURVE",
"277 785 OFFCURVE",
"314 874 CURVE",
"318 890 OFFCURVE",
"293 900 OFFCURVE",
"289 897 CURVE",
"259 849 OFFCURVE",
"246 840 OFFCURVE",
"227 840 CURVE SMOOTH",
"205 840 OFFCURVE",
"184 856 OFFCURVE",
"166 870 CURVE SMOOTH",
"146 886 OFFCURVE",
"127 901 OFFCURVE",
"99 901 CURVE SMOOTH",
"66 901 OFFCURVE",
"26 885 OFFCURVE",
"-11 795 CURVE",
"-16 784 OFFCURVE",
"12 769 OFFCURVE",
"16 776 CURVE SMOOTH"
);
}
);
width = 310;
}
);
note = Itilde;
unicode = 0128;
},
{
glyphname = Idot;
layers = (
{
layerId = "7A03799E-F594-4F0C-AED7-187FAD140615";
name = Regular;
paths = (
{
closed = 1;
nodes = (
"101 36 LINE",
"39 36 LINE SMOOTH",
"33 36 OFFCURVE",
"31 27 OFFCURVE",
"31 18 CURVE SMOOTH",
"31 8 OFFCURVE",
"33 0 OFFCURVE",
"39 0 CURVE SMOOTH",
"266 0 LINE SMOOTH",
"273 0 OFFCURVE",
"275 8 OFFCURVE",
"275 18 CURVE SMOOTH",
"275 27 OFFCURVE",
"273 36 OFFCURVE",
"266 36 CURVE SMOOTH",
"205 36 LINE",
"205 240 OFFCURVE",
"208 530 OFFCURVE",
"216 664 CURVE",
"266 664 LINE SMOOTH",
"273 664 OFFCURVE",
"275 672 OFFCURVE",
"275 682 CURVE SMOOTH",
"275 692 OFFCURVE",
"273 700 OFFCURVE",
"266 700 CURVE SMOOTH",
"39 700 LINE SMOOTH",
"33 700 OFFCURVE",
"31 692 OFFCURVE",
"31 682 CURVE SMOOTH",
"31 672 OFFCURVE",
"33 664 OFFCURVE",
"39 664 CURVE SMOOTH",
"101 664 LINE"
);
},
{
closed = 1;
nodes = (
"124 871 OFFCURVE",
"100 846 OFFCURVE",
"100 817 CURVE SMOOTH",
"100 787 OFFCURVE",
"124 763 OFFCURVE",
"153 763 CURVE SMOOTH",
"183 763 OFFCURVE",
"207 787 OFFCURVE",
"207 817 CURVE SMOOTH",
"207 846 OFFCURVE",
"183 871 OFFCURVE",
"153 871 CURVE SMOOTH"
);
}
);
width = 310;
}
);
note = Idot;
},
{
glyphname = Jcircumflex;
layers = (
{
layerId = "7A03799E-F594-4F0C-AED7-187FAD140615";
name = Regular;
paths = (
{
closed = 1;
nodes = (
"205 261 OFFCURVE",
"208 531 OFFCURVE",
"216 664 CURVE",
"266 664 LINE SMOOTH",
"273 664 OFFCURVE",
"275 672 OFFCURVE",
"275 682 CURVE SMOOTH",
"275 692 OFFCURVE",
"273 700 OFFCURVE",
"266 700 CURVE SMOOTH",
"39 700 LINE SMOOTH",
"33 700 OFFCURVE",
"31 692 OFFCURVE",
"31 682 CURVE SMOOTH",
"31 672 OFFCURVE",
"33 664 OFFCURVE",
"39 664 CURVE SMOOTH",
"101 664 LINE",
"101 -21 LINE SMOOTH",
"101 -112 OFFCURVE",
"64 -147 OFFCURVE",
"27 -147 CURVE SMOOTH",
"1 -147 OFFCURVE",
"-26 -130 OFFCURVE",
"-42 -105 CURVE",
"-75 -105 OFFCURVE",
"-93 -133 OFFCURVE",
"-93 -160 CURVE SMOOTH",
"-93 -188 OFFCURVE",
"-72 -224 OFFCURVE",
"-17 -224 CURVE SMOOTH",
"104 -224 OFFCURVE",
"205 -115 OFFCURVE",
"205 58 CURVE SMOOTH"
);
},
{
closed = 1;
nodes = (
"153 825 LINE",
"270 740 LINE",
"269 740 LINE",
"280 729 OFFCURVE",
"301 749 OFFCURVE",
"297 758 CURVE",
"191 901 LINE",
"191 900 LINE",
"182 916 OFFCURVE",
"168 921 OFFCURVE",
"154 921 CURVE SMOOTH",
"142 921 OFFCURVE",
"128 916 OFFCURVE",
"119 900 CURVE",
"119 901 LINE",
"13 758 LINE",
"8 749 OFFCURVE",
"28 730 OFFCURVE",
"38 740 CURVE",
"37 740 LINE"
);
}
);
width = 310;
}
);
note = Jcircumflex;
unicode = 0134;
},
{
glyphname = Kcommaaccent;
layers = (
{
layerId = "7A03799E-F594-4F0C-AED7-187FAD140615";
name = Regular;
paths = (
{
closed = 1;
nodes = (
"633 664 LINE SMOOTH",
"640 664 OFFCURVE",
"642 672 OFFCURVE",
"642 682 CURVE SMOOTH",
"642 692 OFFCURVE",
"640 700 OFFCURVE",
"633 700 CURVE SMOOTH",
"416 700 LINE SMOOTH",
"409 700 OFFCURVE",
"407 692 OFFCURVE",
"407 682 CURVE SMOOTH",
"407 672 OFFCURVE",
"409 664 OFFCURVE",
"416 664 CURVE SMOOTH",
"476 664 LINE",
"463 627 OFFCURVE",
"379 513 OFFCURVE",
"207 353 CURVE",
"208 476 OFFCURVE",
"211 592 OFFCURVE",
"216 664 CURVE",
"266 664 LINE SMOOTH",
"273 664 OFFCURVE",
"275 672 OFFCURVE",
"275 682 CURVE SMOOTH",
"275 692 OFFCURVE",
"273 700 OFFCURVE",
"266 700 CURVE SMOOTH",
"39 700 LINE SMOOTH",
"33 700 OFFCURVE",
"31 692 OFFCURVE",
"31 682 CURVE SMOOTH",
"31 672 OFFCURVE",
"33 664 OFFCURVE",
"39 664 CURVE SMOOTH",
"101 664 LINE",
"101 36 LINE",
"39 36 LINE SMOOTH",
"33 36 OFFCURVE",
"31 27 OFFCURVE",
"31 18 CURVE SMOOTH",
"31 8 OFFCURVE",
"33 0 OFFCURVE",
"39 0 CURVE SMOOTH",
"266 0 LINE SMOOTH",
"273 0 OFFCURVE",
"275 8 OFFCURVE",
"275 18 CURVE SMOOTH",
"275 27 OFFCURVE",
"273 36 OFFCURVE",
"266 36 CURVE SMOOTH",
"205 36 LINE",
"205 131 OFFCURVE",
"205 245 OFFCURVE",
"207 353 CURVE",
"266 317 OFFCURVE",
"439 132 OFFCURVE",
"507 36 CURVE",
"461 36 LINE SMOOTH",
"454 36 OFFCURVE",
"452 27 OFFCURVE",
"452 18 CURVE SMOOTH",
"452 8 OFFCURVE",
"454 0 OFFCURVE",
"461 0 CURVE SMOOTH",
"685 0 LINE SMOOTH",
"692 0 OFFCURVE",
"694 8 OFFCURVE",
"694 18 CURVE SMOOTH",
"694 27 OFFCURVE",
"692 36 OFFCURVE",
"685 36 CURVE SMOOTH",
"642 36 LINE",
"555 143 OFFCURVE",
"409 316 OFFCURVE",
"323 387 CURVE",
"388 449 OFFCURVE",
"520 589 OFFCURVE",
"581 664 CURVE"
);
},
{
closed = 1;
nodes = (
"305 -264 OFFCURVE",
"400 -242 OFFCURVE",
"400 -136 CURVE SMOOTH",
"400 -75 OFFCURVE",
"369 -57 OFFCURVE",
"329 -57 CURVE SMOOTH",
"298 -57 OFFCURVE",
"275 -76 OFFCURVE",
"275 -105 CURVE SMOOTH",
"275 -135 OFFCURVE",
"294 -153 OFFCURVE",
"324 -153 CURVE SMOOTH",
"337 -153 OFFCURVE",
"344 -159 OFFCURVE",
"344 -173 CURVE SMOOTH",
"344 -198 OFFCURVE",
"326 -222 OFFCURVE",
"280 -231 CURVE",
"276 -232 OFFCURVE",
"274 -235 OFFCURVE",
"274 -240 CURVE SMOOTH",
"274 -246 OFFCURVE",
"285 -264 OFFCURVE",
"294 -264 CURVE SMOOTH"
);
}
);
width = 700;
}
);
note = Kcommaaccent;
unicode = 0136;
},
{
glyphname = Lacute;
layers = (
{
layerId = "7A03799E-F594-4F0C-AED7-187FAD140615";
name = Regular;
paths = (
{
closed = 1;
nodes = (
"479 106 LINE",
"449 79 OFFCURVE",
"351 53 OFFCURVE",
"264 53 CURVE SMOOTH",
"226 53 OFFCURVE",
"205 55 OFFCURVE",
"205 79 CURVE SMOOTH",
"205 282 OFFCURVE",
"208 532 OFFCURVE",
"216 664 CURVE",
"276 664 LINE SMOOTH",
"283 664 OFFCURVE",
"285 672 OFFCURVE",
"285 682 CURVE SMOOTH",
"285 692 OFFCURVE",
"283 700 OFFCURVE",
"276 700 CURVE SMOOTH",
"39 700 LINE SMOOTH",
"33 700 OFFCURVE",
"31 692 OFFCURVE",
"31 682 CURVE SMOOTH",
"31 672 OFFCURVE",
"33 664 OFFCURVE",
"39 664 CURVE SMOOTH",
"101 664 LINE",
"101 36 LINE",
"39 36 LINE SMOOTH",
"33 36 OFFCURVE",
"31 27 OFFCURVE",
"31 18 CURVE SMOOTH",
"31 8 OFFCURVE",
"33 0 OFFCURVE",
"39 0 CURVE SMOOTH",
"510 0 LINE",
"510 68 OFFCURVE",
"513 97 OFFCURVE",
"521 173 CURVE",
"521 180 OFFCURVE",
"512 184 OFFCURVE",
"505 184 CURVE SMOOTH",
"497 184 OFFCURVE",
"489 181 OFFCURVE",
"488 175 CURVE"
);
},
{
closed = 1;
nodes = (
"282 863 LINE",
"291 874 OFFCURVE",
"295 884 OFFCURVE",
"295 893 CURVE SMOOTH",
"295 913 OFFCURVE",
"272 925 OFFCURVE",
"251 925 CURVE SMOOTH",
"232 925 OFFCURVE",
"212 917 OFFCURVE",
"204 901 CURVE",
"205 902 LINE",
"111 749 LINE",
"112 741 OFFCURVE",
"124 733 OFFCURVE",
"134 733 CURVE SMOOTH",
"140 733 OFFCURVE",
"144 736 OFFCURVE",
"147 739 CURVE"
);
}
);
width = 537;
}
);
note = Lacute;
unicode = 0139;
},
{
glyphname = Lcaron;
layers = (
{
layerId = "7A03799E-F594-4F0C-AED7-187FAD140615";
name = Regular;
paths = (
{
closed = 1;
nodes = (
"479 106 LINE",
"449 79 OFFCURVE",
"351 53 OFFCURVE",
"264 53 CURVE SMOOTH",
"226 53 OFFCURVE",
"205 55 OFFCURVE",
"205 79 CURVE SMOOTH",
"205 282 OFFCURVE",
"208 532 OFFCURVE",
"216 664 CURVE",
"276 664 LINE SMOOTH",
"283 664 OFFCURVE",
"285 672 OFFCURVE",
"285 682 CURVE SMOOTH",
"285 692 OFFCURVE",
"283 700 OFFCURVE",
"276 700 CURVE SMOOTH",
"39 700 LINE SMOOTH",
"33 700 OFFCURVE",
"31 692 OFFCURVE",
"31 682 CURVE SMOOTH",
"31 672 OFFCURVE",
"33 664 OFFCURVE",
"39 664 CURVE SMOOTH",
"101 664 LINE",
"101 36 LINE",
"39 36 LINE SMOOTH",
"33 36 OFFCURVE",
"31 27 OFFCURVE",
"31 18 CURVE SMOOTH",
"31 8 OFFCURVE",
"33 0 OFFCURVE",
"39 0 CURVE SMOOTH",
"510 0 LINE",
"510 68 OFFCURVE",
"513 97 OFFCURVE",
"521 173 CURVE",
"521 180 OFFCURVE",
"512 184 OFFCURVE",
"505 184 CURVE SMOOTH",
"497 184 OFFCURVE",
"489 181 OFFCURVE",
"488 175 CURVE"
);
},
{
closed = 1;
nodes = (
"413 743 OFFCURVE",
"391 753 OFFCURVE",
"364 753 CURVE SMOOTH",
"345 753 OFFCURVE",
"332 742 OFFCURVE",
"332 722 CURVE SMOOTH",
"332 662 OFFCURVE",
"331 604 OFFCURVE",
"326 547 CURVE",
"326 541 OFFCURVE",
"332 532 OFFCURVE",
"343 532 CURVE SMOOTH",
"348 532 OFFCURVE",
"356 532 OFFCURVE",
"360 539 CURVE",
"381 588 OFFCURVE",
"413 670 OFFCURVE",
"413 712 CURVE SMOOTH"
);
}
);
width = 537;
}
);
note = Lcaron;
unicode = 013D;
},
{
glyphname = Lcommaaccent;
layers = (
{
layerId = "7A03799E-F594-4F0C-AED7-187FAD140615";
name = Regular;
paths = (
{
closed = 1;
nodes = (
"479 106 LINE",
"449 79 OFFCURVE",
"351 53 OFFCURVE",
"264 53 CURVE SMOOTH",
"226 53 OFFCURVE",
"205 55 OFFCURVE",
"205 79 CURVE SMOOTH",
"205 282 OFFCURVE",
"208 532 OFFCURVE",
"216 664 CURVE",
"276 664 LINE SMOOTH",
"283 664 OFFCURVE",
"285 672 OFFCURVE",
"285 682 CURVE SMOOTH",
"285 692 OFFCURVE",
"283 700 OFFCURVE",
"276 700 CURVE SMOOTH",
"39 700 LINE SMOOTH",
"33 700 OFFCURVE",
"31 692 OFFCURVE",
"31 682 CURVE SMOOTH",
"31 672 OFFCURVE",
"33 664 OFFCURVE",
"39 664 CURVE SMOOTH",
"101 664 LINE",
"101 36 LINE",
"39 36 LINE SMOOTH",
"33 36 OFFCURVE",
"31 27 OFFCURVE",
"31 18 CURVE SMOOTH",
"31 8 OFFCURVE",
"33 0 OFFCURVE",
"39 0 CURVE SMOOTH",
"510 0 LINE",
"510 68 OFFCURVE",
"513 97 OFFCURVE",
"521 173 CURVE",
"521 180 OFFCURVE",
"512 184 OFFCURVE",
"505 184 CURVE SMOOTH",
"497 184 OFFCURVE",
"489 181 OFFCURVE",
"488 175 CURVE"
);
},
{
closed = 1;
nodes = (
"250 -264 OFFCURVE",
"345 -242 OFFCURVE",
"345 -136 CURVE SMOOTH",
"345 -75 OFFCURVE",
"314 -57 OFFCURVE",
"274 -57 CURVE SMOOTH",
"243 -57 OFFCURVE",
"220 -76 OFFCURVE",
"220 -105 CURVE SMOOTH",
"220 -135 OFFCURVE",
"239 -153 OFFCURVE",
"269 -153 CURVE SMOOTH",
"282 -153 OFFCURVE",
"289 -159 OFFCURVE",
"289 -173 CURVE SMOOTH",
"289 -198 OFFCURVE",
"271 -222 OFFCURVE",
"225 -231 CURVE",
"221 -232 OFFCURVE",
"219 -235 OFFCURVE",
"219 -240 CURVE SMOOTH",
"219 -246 OFFCURVE",
"230 -264 OFFCURVE",
"239 -264 CURVE SMOOTH"
);
}
);
width = 537;
}
);
note = Lcommaaccent;
unicode = 013B;
},
{
glyphname = Ldot;
layers = (
{
layerId = "7A03799E-F594-4F0C-AED7-187FAD140615";
name = Regular;
paths = (
{
closed = 1;
nodes = (
"479 106 LINE",
"449 79 OFFCURVE",
"351 53 OFFCURVE",
"264 53 CURVE SMOOTH",
"226 53 OFFCURVE",
"205 55 OFFCURVE",
"205 79 CURVE SMOOTH",
"205 282 OFFCURVE",
"208 532 OFFCURVE",
"216 664 CURVE",
"276 664 LINE SMOOTH",
"283 664 OFFCURVE",
"285 672 OFFCURVE",
"285 682 CURVE SMOOTH",
"285 692 OFFCURVE",
"283 700 OFFCURVE",
"276 700 CURVE SMOOTH",
"39 700 LINE SMOOTH",
"33 700 OFFCURVE",
"31 692 OFFCURVE",
"31 682 CURVE SMOOTH",
"31 672 OFFCURVE",
"33 664 OFFCURVE",
"39 664 CURVE SMOOTH",
"101 664 LINE",
"101 36 LINE",
"39 36 LINE SMOOTH",
"33 36 OFFCURVE",
"31 27 OFFCURVE",
"31 18 CURVE SMOOTH",
"31 8 OFFCURVE",
"33 0 OFFCURVE",
"39 0 CURVE SMOOTH",
"510 0 LINE",
"510 68 OFFCURVE",
"513 97 OFFCURVE",
"521 173 CURVE",
"521 180 OFFCURVE",
"512 184 OFFCURVE",
"505 184 CURVE SMOOTH",
"497 184 OFFCURVE",
"489 181 OFFCURVE",
"488 175 CURVE"
);
},
{
closed = 1;
nodes = (
"293 417 OFFCURVE",
"268 392 OFFCURVE",
"268 363 CURVE SMOOTH",
"268 333 OFFCURVE",
"293 310 OFFCURVE",
"321 310 CURVE SMOOTH",
"350 310 OFFCURVE",
"375 333 OFFCURVE",
"375 363 CURVE SMOOTH",
"375 392 OFFCURVE",
"350 417 OFFCURVE",
"321 417 CURVE SMOOTH"
);
}
);
width = 537;
}
);
note = Ldot;
unicode = 013F;
},
{
glyphname = Ldotaccent;
layers = (
{
layerId = "7A03799E-F594-4F0C-AED7-187FAD140615";
name = Regular;
paths = (
{
closed = 1;
nodes = (
"479 106 LINE",
"449 79 OFFCURVE",
"351 53 OFFCURVE",
"264 53 CURVE SMOOTH",
"226 53 OFFCURVE",
"205 55 OFFCURVE",
"205 79 CURVE SMOOTH",
"205 282 OFFCURVE",
"208 532 OFFCURVE",
"216 664 CURVE",
"276 664 LINE SMOOTH",
"283 664 OFFCURVE",
"285 672 OFFCURVE",
"285 682 CURVE SMOOTH",
"285 692 OFFCURVE",
"283 700 OFFCURVE",
"276 700 CURVE SMOOTH",
"39 700 LINE SMOOTH",
"33 700 OFFCURVE",
"31 692 OFFCURVE",
"31 682 CURVE SMOOTH",
"31 672 OFFCURVE",
"33 664 OFFCURVE",
"39 664 CURVE SMOOTH",
"101 664 LINE",
"101 36 LINE",
"39 36 LINE SMOOTH",
"33 36 OFFCURVE",
"31 27 OFFCURVE",
"31 18 CURVE SMOOTH",
"31 8 OFFCURVE",
"33 0 OFFCURVE",
"39 0 CURVE SMOOTH",
"510 0 LINE",
"510 68 OFFCURVE",
"513 97 OFFCURVE",
"521 173 CURVE",
"521 180 OFFCURVE",
"512 184 OFFCURVE",
"505 184 CURVE SMOOTH",
"497 184 OFFCURVE",
"489 181 OFFCURVE",
"488 175 CURVE"
);
},
{
closed = 1;
nodes = (
"293 417 OFFCURVE",
"268 392 OFFCURVE",
"268 363 CURVE SMOOTH",
"268 333 OFFCURVE",
"293 310 OFFCURVE",
"321 310 CURVE SMOOTH",
"350 310 OFFCURVE",
"375 333 OFFCURVE",
"375 363 CURVE SMOOTH",
"375 392 OFFCURVE",
"350 417 OFFCURVE",
"321 417 CURVE SMOOTH"
);
}
);
width = 537;
}
);
note = Ldotaccent;
},
{
glyphname = Lslash;
layers = (
{
layerId = "7A03799E-F594-4F0C-AED7-187FAD140615";
name = Regular;
paths = (
{
closed = 1;
nodes = (
"6 245 LINE",
"35 205 LINE",
"101 260 LINE",
"101 36 LINE",
"39 36 LINE SMOOTH",
"33 36 OFFCURVE",
"31 27 OFFCURVE",
"31 18 CURVE SMOOTH",
"31 8 OFFCURVE",
"33 0 OFFCURVE",
"39 0 CURVE SMOOTH",
"510 0 LINE",
"510 68 OFFCURVE",
"513 97 OFFCURVE",
"521 173 CURVE",
"521 180 OFFCURVE",
"512 184 OFFCURVE",
"505 184 CURVE SMOOTH",
"497 184 OFFCURVE",
"489 181 OFFCURVE",
"488 175 CURVE",
"479 106 LINE",
"449 79 OFFCURVE",
"351 53 OFFCURVE",
"264 53 CURVE SMOOTH",
"226 53 OFFCURVE",
"205 55 OFFCURVE",
"205 79 CURVE SMOOTH",
"205 165 OFFCURVE",
"205 259 OFFCURVE",
"207 349 CURVE",
"348 468 LINE",
"319 508 LINE",
"208 414 LINE",
"210 516 OFFCURVE",
"212 599 OFFCURVE",
"216 664 CURVE",
"276 664 LINE SMOOTH",
"283 664 OFFCURVE",
"285 672 OFFCURVE",
"285 682 CURVE SMOOTH",
"285 692 OFFCURVE",
"283 700 OFFCURVE",
"276 700 CURVE SMOOTH",
"39 700 LINE SMOOTH",
"33 700 OFFCURVE",
"31 692 OFFCURVE",
"31 682 CURVE SMOOTH",
"31 672 OFFCURVE",
"33 664 OFFCURVE",
"39 664 CURVE SMOOTH",
"101 664 LINE",
"101 323 LINE"
);
}
);
width = 537;
}
);
note = Lslash;
unicode = 0141;
},
{
glyphname = Nacute;
layers = (
{
layerId = "7A03799E-F594-4F0C-AED7-187FAD140615";
name = Regular;
paths = (
{
closed = 1;
nodes = (
"645 232 OFFCURVE",
"652 553 OFFCURVE",
"662 664 CURVE",
"712 664 LINE SMOOTH",
"719 664 OFFCURVE",
"721 672 OFFCURVE",
"721 682 CURVE SMOOTH",
"721 692 OFFCURVE",
"719 700 OFFCURVE",
"712 700 CURVE SMOOTH",
"524 700 LINE SMOOTH",
"517 700 OFFCURVE",
"515 692 OFFCURVE",
"515 682 CURVE SMOOTH",
"515 672 OFFCURVE",
"517 664 OFFCURVE",
"524 664 CURVE SMOOTH",
"585 664 LINE",
"585 168 LINE",
"205 700 LINE",
"21 700 LINE SMOOTH",
"14 700 OFFCURVE",
"12 692 OFFCURVE",
"12 682 CURVE SMOOTH",
"12 672 OFFCURVE",
"12 665 OFFCURVE",
"21 665 CURVE SMOOTH",
"77 665 OFFCURVE",
"91 651 OFFCURVE",
"113 623 CURVE SMOOTH",
"120 614 OFFCURVE",
"131 603 OFFCURVE",
"138 595 CURVE",
"137 435 OFFCURVE",
"129 169 OFFCURVE",
"117 36 CURVE",
"56 36 LINE SMOOTH",
"49 36 OFFCURVE",
"47 27 OFFCURVE",
"47 18 CURVE SMOOTH",
"47 8 OFFCURVE",
"49 0 OFFCURVE",
"56 0 CURVE SMOOTH",
"259 0 LINE SMOOTH",
"266 0 OFFCURVE",
"268 8 OFFCURVE",
"268 18 CURVE SMOOTH",
"268 27 OFFCURVE",
"266 36 OFFCURVE",
"259 36 CURVE SMOOTH",
"198 36 LINE",
"198 520 LINE",
"595 -17 LINE",
"626 -17 OFFCURVE",
"645 -4 OFFCURVE",
"645 17 CURVE SMOOTH"
);
},
{
closed = 1;
nodes = (
"479 863 LINE",
"488 874 OFFCURVE",
"492 884 OFFCURVE",
"492 893 CURVE SMOOTH",
"492 913 OFFCURVE",
"469 925 OFFCURVE",
"448 925 CURVE SMOOTH",
"429 925 OFFCURVE",
"409 917 OFFCURVE",
"401 901 CURVE",
"402 902 LINE",
"308 749 LINE",
"309 741 OFFCURVE",
"321 733 OFFCURVE",
"331 733 CURVE SMOOTH",
"337 733 OFFCURVE",
"341 736 OFFCURVE",
"344 739 CURVE"
);
}
);
width = 750;
}
);
note = Nacute;
unicode = 0143;
},
{
glyphname = Ncaron;
layers = (
{
layerId = "7A03799E-F594-4F0C-AED7-187FAD140615";
name = Regular;
paths = (
{
closed = 1;
nodes = (
"645 232 OFFCURVE",
"652 553 OFFCURVE",
"662 664 CURVE",
"712 664 LINE SMOOTH",
"719 664 OFFCURVE",
"721 672 OFFCURVE",
"721 682 CURVE SMOOTH",
"721 692 OFFCURVE",
"719 700 OFFCURVE",
"712 700 CURVE SMOOTH",
"524 700 LINE SMOOTH",
"517 700 OFFCURVE",
"515 692 OFFCURVE",
"515 682 CURVE SMOOTH",
"515 672 OFFCURVE",
"517 664 OFFCURVE",
"524 664 CURVE SMOOTH",
"585 664 LINE",
"585 168 LINE",
"205 700 LINE",
"21 700 LINE SMOOTH",
"14 700 OFFCURVE",
"12 692 OFFCURVE",
"12 682 CURVE SMOOTH",
"12 672 OFFCURVE",
"12 665 OFFCURVE",
"21 665 CURVE SMOOTH",
"77 665 OFFCURVE",
"91 651 OFFCURVE",
"113 623 CURVE SMOOTH",
"120 614 OFFCURVE",
"131 603 OFFCURVE",
"138 595 CURVE",
"137 435 OFFCURVE",
"129 169 OFFCURVE",
"117 36 CURVE",
"56 36 LINE SMOOTH",
"49 36 OFFCURVE",
"47 27 OFFCURVE",
"47 18 CURVE SMOOTH",
"47 8 OFFCURVE",
"49 0 OFFCURVE",
"56 0 CURVE SMOOTH",
"259 0 LINE SMOOTH",
"266 0 OFFCURVE",
"268 8 OFFCURVE",
"268 18 CURVE SMOOTH",
"268 27 OFFCURVE",
"266 36 OFFCURVE",
"259 36 CURVE SMOOTH",
"198 36 LINE",
"198 520 LINE",
"595 -17 LINE",
"626 -17 OFFCURVE",
"645 -4 OFFCURVE",
"645 17 CURVE SMOOTH"
);
},
{
closed = 1;
nodes = (
"378 837 LINE",
"262 921 LINE",
"263 921 LINE",
"252 932 OFFCURVE",
"231 912 OFFCURVE",
"235 904 CURVE",
"341 761 LINE",
"341 762 LINE",
"349 746 OFFCURVE",
"363 741 OFFCURVE",
"377 741 CURVE SMOOTH",
"390 741 OFFCURVE",
"403 746 OFFCURVE",
"412 762 CURVE",
"412 761 LINE",
"518 904 LINE",
"523 912 OFFCURVE",
"502 931 OFFCURVE",
"492 921 CURVE",
"493 921 LINE"
);
}
);
width = 750;
}
);
note = Ncaron;
unicode = 0147;
},
{
glyphname = Ncommaaccent;
layers = (
{
layerId = "7A03799E-F594-4F0C-AED7-187FAD140615";
name = Regular;
paths = (
{
closed = 1;
nodes = (
"645 232 OFFCURVE",
"652 553 OFFCURVE",
"662 664 CURVE",
"712 664 LINE SMOOTH",
"719 664 OFFCURVE",
"721 672 OFFCURVE",
"721 682 CURVE SMOOTH",
"721 692 OFFCURVE",
"719 700 OFFCURVE",
"712 700 CURVE SMOOTH",
"524 700 LINE SMOOTH",
"517 700 OFFCURVE",
"515 692 OFFCURVE",
"515 682 CURVE SMOOTH",
"515 672 OFFCURVE",
"517 664 OFFCURVE",
"524 664 CURVE SMOOTH",
"585 664 LINE",
"585 168 LINE",
"205 700 LINE",
"21 700 LINE SMOOTH",
"14 700 OFFCURVE",
"12 692 OFFCURVE",
"12 682 CURVE SMOOTH",
"12 672 OFFCURVE",
"12 665 OFFCURVE",
"21 665 CURVE SMOOTH",
"77 665 OFFCURVE",
"91 651 OFFCURVE",
"113 623 CURVE SMOOTH",
"120 614 OFFCURVE",
"131 603 OFFCURVE",
"138 595 CURVE",
"137 435 OFFCURVE",
"129 169 OFFCURVE",
"117 36 CURVE",
"56 36 LINE SMOOTH",
"49 36 OFFCURVE",
"47 27 OFFCURVE",
"47 18 CURVE SMOOTH",
"47 8 OFFCURVE",
"49 0 OFFCURVE",
"56 0 CURVE SMOOTH",
"259 0 LINE SMOOTH",
"266 0 OFFCURVE",
"268 8 OFFCURVE",
"268 18 CURVE SMOOTH",
"268 27 OFFCURVE",
"266 36 OFFCURVE",
"259 36 CURVE SMOOTH",
"198 36 LINE",
"198 520 LINE",
"595 -17 LINE",
"626 -17 OFFCURVE",
"645 -4 OFFCURVE",
"645 17 CURVE SMOOTH"
);
},
{
closed = 1;
nodes = (
"340 -264 OFFCURVE",
"435 -242 OFFCURVE",
"435 -136 CURVE SMOOTH",
"435 -75 OFFCURVE",
"404 -57 OFFCURVE",
"364 -57 CURVE SMOOTH",
"333 -57 OFFCURVE",
"310 -76 OFFCURVE",
"310 -105 CURVE SMOOTH",
"310 -135 OFFCURVE",
"329 -153 OFFCURVE",
"359 -153 CURVE SMOOTH",
"372 -153 OFFCURVE",
"379 -159 OFFCURVE",
"379 -173 CURVE SMOOTH",
"379 -198 OFFCURVE",
"361 -222 OFFCURVE",
"315 -231 CURVE",
"311 -232 OFFCURVE",
"309 -235 OFFCURVE",
"309 -240 CURVE SMOOTH",
"309 -246 OFFCURVE",
"320 -264 OFFCURVE",
"329 -264 CURVE SMOOTH"
);
}
);
width = 750;
}
);
note = Ncommaaccent;
unicode = 0145;
},
{
glyphname = Ntilde;
layers = (
{
layerId = "7A03799E-F594-4F0C-AED7-187FAD140615";
name = Regular;
paths = (
{
closed = 1;
nodes = (
"645 232 OFFCURVE",
"652 553 OFFCURVE",
"662 664 CURVE",
"712 664 LINE SMOOTH",
"719 664 OFFCURVE",
"721 672 OFFCURVE",
"721 682 CURVE SMOOTH",
"721 692 OFFCURVE",
"719 700 OFFCURVE",
"712 700 CURVE SMOOTH",
"524 700 LINE SMOOTH",
"517 700 OFFCURVE",
"515 692 OFFCURVE",
"515 682 CURVE SMOOTH",
"515 672 OFFCURVE",
"517 664 OFFCURVE",
"524 664 CURVE SMOOTH",
"585 664 LINE",
"585 168 LINE",
"205 700 LINE",
"21 700 LINE SMOOTH",
"14 700 OFFCURVE",
"12 692 OFFCURVE",
"12 682 CURVE SMOOTH",
"12 672 OFFCURVE",
"12 665 OFFCURVE",
"21 665 CURVE SMOOTH",
"77 665 OFFCURVE",
"91 651 OFFCURVE",
"113 623 CURVE SMOOTH",
"120 614 OFFCURVE",
"131 603 OFFCURVE",
"138 595 CURVE",
"137 435 OFFCURVE",
"129 169 OFFCURVE",
"117 36 CURVE",
"56 36 LINE SMOOTH",
"49 36 OFFCURVE",
"47 27 OFFCURVE",
"47 18 CURVE SMOOTH",
"47 8 OFFCURVE",
"49 0 OFFCURVE",
"56 0 CURVE SMOOTH",
"259 0 LINE SMOOTH",
"266 0 OFFCURVE",
"268 8 OFFCURVE",
"268 18 CURVE SMOOTH",
"268 27 OFFCURVE",
"266 36 OFFCURVE",
"259 36 CURVE SMOOTH",
"198 36 LINE",
"198 520 LINE",
"595 -17 LINE",
"626 -17 OFFCURVE",
"645 -4 OFFCURVE",
"645 17 CURVE SMOOTH"
);
},
{
closed = 1;
nodes = (
"289 815 OFFCURVE",
"312 827 OFFCURVE",
"335 827 CURVE SMOOTH",
"357 827 OFFCURVE",
"376 812 OFFCURVE",
"395 798 CURVE",
"413 782 OFFCURVE",
"433 767 OFFCURVE",
"461 767 CURVE SMOOTH",
"493 767 OFFCURVE",
"526 785 OFFCURVE",
"563 874 CURVE",
"567 890 OFFCURVE",
"542 900 OFFCURVE",
"538 897 CURVE",
"508 849 OFFCURVE",
"495 840 OFFCURVE",
"476 840 CURVE SMOOTH",
"454 840 OFFCURVE",
"433 856 OFFCURVE",
"415 870 CURVE SMOOTH",
"395 886 OFFCURVE",
"376 901 OFFCURVE",
"348 901 CURVE SMOOTH",
"315 901 OFFCURVE",
"275 885 OFFCURVE",
"238 795 CURVE",
"233 784 OFFCURVE",
"261 769 OFFCURVE",
"265 776 CURVE SMOOTH"
);
}
);
width = 750;
}
);
note = Ntilde;
unicode = 00D1;
},
{
glyphname = Oacute;
layers = (
{
layerId = "7A03799E-F594-4F0C-AED7-187FAD140615";
name = Regular;
paths = (
{
closed = 1;
nodes = (
"204 714 OFFCURVE",
"35 550 OFFCURVE",
"35 348 CURVE SMOOTH",
"35 147 OFFCURVE",
"204 -17 OFFCURVE",
"414 -17 CURVE SMOOTH",
"624 -17 OFFCURVE",
"794 147 OFFCURVE",
"794 348 CURVE SMOOTH",
"794 550 OFFCURVE",
"624 714 OFFCURVE",
"414 714 CURVE SMOOTH"
);
},
{
closed = 1;
nodes = (
"558 656 OFFCURVE",
"671 519 OFFCURVE",
"671 348 CURVE SMOOTH",
"671 178 OFFCURVE",
"558 42 OFFCURVE",
"414 42 CURVE SMOOTH",
"270 42 OFFCURVE",
"158 178 OFFCURVE",
"158 348 CURVE SMOOTH",
"158 519 OFFCURVE",
"270 656 OFFCURVE",
"414 656 CURVE SMOOTH"
);
},
{
closed = 1;
nodes = (
"511 863 LINE",
"520 874 OFFCURVE",
"524 884 OFFCURVE",
"524 893 CURVE SMOOTH",
"524 913 OFFCURVE",
"501 925 OFFCURVE",
"480 925 CURVE SMOOTH",
"461 925 OFFCURVE",
"441 917 OFFCURVE",
"433 901 CURVE",
"434 902 LINE",
"340 749 LINE",
"341 741 OFFCURVE",
"353 733 OFFCURVE",
"363 733 CURVE SMOOTH",
"369 733 OFFCURVE",
"373 736 OFFCURVE",
"376 739 CURVE"
);
}
);
width = 840;
}
);
note = Oacute;
unicode = 00D3;
},
{
glyphname = Obreve;
layers = (
{
layerId = "7A03799E-F594-4F0C-AED7-187FAD140615";
name = Regular;
paths = (
{
closed = 1;
nodes = (
"204 714 OFFCURVE",
"35 550 OFFCURVE",
"35 348 CURVE SMOOTH",
"35 147 OFFCURVE",
"204 -17 OFFCURVE",
"414 -17 CURVE SMOOTH",
"624 -17 OFFCURVE",
"794 147 OFFCURVE",
"794 348 CURVE SMOOTH",
"794 550 OFFCURVE",
"624 714 OFFCURVE",
"414 714 CURVE SMOOTH"
);
},
{
closed = 1;
nodes = (
"558 656 OFFCURVE",
"671 519 OFFCURVE",
"671 348 CURVE SMOOTH",
"671 178 OFFCURVE",
"558 42 OFFCURVE",
"414 42 CURVE SMOOTH",
"270 42 OFFCURVE",
"158 178 OFFCURVE",
"158 348 CURVE SMOOTH",
"158 519 OFFCURVE",
"270 656 OFFCURVE",
"414 656 CURVE SMOOTH"
);
},
{
closed = 1;
nodes = (
"539 885 OFFCURVE",
"535 890 OFFCURVE",
"520 890 CURVE SMOOTH",
"510 890 OFFCURVE",
"502 888 OFFCURVE",
"502 881 CURVE SMOOTH",
"502 840 OFFCURVE",
"466 817 OFFCURVE",
"417 817 CURVE SMOOTH",
"366 817 OFFCURVE",
"330 840 OFFCURVE",
"330 881 CURVE SMOOTH",
"330 888 OFFCURVE",
"323 890 OFFCURVE",
"313 890 CURVE SMOOTH",
"298 890 OFFCURVE",
"294 885 OFFCURVE",
"294 877 CURVE SMOOTH",
"294 800 OFFCURVE",
"340 750 OFFCURVE",
"417 750 CURVE SMOOTH",
"494 750 OFFCURVE",
"539 800 OFFCURVE",
"539 877 CURVE SMOOTH"
);
}
);
width = 840;
}
);
note = Obreve;
unicode = 014E;
},
{
glyphname = Ocircumflex;
layers = (
{
layerId = "7A03799E-F594-4F0C-AED7-187FAD140615";
name = Regular;
paths = (
{
closed = 1;
nodes = (
"204 714 OFFCURVE",
"35 550 OFFCURVE",
"35 348 CURVE SMOOTH",
"35 147 OFFCURVE",
"204 -17 OFFCURVE",
"414 -17 CURVE SMOOTH",
"624 -17 OFFCURVE",
"794 147 OFFCURVE",
"794 348 CURVE SMOOTH",
"794 550 OFFCURVE",
"624 714 OFFCURVE",
"414 714 CURVE SMOOTH"
);
},
{
closed = 1;
nodes = (
"558 656 OFFCURVE",
"671 519 OFFCURVE",
"671 348 CURVE SMOOTH",
"671 178 OFFCURVE",
"558 42 OFFCURVE",
"414 42 CURVE SMOOTH",
"270 42 OFFCURVE",
"158 178 OFFCURVE",
"158 348 CURVE SMOOTH",
"158 519 OFFCURVE",
"270 656 OFFCURVE",
"414 656 CURVE SMOOTH"
);
},
{
closed = 1;
nodes = (
"415 825 LINE",
"532 740 LINE",
"531 740 LINE",
"542 729 OFFCURVE",
"563 749 OFFCURVE",
"559 758 CURVE",
"453 901 LINE",
"453 900 LINE",
"444 916 OFFCURVE",
"430 921 OFFCURVE",
"416 921 CURVE SMOOTH",
"404 921 OFFCURVE",
"390 916 OFFCURVE",
"381 900 CURVE",
"381 901 LINE",
"275 758 LINE",
"270 749 OFFCURVE",
"290 730 OFFCURVE",
"300 740 CURVE",
"299 740 LINE"
);
}
);
width = 840;
}
);
note = Ocircumflex;
unicode = 00D4;
},
{
glyphname = Odieresis;
layers = (
{
layerId = "7A03799E-F594-4F0C-AED7-187FAD140615";
name = Regular;
paths = (
{
closed = 1;
nodes = (
"204 714 OFFCURVE",
"35 550 OFFCURVE",
"35 348 CURVE SMOOTH",
"35 147 OFFCURVE",
"204 -17 OFFCURVE",
"414 -17 CURVE SMOOTH",
"624 -17 OFFCURVE",
"794 147 OFFCURVE",
"794 348 CURVE SMOOTH",
"794 550 OFFCURVE",
"624 714 OFFCURVE",
"414 714 CURVE SMOOTH"
);
},
{
closed = 1;
nodes = (
"558 656 OFFCURVE",
"671 519 OFFCURVE",
"671 348 CURVE SMOOTH",
"671 178 OFFCURVE",
"558 42 OFFCURVE",
"414 42 CURVE SMOOTH",
"270 42 OFFCURVE",
"158 178 OFFCURVE",
"158 348 CURVE SMOOTH",
"158 519 OFFCURVE",
"270 656 OFFCURVE",
"414 656 CURVE SMOOTH"
);
},
{
closed = 1;
nodes = (
"295 852 OFFCURVE",
"272 830 OFFCURVE",
"272 799 CURVE SMOOTH",
"272 767 OFFCURVE",
"295 746 OFFCURVE",
"323 746 CURVE SMOOTH",
"352 746 OFFCURVE",
"374 767 OFFCURVE",
"374 799 CURVE SMOOTH",
"374 830 OFFCURVE",
"352 852 OFFCURVE",
"323 852 CURVE SMOOTH"
);
},
{
closed = 1;
nodes = (
"480 852 OFFCURVE",
"458 830 OFFCURVE",
"458 799 CURVE SMOOTH",
"458 767 OFFCURVE",
"480 746 OFFCURVE",
"509 746 CURVE SMOOTH",
"537 746 OFFCURVE",
"559 767 OFFCURVE",
"559 799 CURVE SMOOTH",
"559 830 OFFCURVE",
"537 852 OFFCURVE",
"509 852 CURVE SMOOTH"
);
}
);
width = 840;
}
);
note = Odieresis;
unicode = 00D6;
},
{
glyphname = Ograve;
layers = (
{
layerId = "7A03799E-F594-4F0C-AED7-187FAD140615";
name = Regular;
paths = (
{
closed = 1;
nodes = (
"204 714 OFFCURVE",
"35 550 OFFCURVE",
"35 348 CURVE SMOOTH",
"35 147 OFFCURVE",
"204 -17 OFFCURVE",
"414 -17 CURVE SMOOTH",
"624 -17 OFFCURVE",
"794 147 OFFCURVE",
"794 348 CURVE SMOOTH",
"794 550 OFFCURVE",
"624 714 OFFCURVE",
"414 714 CURVE SMOOTH"
);
},
{
closed = 1;
nodes = (
"558 656 OFFCURVE",
"671 519 OFFCURVE",
"671 348 CURVE SMOOTH",
"671 178 OFFCURVE",
"558 42 OFFCURVE",
"414 42 CURVE SMOOTH",
"270 42 OFFCURVE",
"158 178 OFFCURVE",
"158 348 CURVE SMOOTH",
"158 519 OFFCURVE",
"270 656 OFFCURVE",
"414 656 CURVE SMOOTH"
);
},
{
closed = 1;
nodes = (
"475 739 LINE",
"478 736 OFFCURVE",
"482 733 OFFCURVE",
"488 733 CURVE SMOOTH",
"498 733 OFFCURVE",
"509 741 OFFCURVE",
"511 749 CURVE",
"417 902 LINE",
"418 901 LINE",
"410 917 OFFCURVE",
"390 925 OFFCURVE",
"372 925 CURVE SMOOTH",
"349 925 OFFCURVE",
"327 913 OFFCURVE",
"327 893 CURVE SMOOTH",
"327 884 OFFCURVE",
"331 874 OFFCURVE",
"340 863 CURVE"
);
}
);
width = 840;
}
);
note = Ograve;
unicode = 00D2;
},
{
glyphname = Ohungarumlaut;
layers = (
{
layerId = "7A03799E-F594-4F0C-AED7-187FAD140615";
name = Regular;
paths = (
{
closed = 1;
nodes = (
"204 714 OFFCURVE",
"35 550 OFFCURVE",
"35 348 CURVE SMOOTH",
"35 147 OFFCURVE",
"204 -17 OFFCURVE",
"414 -17 CURVE SMOOTH",
"624 -17 OFFCURVE",
"794 147 OFFCURVE",
"794 348 CURVE SMOOTH",
"794 550 OFFCURVE",
"624 714 OFFCURVE",
"414 714 CURVE SMOOTH"
);
},
{
closed = 1;
nodes = (
"558 656 OFFCURVE",
"671 519 OFFCURVE",
"671 348 CURVE SMOOTH",
"671 178 OFFCURVE",
"558 42 OFFCURVE",
"414 42 CURVE SMOOTH",
"270 42 OFFCURVE",
"158 178 OFFCURVE",
"158 348 CURVE SMOOTH",
"158 519 OFFCURVE",
"270 656 OFFCURVE",
"414 656 CURVE SMOOTH"
);
},
{
closed = 1;
nodes = (
"426 861 LINE",
"434 875 OFFCURVE",
"438 886 OFFCURVE",
"438 893 CURVE SMOOTH",
"438 913 OFFCURVE",
"421 925 OFFCURVE",
"402 925 CURVE SMOOTH",
"390 925 OFFCURVE",
"373 913 OFFCURVE",
"366 901 CURVE",
"294 749 LINE",
"295 741 OFFCURVE",
"304 733 OFFCURVE",
"312 733 CURVE SMOOTH",
"316 733 OFFCURVE",
"320 736 OFFCURVE",
"323 739 CURVE"
);
},
{
closed = 1;
nodes = (
"555 861 LINE",
"563 875 OFFCURVE",
"567 886 OFFCURVE",
"567 893 CURVE SMOOTH",
"567 913 OFFCURVE",
"550 925 OFFCURVE",
"532 925 CURVE SMOOTH",
"519 925 OFFCURVE",
"502 913 OFFCURVE",
"495 901 CURVE",
"423 749 LINE",
"424 741 OFFCURVE",
"434 733 OFFCURVE",
"442 733 CURVE SMOOTH",
"445 733 OFFCURVE",
"449 736 OFFCURVE",
"452 739 CURVE"
);
}
);
width = 840;
}
);
note = Ohungarumlaut;
unicode = 0150;
},
{
glyphname = Omacron;
layers = (
{
layerId = "7A03799E-F594-4F0C-AED7-187FAD140615";
name = Regular;
paths = (
{
closed = 1;
nodes = (
"204 714 OFFCURVE",
"35 550 OFFCURVE",
"35 348 CURVE SMOOTH",
"35 147 OFFCURVE",
"204 -17 OFFCURVE",
"414 -17 CURVE SMOOTH",
"624 -17 OFFCURVE",
"794 147 OFFCURVE",
"794 348 CURVE SMOOTH",
"794 550 OFFCURVE",
"624 714 OFFCURVE",
"414 714 CURVE SMOOTH"
);
},
{
closed = 1;
nodes = (
"558 656 OFFCURVE",
"671 519 OFFCURVE",
"671 348 CURVE SMOOTH",
"671 178 OFFCURVE",
"558 42 OFFCURVE",
"414 42 CURVE SMOOTH",
"270 42 OFFCURVE",
"158 178 OFFCURVE",
"158 348 CURVE SMOOTH",
"158 519 OFFCURVE",
"270 656 OFFCURVE",
"414 656 CURVE SMOOTH"
);
},
{
closed = 1;
nodes = (
"281 823 LINE",
"281 767 LINE",
"549 767 LINE",
"549 823 LINE"
);
}
);
width = 840;
}
);
note = Omacron;
unicode = 014C;
},
{
glyphname = Otilde;
layers = (
{
layerId = "7A03799E-F594-4F0C-AED7-187FAD140615";
name = Regular;
paths = (
{
closed = 1;
nodes = (
"204 714 OFFCURVE",
"35 550 OFFCURVE",
"35 348 CURVE SMOOTH",
"35 147 OFFCURVE",
"204 -17 OFFCURVE",
"414 -17 CURVE SMOOTH",
"624 -17 OFFCURVE",
"794 147 OFFCURVE",
"794 348 CURVE SMOOTH",
"794 550 OFFCURVE",
"624 714 OFFCURVE",
"414 714 CURVE SMOOTH"
);
},
{
closed = 1;
nodes = (
"558 656 OFFCURVE",
"671 519 OFFCURVE",
"671 348 CURVE SMOOTH",
"671 178 OFFCURVE",
"558 42 OFFCURVE",
"414 42 CURVE SMOOTH",
"270 42 OFFCURVE",
"158 178 OFFCURVE",
"158 348 CURVE SMOOTH",
"158 519 OFFCURVE",
"270 656 OFFCURVE",
"414 656 CURVE SMOOTH"
);
},
{
closed = 1;
nodes = (
"305 815 OFFCURVE",
"328 827 OFFCURVE",
"351 827 CURVE SMOOTH",
"373 827 OFFCURVE",
"392 812 OFFCURVE",
"411 798 CURVE",
"429 782 OFFCURVE",
"449 767 OFFCURVE",
"477 767 CURVE SMOOTH",
"509 767 OFFCURVE",
"542 785 OFFCURVE",
"579 874 CURVE",
"583 890 OFFCURVE",
"558 900 OFFCURVE",
"554 897 CURVE",
"524 849 OFFCURVE",
"511 840 OFFCURVE",
"492 840 CURVE SMOOTH",
"470 840 OFFCURVE",
"449 856 OFFCURVE",
"431 870 CURVE SMOOTH",
"411 886 OFFCURVE",
"392 901 OFFCURVE",
"364 901 CURVE SMOOTH",
"331 901 OFFCURVE",
"291 885 OFFCURVE",
"254 795 CURVE",
"249 784 OFFCURVE",
"277 769 OFFCURVE",
"281 776 CURVE SMOOTH"
);
}
);
width = 840;
}
);
note = Otilde;
unicode = 00D5;
},
{
glyphname = Racute;
layers = (
{
layerId = "7A03799E-F594-4F0C-AED7-187FAD140615";
name = Regular;
paths = (
{
closed = 1;
nodes = (
"206 36 LINE",
"206 124 OFFCURVE",
"207 231 OFFCURVE",
"209 339 CURVE",
"226 333 OFFCURVE",
"243 330 OFFCURVE",
"257 328 CURVE",
"320 262 OFFCURVE",
"425 114 OFFCURVE",
"472 36 CURVE",
"422 36 LINE SMOOTH",
"417 36 OFFCURVE",
"414 27 OFFCURVE",
"414 18 CURVE SMOOTH",
"414 8 OFFCURVE",
"417 0 OFFCURVE",
"422 0 CURVE SMOOTH",
"643 0 LINE SMOOTH",
"650 0 OFFCURVE",
"652 8 OFFCURVE",
"652 18 CURVE SMOOTH",
"652 27 OFFCURVE",
"650 36 OFFCURVE",
"643 36 CURVE SMOOTH",
"606 36 LINE",
"538 132 OFFCURVE",
"448 258 OFFCURVE",
"376 334 CURVE",
"473 360 OFFCURVE",
"531 440 OFFCURVE",
"531 522 CURVE SMOOTH",
"531 614 OFFCURVE",
"463 700 OFFCURVE",
"299 700 CURVE SMOOTH",
"39 700 LINE SMOOTH",
"33 700 OFFCURVE",
"31 692 OFFCURVE",
"31 682 CURVE SMOOTH",
"31 672 OFFCURVE",
"33 664 OFFCURVE",
"39 664 CURVE SMOOTH",
"101 664 LINE",
"101 36 LINE",
"39 36 LINE SMOOTH",
"33 36 OFFCURVE",
"31 27 OFFCURVE",
"31 18 CURVE SMOOTH",
"31 8 OFFCURVE",
"33 0 OFFCURVE",
"39 0 CURVE SMOOTH",
"276 0 LINE SMOOTH",
"283 0 OFFCURVE",
"285 8 OFFCURVE",
"285 18 CURVE SMOOTH",
"285 27 OFFCURVE",
"283 36 OFFCURVE",
"276 36 CURVE SMOOTH"
);
},
{
closed = 1;
nodes = (
"364 647 OFFCURVE",
"421 585 OFFCURVE",
"421 501 CURVE SMOOTH",
"421 435 OFFCURVE",
"374 371 OFFCURVE",
"265 371 CURVE SMOOTH",
"248 371 OFFCURVE",
"229 373 OFFCURVE",
"209 378 CURVE",
"211 477 OFFCURVE",
"214 604 OFFCURVE",
"216 646 CURVE",
"224 647 OFFCURVE",
"234 647 OFFCURVE",
"251 647 CURVE SMOOTH"
);
},
{
closed = 1;
nodes = (
"382 863 LINE",
"391 874 OFFCURVE",
"395 884 OFFCURVE",
"395 893 CURVE SMOOTH",
"395 913 OFFCURVE",
"372 925 OFFCURVE",
"351 925 CURVE SMOOTH",
"332 925 OFFCURVE",
"312 917 OFFCURVE",
"304 901 CURVE",
"305 902 LINE",
"211 749 LINE",
"212 741 OFFCURVE",
"224 733 OFFCURVE",
"234 733 CURVE SMOOTH",
"240 733 OFFCURVE",
"244 736 OFFCURVE",
"247 739 CURVE"
);
}
);
width = 656;
}
);
note = Racute;
unicode = 0154;
},
{
glyphname = Rcaron;
layers = (
{
layerId = "7A03799E-F594-4F0C-AED7-187FAD140615";
name = Regular;
paths = (
{
closed = 1;
nodes = (
"206 36 LINE",
"206 124 OFFCURVE",
"207 231 OFFCURVE",
"209 339 CURVE",
"226 333 OFFCURVE",
"243 330 OFFCURVE",
"257 328 CURVE",
"320 262 OFFCURVE",
"425 114 OFFCURVE",
"472 36 CURVE",
"422 36 LINE SMOOTH",
"417 36 OFFCURVE",
"414 27 OFFCURVE",
"414 18 CURVE SMOOTH",
"414 8 OFFCURVE",
"417 0 OFFCURVE",
"422 0 CURVE SMOOTH",
"643 0 LINE SMOOTH",
"650 0 OFFCURVE",
"652 8 OFFCURVE",
"652 18 CURVE SMOOTH",
"652 27 OFFCURVE",
"650 36 OFFCURVE",
"643 36 CURVE SMOOTH",
"606 36 LINE",
"538 132 OFFCURVE",
"448 258 OFFCURVE",
"376 334 CURVE",
"473 360 OFFCURVE",
"531 440 OFFCURVE",
"531 522 CURVE SMOOTH",
"531 614 OFFCURVE",
"463 700 OFFCURVE",
"299 700 CURVE SMOOTH",
"39 700 LINE SMOOTH",
"33 700 OFFCURVE",
"31 692 OFFCURVE",
"31 682 CURVE SMOOTH",
"31 672 OFFCURVE",
"33 664 OFFCURVE",
"39 664 CURVE SMOOTH",
"101 664 LINE",
"101 36 LINE",
"39 36 LINE SMOOTH",
"33 36 OFFCURVE",
"31 27 OFFCURVE",
"31 18 CURVE SMOOTH",
"31 8 OFFCURVE",
"33 0 OFFCURVE",
"39 0 CURVE SMOOTH",
"276 0 LINE SMOOTH",
"283 0 OFFCURVE",
"285 8 OFFCURVE",
"285 18 CURVE SMOOTH",
"285 27 OFFCURVE",
"283 36 OFFCURVE",
"276 36 CURVE SMOOTH"
);
},
{
closed = 1;
nodes = (
"364 647 OFFCURVE",
"421 585 OFFCURVE",
"421 501 CURVE SMOOTH",
"421 435 OFFCURVE",
"374 371 OFFCURVE",
"265 371 CURVE SMOOTH",
"248 371 OFFCURVE",
"229 373 OFFCURVE",
"209 378 CURVE",
"211 477 OFFCURVE",
"214 604 OFFCURVE",
"216 646 CURVE",
"224 647 OFFCURVE",
"234 647 OFFCURVE",
"251 647 CURVE SMOOTH"
);
},
{
closed = 1;
nodes = (
"294 837 LINE",
"178 921 LINE",
"179 921 LINE",
"168 932 OFFCURVE",
"147 912 OFFCURVE",
"151 904 CURVE",
"257 761 LINE",
"257 762 LINE",
"265 746 OFFCURVE",
"279 741 OFFCURVE",
"293 741 CURVE SMOOTH",
"306 741 OFFCURVE",
"319 746 OFFCURVE",
"328 762 CURVE",
"328 761 LINE",
"434 904 LINE",
"439 912 OFFCURVE",
"418 931 OFFCURVE",
"408 921 CURVE",
"409 921 LINE"
);
}
);
width = 656;
}
);
note = Rcaron;
unicode = 0158;
},
{
glyphname = Rcommaaccent;
layers = (
{
layerId = "7A03799E-F594-4F0C-AED7-187FAD140615";
name = Regular;
paths = (
{
closed = 1;
nodes = (
"206 36 LINE",
"206 124 OFFCURVE",
"207 231 OFFCURVE",
"209 339 CURVE",
"226 333 OFFCURVE",
"243 330 OFFCURVE",
"257 328 CURVE",
"320 262 OFFCURVE",
"425 114 OFFCURVE",
"472 36 CURVE",
"422 36 LINE SMOOTH",
"417 36 OFFCURVE",
"414 27 OFFCURVE",
"414 18 CURVE SMOOTH",
"414 8 OFFCURVE",
"417 0 OFFCURVE",
"422 0 CURVE SMOOTH",
"643 0 LINE SMOOTH",
"650 0 OFFCURVE",
"652 8 OFFCURVE",
"652 18 CURVE SMOOTH",
"652 27 OFFCURVE",
"650 36 OFFCURVE",
"643 36 CURVE SMOOTH",
"606 36 LINE",
"538 132 OFFCURVE",
"448 258 OFFCURVE",
"376 334 CURVE",
"473 360 OFFCURVE",
"531 440 OFFCURVE",
"531 522 CURVE SMOOTH",
"531 614 OFFCURVE",
"463 700 OFFCURVE",
"299 700 CURVE SMOOTH",
"39 700 LINE SMOOTH",
"33 700 OFFCURVE",
"31 692 OFFCURVE",
"31 682 CURVE SMOOTH",
"31 672 OFFCURVE",
"33 664 OFFCURVE",
"39 664 CURVE SMOOTH",
"101 664 LINE",
"101 36 LINE",
"39 36 LINE SMOOTH",
"33 36 OFFCURVE",
"31 27 OFFCURVE",
"31 18 CURVE SMOOTH",
"31 8 OFFCURVE",
"33 0 OFFCURVE",
"39 0 CURVE SMOOTH",
"276 0 LINE SMOOTH",
"283 0 OFFCURVE",
"285 8 OFFCURVE",
"285 18 CURVE SMOOTH",
"285 27 OFFCURVE",
"283 36 OFFCURVE",
"276 36 CURVE SMOOTH"
);
},
{
closed = 1;
nodes = (
"364 647 OFFCURVE",
"421 585 OFFCURVE",
"421 501 CURVE SMOOTH",
"421 435 OFFCURVE",
"374 371 OFFCURVE",
"265 371 CURVE SMOOTH",
"248 371 OFFCURVE",
"229 373 OFFCURVE",
"209 378 CURVE",
"211 477 OFFCURVE",
"214 604 OFFCURVE",
"216 646 CURVE",
"224 647 OFFCURVE",
"234 647 OFFCURVE",
"251 647 CURVE SMOOTH"
);
},
{
closed = 1;
nodes = (
"293 -264 OFFCURVE",
"388 -242 OFFCURVE",
"388 -136 CURVE SMOOTH",
"388 -75 OFFCURVE",
"357 -57 OFFCURVE",
"317 -57 CURVE SMOOTH",
"286 -57 OFFCURVE",
"263 -76 OFFCURVE",
"263 -105 CURVE SMOOTH",
"263 -135 OFFCURVE",
"282 -153 OFFCURVE",
"312 -153 CURVE SMOOTH",
"325 -153 OFFCURVE",
"332 -159 OFFCURVE",
"332 -173 CURVE SMOOTH",
"332 -198 OFFCURVE",
"314 -222 OFFCURVE",
"268 -231 CURVE",
"264 -232 OFFCURVE",
"262 -235 OFFCURVE",
"262 -240 CURVE SMOOTH",
"262 -246 OFFCURVE",
"273 -264 OFFCURVE",
"282 -264 CURVE SMOOTH"
);
}
);
width = 656;
}
);
note = Rcommaaccent;
unicode = 0156;
},
{
glyphname = Sacute;
layers = (
{
layerId = "7A03799E-F594-4F0C-AED7-187FAD140615";
name = Regular;
paths = (
{
closed = 1;
nodes = (
"179 50 OFFCURVE",
"117 70 OFFCURVE",
"86 106 CURVE",
"77 155 LINE",
"76 162 OFFCURVE",
"68 165 OFFCURVE",
"59 165 CURVE SMOOTH",
"50 165 OFFCURVE",
"42 161 OFFCURVE",
"42 153 CURVE",
"49 114 OFFCURVE",
"51 65 OFFCURVE",
"51 10 CURVE",
"106 -2 OFFCURVE",
"174 -17 OFFCURVE",
"234 -17 CURVE SMOOTH",
"353 -17 OFFCURVE",
"466 50 OFFCURVE",
"466 180 CURVE SMOOTH",
"466 287 OFFCURVE",
"376 342 OFFCURVE",
"294 388 CURVE SMOOTH",
"225 428 OFFCURVE",
"156 469 OFFCURVE",
"156 538 CURVE SMOOTH",
"156 596 OFFCURVE",
"190 646 OFFCURVE",
"268 646 CURVE SMOOTH",
"313 646 OFFCURVE",
"355 629 OFFCURVE",
"385 593 CURVE",
"394 541 LINE",
"396 534 OFFCURVE",
"403 532 OFFCURVE",
"410 532 CURVE SMOOTH",
"419 532 OFFCURVE",
"429 536 OFFCURVE",
"429 543 CURVE",
"422 583 OFFCURVE",
"420 626 OFFCURVE",
"420 688 CURVE",
"370 702 OFFCURVE",
"323 714 OFFCURVE",
"269 714 CURVE SMOOTH",
"152 714 OFFCURVE",
"58 635 OFFCURVE",
"58 515 CURVE SMOOTH",
"58 394 OFFCURVE",
"154 340 OFFCURVE",
"237 295 CURVE SMOOTH",
"300 260 OFFCURVE",
"364 224 OFFCURVE",
"364 161 CURVE SMOOTH",
"364 86 OFFCURVE",
"300 50 OFFCURVE",
"232 50 CURVE SMOOTH"
);
},
{
closed = 1;
nodes = (
"356 863 LINE",
"365 874 OFFCURVE",
"369 884 OFFCURVE",
"369 893 CURVE SMOOTH",
"369 913 OFFCURVE",
"346 925 OFFCURVE",
"325 925 CURVE SMOOTH",
"306 925 OFFCURVE",
"286 917 OFFCURVE",
"278 901 CURVE",
"279 902 LINE",
"185 749 LINE",
"186 741 OFFCURVE",
"198 733 OFFCURVE",
"208 733 CURVE SMOOTH",
"214 733 OFFCURVE",
"218 736 OFFCURVE",
"221 739 CURVE"
);
}
);
width = 509;
}
);
note = Sacute;
unicode = 015A;
},
{
glyphname = Scaron;
layers = (
{
layerId = "7A03799E-F594-4F0C-AED7-187FAD140615";
name = Regular;
paths = (
{
closed = 1;
nodes = (
"179 50 OFFCURVE",
"117 70 OFFCURVE",
"86 106 CURVE",
"77 155 LINE",
"76 162 OFFCURVE",
"68 165 OFFCURVE",
"59 165 CURVE SMOOTH",
"50 165 OFFCURVE",
"42 161 OFFCURVE",
"42 153 CURVE",
"49 114 OFFCURVE",
"51 65 OFFCURVE",
"51 10 CURVE",
"106 -2 OFFCURVE",
"174 -17 OFFCURVE",
"234 -17 CURVE SMOOTH",
"353 -17 OFFCURVE",
"466 50 OFFCURVE",
"466 180 CURVE SMOOTH",
"466 287 OFFCURVE",
"376 342 OFFCURVE",
"294 388 CURVE SMOOTH",
"225 428 OFFCURVE",
"156 469 OFFCURVE",
"156 538 CURVE SMOOTH",
"156 596 OFFCURVE",
"190 646 OFFCURVE",
"268 646 CURVE SMOOTH",
"313 646 OFFCURVE",
"355 629 OFFCURVE",
"385 593 CURVE",
"394 541 LINE",
"396 534 OFFCURVE",
"403 532 OFFCURVE",
"410 532 CURVE SMOOTH",
"419 532 OFFCURVE",
"429 536 OFFCURVE",
"429 543 CURVE",
"422 583 OFFCURVE",
"420 626 OFFCURVE",
"420 688 CURVE",
"370 702 OFFCURVE",
"323 714 OFFCURVE",
"269 714 CURVE SMOOTH",
"152 714 OFFCURVE",
"58 635 OFFCURVE",
"58 515 CURVE SMOOTH",
"58 394 OFFCURVE",
"154 340 OFFCURVE",
"237 295 CURVE SMOOTH",
"300 260 OFFCURVE",
"364 224 OFFCURVE",
"364 161 CURVE SMOOTH",
"364 86 OFFCURVE",
"300 50 OFFCURVE",
"232 50 CURVE SMOOTH"
);
},
{
closed = 1;
nodes = (
"265 837 LINE",
"149 921 LINE",
"150 921 LINE",
"139 932 OFFCURVE",
"118 912 OFFCURVE",
"122 904 CURVE",
"228 761 LINE",
"228 762 LINE",
"236 746 OFFCURVE",
"250 741 OFFCURVE",
"264 741 CURVE SMOOTH",
"277 741 OFFCURVE",
"290 746 OFFCURVE",
"299 762 CURVE",
"299 761 LINE",
"405 904 LINE",
"410 912 OFFCURVE",
"389 931 OFFCURVE",
"379 921 CURVE",
"380 921 LINE"
);
}
);
width = 509;
}
);
note = Scaron;
unicode = 0160;
},
{
glyphname = Scedilla;
layers = (
{
layerId = "7A03799E-F594-4F0C-AED7-187FAD140615";
name = Regular;
paths = (
{
closed = 1;
nodes = (
"179 50 OFFCURVE",
"117 70 OFFCURVE",
"86 106 CURVE",
"77 155 LINE",
"76 162 OFFCURVE",
"68 165 OFFCURVE",
"59 165 CURVE SMOOTH",
"50 165 OFFCURVE",
"42 161 OFFCURVE",
"42 153 CURVE",
"49 114 OFFCURVE",
"51 65 OFFCURVE",
"51 10 CURVE",
"105 -1 OFFCURVE",
"171 -16 OFFCURVE",
"230 -17 CURVE",
"204 -34 OFFCURVE",
"181 -58 OFFCURVE",
"181 -77 CURVE SMOOTH",
"181 -99 OFFCURVE",
"206 -105 OFFCURVE",
"232 -113 CURVE SMOOTH",
"260 -121 OFFCURVE",
"293 -129 OFFCURVE",
"293 -161 CURVE SMOOTH",
"293 -192 OFFCURVE",
"265 -198 OFFCURVE",
"237 -198 CURVE SMOOTH",
"212 -198 OFFCURVE",
"182 -191 OFFCURVE",
"160 -174 CURVE SMOOTH",
"151 -167 OFFCURVE",
"138 -178 OFFCURVE",
"138 -187 CURVE SMOOTH",
"138 -189 OFFCURVE",
"139 -190 OFFCURVE",
"140 -192 CURVE",
"166 -226 OFFCURVE",
"212 -240 OFFCURVE",
"252 -240 CURVE SMOOTH",
"308 -240 OFFCURVE",
"363 -216 OFFCURVE",
"363 -154 CURVE SMOOTH",
"363 -88 OFFCURVE",
"308 -74 OFFCURVE",
"272 -65 CURVE SMOOTH",
"258 -62 OFFCURVE",
"247 -59 OFFCURVE",
"247 -55 CURVE SMOOTH",
"247 -43 OFFCURVE",
"271 -24 OFFCURVE",
"291 -11 CURVE",
"387 6 OFFCURVE",
"466 71 OFFCURVE",
"466 180 CURVE SMOOTH",
"466 287 OFFCURVE",
"376 342 OFFCURVE",
"294 388 CURVE SMOOTH",
"225 428 OFFCURVE",
"156 469 OFFCURVE",
"156 538 CURVE SMOOTH",
"156 596 OFFCURVE",
"190 646 OFFCURVE",
"268 646 CURVE SMOOTH",
"313 646 OFFCURVE",
"355 629 OFFCURVE",
"385 593 CURVE",
"394 541 LINE",
"396 534 OFFCURVE",
"403 532 OFFCURVE",
"410 532 CURVE SMOOTH",
"419 532 OFFCURVE",
"429 536 OFFCURVE",
"429 543 CURVE",
"422 583 OFFCURVE",
"420 626 OFFCURVE",
"420 688 CURVE",
"370 702 OFFCURVE",
"323 714 OFFCURVE",
"269 714 CURVE SMOOTH",
"152 714 OFFCURVE",
"58 635 OFFCURVE",
"58 515 CURVE SMOOTH",
"58 394 OFFCURVE",
"154 340 OFFCURVE",
"237 295 CURVE SMOOTH",
"300 260 OFFCURVE",
"364 224 OFFCURVE",
"364 161 CURVE SMOOTH",
"364 86 OFFCURVE",
"300 50 OFFCURVE",
"232 50 CURVE SMOOTH"
);
}
);
width = 509;
}
);
note = Scedilla;
unicode = 015E;
},
{
glyphname = Scircumflex;
layers = (
{
layerId = "7A03799E-F594-4F0C-AED7-187FAD140615";
name = Regular;
paths = (
{
closed = 1;
nodes = (
"179 50 OFFCURVE",
"117 70 OFFCURVE",
"86 106 CURVE",
"77 155 LINE",
"76 162 OFFCURVE",
"68 165 OFFCURVE",
"59 165 CURVE SMOOTH",
"50 165 OFFCURVE",
"42 161 OFFCURVE",
"42 153 CURVE",
"49 114 OFFCURVE",
"51 65 OFFCURVE",
"51 10 CURVE",
"106 -2 OFFCURVE",
"174 -17 OFFCURVE",
"234 -17 CURVE SMOOTH",
"353 -17 OFFCURVE",
"466 50 OFFCURVE",
"466 180 CURVE SMOOTH",
"466 287 OFFCURVE",
"376 342 OFFCURVE",
"294 388 CURVE SMOOTH",
"225 428 OFFCURVE",
"156 469 OFFCURVE",
"156 538 CURVE SMOOTH",
"156 596 OFFCURVE",
"190 646 OFFCURVE",
"268 646 CURVE SMOOTH",
"313 646 OFFCURVE",
"355 629 OFFCURVE",
"385 593 CURVE",
"394 541 LINE",
"396 534 OFFCURVE",
"403 532 OFFCURVE",
"410 532 CURVE SMOOTH",
"419 532 OFFCURVE",
"429 536 OFFCURVE",
"429 543 CURVE",
"422 583 OFFCURVE",
"420 626 OFFCURVE",
"420 688 CURVE",
"370 702 OFFCURVE",
"323 714 OFFCURVE",
"269 714 CURVE SMOOTH",
"152 714 OFFCURVE",
"58 635 OFFCURVE",
"58 515 CURVE SMOOTH",
"58 394 OFFCURVE",
"154 340 OFFCURVE",
"237 295 CURVE SMOOTH",
"300 260 OFFCURVE",
"364 224 OFFCURVE",
"364 161 CURVE SMOOTH",
"364 86 OFFCURVE",
"300 50 OFFCURVE",
"232 50 CURVE SMOOTH"
);
},
{
closed = 1;
nodes = (
"271 825 LINE",
"388 740 LINE",
"387 740 LINE",
"398 729 OFFCURVE",
"419 749 OFFCURVE",
"415 758 CURVE",
"309 901 LINE",
"309 900 LINE",
"300 916 OFFCURVE",
"286 921 OFFCURVE",
"272 921 CURVE SMOOTH",
"260 921 OFFCURVE",
"246 916 OFFCURVE",
"237 900 CURVE",
"237 901 LINE",
"131 758 LINE",
"126 749 OFFCURVE",
"146 730 OFFCURVE",
"156 740 CURVE",
"155 740 LINE"
);
}
);
width = 509;
}
);
note = Scircumflex;
unicode = 015C;
},
{
glyphname = Scommaaccent;
layers = (
{
layerId = "7A03799E-F594-4F0C-AED7-187FAD140615";
name = Regular;
paths = (
{
closed = 1;
nodes = (
"179 50 OFFCURVE",
"117 70 OFFCURVE",
"86 106 CURVE",
"77 155 LINE",
"76 162 OFFCURVE",
"68 165 OFFCURVE",
"59 165 CURVE SMOOTH",
"50 165 OFFCURVE",
"42 161 OFFCURVE",
"42 153 CURVE",
"49 114 OFFCURVE",
"51 65 OFFCURVE",
"51 10 CURVE",
"106 -2 OFFCURVE",
"174 -17 OFFCURVE",
"234 -17 CURVE SMOOTH",
"353 -17 OFFCURVE",
"466 50 OFFCURVE",
"466 180 CURVE SMOOTH",
"466 287 OFFCURVE",
"376 342 OFFCURVE",
"294 388 CURVE SMOOTH",
"225 428 OFFCURVE",
"156 469 OFFCURVE",
"156 538 CURVE SMOOTH",
"156 596 OFFCURVE",
"190 646 OFFCURVE",
"268 646 CURVE SMOOTH",
"313 646 OFFCURVE",
"355 629 OFFCURVE",
"385 593 CURVE",
"394 541 LINE",
"396 534 OFFCURVE",
"403 532 OFFCURVE",
"410 532 CURVE SMOOTH",
"419 532 OFFCURVE",
"429 536 OFFCURVE",
"429 543 CURVE",
"422 583 OFFCURVE",
"420 626 OFFCURVE",
"420 688 CURVE",
"370 702 OFFCURVE",
"323 714 OFFCURVE",
"269 714 CURVE SMOOTH",
"152 714 OFFCURVE",
"58 635 OFFCURVE",
"58 515 CURVE SMOOTH",
"58 394 OFFCURVE",
"154 340 OFFCURVE",
"237 295 CURVE SMOOTH",
"300 260 OFFCURVE",
"364 224 OFFCURVE",
"364 161 CURVE SMOOTH",
"364 86 OFFCURVE",
"300 50 OFFCURVE",
"232 50 CURVE SMOOTH"
);
},
{
closed = 1;
nodes = (
"216 -264 OFFCURVE",
"311 -242 OFFCURVE",
"311 -136 CURVE SMOOTH",
"311 -75 OFFCURVE",
"280 -57 OFFCURVE",
"240 -57 CURVE SMOOTH",
"209 -57 OFFCURVE",
"186 -76 OFFCURVE",
"186 -105 CURVE SMOOTH",
"186 -135 OFFCURVE",
"205 -153 OFFCURVE",
"235 -153 CURVE SMOOTH",
"248 -153 OFFCURVE",
"255 -159 OFFCURVE",
"255 -173 CURVE SMOOTH",
"255 -198 OFFCURVE",
"237 -222 OFFCURVE",
"191 -231 CURVE",
"187 -232 OFFCURVE",
"185 -235 OFFCURVE",
"185 -240 CURVE SMOOTH",
"185 -246 OFFCURVE",
"196 -264 OFFCURVE",
"205 -264 CURVE SMOOTH"
);
}
);
width = 509;
}
);
note = Scommaaccent;
unicode = 0218;
},
{
glyphname = Tbar;
layers = (
{
layerId = "7A03799E-F594-4F0C-AED7-187FAD140615";
name = Regular;
paths = (
{
closed = 1;
nodes = (
"417 638 OFFCURVE",
"465 634 OFFCURVE",
"517 620 CURVE",
"534 548 LINE",
"535 541 OFFCURVE",
"542 538 OFFCURVE",
"549 538 CURVE SMOOTH",
"557 538 OFFCURVE",
"567 544 OFFCURVE",
"567 550 CURVE",
"560 594 OFFCURVE",
"558 646 OFFCURVE",
"558 700 CURVE",
"-7 700 LINE",
"-7 646 OFFCURVE",
"-9 594 OFFCURVE",
"-16 550 CURVE",
"-16 544 OFFCURVE",
"-6 538 OFFCURVE",
"2 538 CURVE SMOOTH",
"7 538 OFFCURVE",
"14 543 OFFCURVE",
"17 548 CURVE",
"35 620 LINE",
"86 634 OFFCURVE",
"134 638 OFFCURVE",
"220 638 CURVE",
"220 36 LINE",
"159 36 LINE SMOOTH",
"152 36 OFFCURVE",
"150 27 OFFCURVE",
"150 18 CURVE SMOOTH",
"150 8 OFFCURVE",
"152 0 OFFCURVE",
"159 0 CURVE SMOOTH",
"385 0 LINE SMOOTH",
"392 0 OFFCURVE",
"394 8 OFFCURVE",
"394 18 CURVE SMOOTH",
"394 27 OFFCURVE",
"392 36 OFFCURVE",
"385 36 CURVE SMOOTH",
"325 36 LINE",
"325 223 OFFCURVE",
"328 521 OFFCURVE",
"336 638 CURVE"
);
},
{
closed = 1;
nodes = (
"140 823 LINE",
"140 767 LINE",
"408 767 LINE",
"408 823 LINE"
);
}
);
width = 559;
}
);
note = Tbar;
unicode = 0166;
},
{
glyphname = Tcaron;
layers = (
{
layerId = "7A03799E-F594-4F0C-AED7-187FAD140615";
name = Regular;
paths = (
{
closed = 1;
nodes = (
"417 638 OFFCURVE",
"465 634 OFFCURVE",
"517 620 CURVE",
"534 548 LINE",
"535 541 OFFCURVE",
"542 538 OFFCURVE",
"549 538 CURVE SMOOTH",
"557 538 OFFCURVE",
"567 544 OFFCURVE",
"567 550 CURVE",
"560 594 OFFCURVE",
"558 646 OFFCURVE",
"558 700 CURVE",
"-7 700 LINE",
"-7 646 OFFCURVE",
"-9 594 OFFCURVE",
"-16 550 CURVE",
"-16 544 OFFCURVE",
"-6 538 OFFCURVE",
"2 538 CURVE SMOOTH",
"7 538 OFFCURVE",
"14 543 OFFCURVE",
"17 548 CURVE",
"35 620 LINE",
"86 634 OFFCURVE",
"134 638 OFFCURVE",
"220 638 CURVE",
"220 36 LINE",
"159 36 LINE SMOOTH",
"152 36 OFFCURVE",
"150 27 OFFCURVE",
"150 18 CURVE SMOOTH",
"150 8 OFFCURVE",
"152 0 OFFCURVE",
"159 0 CURVE SMOOTH",
"385 0 LINE SMOOTH",
"392 0 OFFCURVE",
"394 8 OFFCURVE",
"394 18 CURVE SMOOTH",
"394 27 OFFCURVE",
"392 36 OFFCURVE",
"385 36 CURVE SMOOTH",
"325 36 LINE",
"325 223 OFFCURVE",
"328 521 OFFCURVE",
"336 638 CURVE"
);
},
{
closed = 1;
nodes = (
"276 837 LINE",
"160 921 LINE",
"161 921 LINE",
"150 932 OFFCURVE",
"129 912 OFFCURVE",
"133 904 CURVE",
"239 761 LINE",
"239 762 LINE",
"247 746 OFFCURVE",
"261 741 OFFCURVE",
"275 741 CURVE SMOOTH",
"288 741 OFFCURVE",
"301 746 OFFCURVE",
"310 762 CURVE",
"310 761 LINE",
"416 904 LINE",
"421 912 OFFCURVE",
"400 931 OFFCURVE",
"390 921 CURVE",
"391 921 LINE"
);
}
);
width = 559;
}
);
note = Tcaron;
unicode = 0164;
},
{
glyphname = Tcommaaccent;
layers = (
{
layerId = "7A03799E-F594-4F0C-AED7-187FAD140615";
name = Regular;
paths = (
{
closed = 1;
nodes = (
"417 638 OFFCURVE",
"465 634 OFFCURVE",
"517 620 CURVE",
"534 548 LINE",
"535 541 OFFCURVE",
"542 538 OFFCURVE",
"549 538 CURVE SMOOTH",
"557 538 OFFCURVE",
"567 544 OFFCURVE",
"567 550 CURVE",
"560 594 OFFCURVE",
"558 646 OFFCURVE",
"558 700 CURVE",
"-7 700 LINE",
"-7 646 OFFCURVE",
"-9 594 OFFCURVE",
"-16 550 CURVE",
"-16 544 OFFCURVE",
"-6 538 OFFCURVE",
"2 538 CURVE SMOOTH",
"7 538 OFFCURVE",
"14 543 OFFCURVE",
"17 548 CURVE",
"35 620 LINE",
"86 634 OFFCURVE",
"134 638 OFFCURVE",
"220 638 CURVE",
"220 36 LINE",
"159 36 LINE SMOOTH",
"152 36 OFFCURVE",
"150 27 OFFCURVE",
"150 18 CURVE SMOOTH",
"150 8 OFFCURVE",
"152 0 OFFCURVE",
"159 0 CURVE SMOOTH",
"385 0 LINE SMOOTH",
"392 0 OFFCURVE",
"394 8 OFFCURVE",
"394 18 CURVE SMOOTH",
"394 27 OFFCURVE",
"392 36 OFFCURVE",
"385 36 CURVE SMOOTH",
"325 36 LINE",
"325 223 OFFCURVE",
"328 521 OFFCURVE",
"336 638 CURVE"
);
},
{
closed = 1;
nodes = (
"240 -264 OFFCURVE",
"335 -242 OFFCURVE",
"335 -136 CURVE SMOOTH",
"335 -75 OFFCURVE",
"304 -57 OFFCURVE",
"264 -57 CURVE SMOOTH",
"233 -57 OFFCURVE",
"210 -76 OFFCURVE",
"210 -105 CURVE SMOOTH",
"210 -135 OFFCURVE",
"229 -153 OFFCURVE",
"259 -153 CURVE SMOOTH",
"272 -153 OFFCURVE",
"279 -159 OFFCURVE",
"279 -173 CURVE SMOOTH",
"279 -198 OFFCURVE",
"261 -222 OFFCURVE",
"215 -231 CURVE",
"211 -232 OFFCURVE",
"209 -235 OFFCURVE",
"209 -240 CURVE SMOOTH",
"209 -246 OFFCURVE",
"220 -264 OFFCURVE",
"229 -264 CURVE SMOOTH"
);
}
);
width = 559;
}
);
note = Tcommaaccent;
unicode = 0162;
},
{
glyphname = Uacute;
layers = (
{
layerId = "7A03799E-F594-4F0C-AED7-187FAD140615";
name = Regular;
paths = (
{
closed = 1;
nodes = (
"570 664 LINE",
"570 302 LINE SMOOTH",
"570 141 OFFCURVE",
"501 70 OFFCURVE",
"396 70 CURVE SMOOTH",
"292 70 OFFCURVE",
"205 133 OFFCURVE",
"205 281 CURVE SMOOTH",
"205 664 LINE",
"266 664 LINE SMOOTH",
"273 664 OFFCURVE",
"275 672 OFFCURVE",
"275 682 CURVE SMOOTH",
"275 692 OFFCURVE",
"273 700 OFFCURVE",
"266 700 CURVE SMOOTH",
"39 700 LINE SMOOTH",
"33 700 OFFCURVE",
"31 692 OFFCURVE",
"31 682 CURVE SMOOTH",
"31 672 OFFCURVE",
"33 664 OFFCURVE",
"39 664 CURVE SMOOTH",
"89 664 LINE",
"91 634 OFFCURVE",
"99 358 OFFCURVE",
"99 251 CURVE SMOOTH",
"99 71 OFFCURVE",
"227 -17 OFFCURVE",
"367 -17 CURVE SMOOTH",
"509 -17 OFFCURVE",
"647 75 OFFCURVE",
"647 266 CURVE SMOOTH",
"647 357 OFFCURVE",
"649 586 OFFCURVE",
"651 664 CURVE",
"700 664 LINE SMOOTH",
"707 664 OFFCURVE",
"709 672 OFFCURVE",
"709 682 CURVE SMOOTH",
"709 692 OFFCURVE",
"707 700 OFFCURVE",
"700 700 CURVE SMOOTH",
"509 700 LINE SMOOTH",
"502 700 OFFCURVE",
"500 692 OFFCURVE",
"500 682 CURVE SMOOTH",
"500 672 OFFCURVE",
"502 664 OFFCURVE",
"509 664 CURVE SMOOTH"
);
},
{
closed = 1;
nodes = (
"490 863 LINE",
"499 874 OFFCURVE",
"503 884 OFFCURVE",
"503 893 CURVE SMOOTH",
"503 913 OFFCURVE",
"480 925 OFFCURVE",
"459 925 CURVE SMOOTH",
"440 925 OFFCURVE",
"420 917 OFFCURVE",
"412 901 CURVE",
"413 902 LINE",
"319 749 LINE",
"320 741 OFFCURVE",
"332 733 OFFCURVE",
"342 733 CURVE SMOOTH",
"348 733 OFFCURVE",
"352 736 OFFCURVE",
"355 739 CURVE"
);
}
);
width = 750;
}
);
note = Uacute;
unicode = 00DA;
},
{
glyphname = Ubreve;
layers = (
{
layerId = "7A03799E-F594-4F0C-AED7-187FAD140615";
name = Regular;
paths = (
{
closed = 1;
nodes = (
"570 664 LINE",
"570 302 LINE SMOOTH",
"570 141 OFFCURVE",
"501 70 OFFCURVE",
"396 70 CURVE SMOOTH",
"292 70 OFFCURVE",
"205 133 OFFCURVE",
"205 281 CURVE SMOOTH",
"205 664 LINE",
"266 664 LINE SMOOTH",
"273 664 OFFCURVE",
"275 672 OFFCURVE",
"275 682 CURVE SMOOTH",
"275 692 OFFCURVE",
"273 700 OFFCURVE",
"266 700 CURVE SMOOTH",
"39 700 LINE SMOOTH",
"33 700 OFFCURVE",
"31 692 OFFCURVE",
"31 682 CURVE SMOOTH",
"31 672 OFFCURVE",
"33 664 OFFCURVE",
"39 664 CURVE SMOOTH",
"89 664 LINE",
"91 634 OFFCURVE",
"99 358 OFFCURVE",
"99 251 CURVE SMOOTH",
"99 71 OFFCURVE",
"227 -17 OFFCURVE",
"367 -17 CURVE SMOOTH",
"509 -17 OFFCURVE",
"647 75 OFFCURVE",
"647 266 CURVE SMOOTH",
"647 357 OFFCURVE",
"649 586 OFFCURVE",
"651 664 CURVE",
"700 664 LINE SMOOTH",
"707 664 OFFCURVE",
"709 672 OFFCURVE",
"709 682 CURVE SMOOTH",
"709 692 OFFCURVE",
"707 700 OFFCURVE",
"700 700 CURVE SMOOTH",
"509 700 LINE SMOOTH",
"502 700 OFFCURVE",
"500 692 OFFCURVE",
"500 682 CURVE SMOOTH",
"500 672 OFFCURVE",
"502 664 OFFCURVE",
"509 664 CURVE SMOOTH"
);
},
{
closed = 1;
nodes = (
"504 885 OFFCURVE",
"500 890 OFFCURVE",
"485 890 CURVE SMOOTH",
"475 890 OFFCURVE",
"467 888 OFFCURVE",
"467 881 CURVE SMOOTH",
"467 840 OFFCURVE",
"431 817 OFFCURVE",
"382 817 CURVE SMOOTH",
"331 817 OFFCURVE",
"295 840 OFFCURVE",
"295 881 CURVE SMOOTH",
"295 888 OFFCURVE",
"288 890 OFFCURVE",
"278 890 CURVE SMOOTH",
"263 890 OFFCURVE",
"259 885 OFFCURVE",
"259 877 CURVE SMOOTH",
"259 800 OFFCURVE",
"305 750 OFFCURVE",
"382 750 CURVE SMOOTH",
"459 750 OFFCURVE",
"504 800 OFFCURVE",
"504 877 CURVE SMOOTH"
);
}
);
width = 750;
}
);
note = Ubreve;
unicode = 016C;
},
{
glyphname = Ucircumflex;
layers = (
{
layerId = "7A03799E-F594-4F0C-AED7-187FAD140615";
name = Regular;
paths = (
{
closed = 1;
nodes = (
"570 664 LINE",
"570 302 LINE SMOOTH",
"570 141 OFFCURVE",
"501 70 OFFCURVE",
"396 70 CURVE SMOOTH",
"292 70 OFFCURVE",
"205 133 OFFCURVE",
"205 281 CURVE SMOOTH",
"205 664 LINE",
"266 664 LINE SMOOTH",
"273 664 OFFCURVE",
"275 672 OFFCURVE",
"275 682 CURVE SMOOTH",
"275 692 OFFCURVE",
"273 700 OFFCURVE",
"266 700 CURVE SMOOTH",
"39 700 LINE SMOOTH",
"33 700 OFFCURVE",
"31 692 OFFCURVE",
"31 682 CURVE SMOOTH",
"31 672 OFFCURVE",
"33 664 OFFCURVE",
"39 664 CURVE SMOOTH",
"89 664 LINE",
"91 634 OFFCURVE",
"99 358 OFFCURVE",
"99 251 CURVE SMOOTH",
"99 71 OFFCURVE",
"227 -17 OFFCURVE",
"367 -17 CURVE SMOOTH",
"509 -17 OFFCURVE",
"647 75 OFFCURVE",
"647 266 CURVE SMOOTH",
"647 357 OFFCURVE",
"649 586 OFFCURVE",
"651 664 CURVE",
"700 664 LINE SMOOTH",
"707 664 OFFCURVE",
"709 672 OFFCURVE",
"709 682 CURVE SMOOTH",
"709 692 OFFCURVE",
"707 700 OFFCURVE",
"700 700 CURVE SMOOTH",
"509 700 LINE SMOOTH",
"502 700 OFFCURVE",
"500 692 OFFCURVE",
"500 682 CURVE SMOOTH",
"500 672 OFFCURVE",
"502 664 OFFCURVE",
"509 664 CURVE SMOOTH"
);
},
{
closed = 1;
nodes = (
"380 825 LINE",
"497 740 LINE",
"496 740 LINE",
"507 729 OFFCURVE",
"528 749 OFFCURVE",
"524 758 CURVE",
"418 901 LINE",
"418 900 LINE",
"409 916 OFFCURVE",
"395 921 OFFCURVE",
"381 921 CURVE SMOOTH",
"369 921 OFFCURVE",
"355 916 OFFCURVE",
"346 900 CURVE",
"346 901 LINE",
"240 758 LINE",
"235 749 OFFCURVE",
"255 730 OFFCURVE",
"265 740 CURVE",
"264 740 LINE"
);
}
);
width = 750;
}
);
note = Ucircumflex;
unicode = 00DB;
},
{
glyphname = Udieresis;
layers = (
{
layerId = "7A03799E-F594-4F0C-AED7-187FAD140615";
name = Regular;
paths = (
{
closed = 1;
nodes = (
"570 664 LINE",
"570 302 LINE SMOOTH",
"570 141 OFFCURVE",
"501 70 OFFCURVE",
"396 70 CURVE SMOOTH",
"292 70 OFFCURVE",
"205 133 OFFCURVE",
"205 281 CURVE SMOOTH",
"205 664 LINE",
"266 664 LINE SMOOTH",
"273 664 OFFCURVE",
"275 672 OFFCURVE",
"275 682 CURVE SMOOTH",
"275 692 OFFCURVE",
"273 700 OFFCURVE",
"266 700 CURVE SMOOTH",
"39 700 LINE SMOOTH",
"33 700 OFFCURVE",
"31 692 OFFCURVE",
"31 682 CURVE SMOOTH",
"31 672 OFFCURVE",
"33 664 OFFCURVE",
"39 664 CURVE SMOOTH",
"89 664 LINE",
"91 634 OFFCURVE",
"99 358 OFFCURVE",
"99 251 CURVE SMOOTH",
"99 71 OFFCURVE",
"227 -17 OFFCURVE",
"367 -17 CURVE SMOOTH",
"509 -17 OFFCURVE",
"647 75 OFFCURVE",
"647 266 CURVE SMOOTH",
"647 357 OFFCURVE",
"649 586 OFFCURVE",
"651 664 CURVE",
"700 664 LINE SMOOTH",
"707 664 OFFCURVE",
"709 672 OFFCURVE",
"709 682 CURVE SMOOTH",
"709 692 OFFCURVE",
"707 700 OFFCURVE",
"700 700 CURVE SMOOTH",
"509 700 LINE SMOOTH",
"502 700 OFFCURVE",
"500 692 OFFCURVE",
"500 682 CURVE SMOOTH",
"500 672 OFFCURVE",
"502 664 OFFCURVE",
"509 664 CURVE SMOOTH"
);
},
{
closed = 1;
nodes = (
"260 852 OFFCURVE",
"237 830 OFFCURVE",
"237 799 CURVE SMOOTH",
"237 767 OFFCURVE",
"260 746 OFFCURVE",
"288 746 CURVE SMOOTH",
"317 746 OFFCURVE",
"339 767 OFFCURVE",
"339 799 CURVE SMOOTH",
"339 830 OFFCURVE",
"317 852 OFFCURVE",
"288 852 CURVE SMOOTH"
);
},
{
closed = 1;
nodes = (
"445 852 OFFCURVE",
"423 830 OFFCURVE",
"423 799 CURVE SMOOTH",
"423 767 OFFCURVE",
"445 746 OFFCURVE",
"474 746 CURVE SMOOTH",
"502 746 OFFCURVE",
"524 767 OFFCURVE",
"524 799 CURVE SMOOTH",
"524 830 OFFCURVE",
"502 852 OFFCURVE",
"474 852 CURVE SMOOTH"
);
}
);
width = 750;
}
);
note = Udieresis;
unicode = 00DC;
},
{
glyphname = Ugrave;
layers = (
{
layerId = "7A03799E-F594-4F0C-AED7-187FAD140615";
name = Regular;
paths = (
{
closed = 1;
nodes = (
"570 664 LINE",
"570 302 LINE SMOOTH",
"570 141 OFFCURVE",
"501 70 OFFCURVE",
"396 70 CURVE SMOOTH",
"292 70 OFFCURVE",
"205 133 OFFCURVE",
"205 281 CURVE SMOOTH",
"205 664 LINE",
"266 664 LINE SMOOTH",
"273 664 OFFCURVE",
"275 672 OFFCURVE",
"275 682 CURVE SMOOTH",
"275 692 OFFCURVE",
"273 700 OFFCURVE",
"266 700 CURVE SMOOTH",
"39 700 LINE SMOOTH",
"33 700 OFFCURVE",
"31 692 OFFCURVE",
"31 682 CURVE SMOOTH",
"31 672 OFFCURVE",
"33 664 OFFCURVE",
"39 664 CURVE SMOOTH",
"89 664 LINE",
"91 634 OFFCURVE",
"99 358 OFFCURVE",
"99 251 CURVE SMOOTH",
"99 71 OFFCURVE",
"227 -17 OFFCURVE",
"367 -17 CURVE SMOOTH",
"509 -17 OFFCURVE",
"647 75 OFFCURVE",
"647 266 CURVE SMOOTH",
"647 357 OFFCURVE",
"649 586 OFFCURVE",
"651 664 CURVE",
"700 664 LINE SMOOTH",
"707 664 OFFCURVE",
"709 672 OFFCURVE",
"709 682 CURVE SMOOTH",
"709 692 OFFCURVE",
"707 700 OFFCURVE",
"700 700 CURVE SMOOTH",
"509 700 LINE SMOOTH",
"502 700 OFFCURVE",
"500 692 OFFCURVE",
"500 682 CURVE SMOOTH",
"500 672 OFFCURVE",
"502 664 OFFCURVE",
"509 664 CURVE SMOOTH"
);
},
{
closed = 1;
nodes = (
"429 739 LINE",
"432 736 OFFCURVE",
"436 733 OFFCURVE",
"442 733 CURVE SMOOTH",
"452 733 OFFCURVE",
"463 741 OFFCURVE",
"465 749 CURVE",
"371 902 LINE",
"372 901 LINE",
"364 917 OFFCURVE",
"344 925 OFFCURVE",
"326 925 CURVE SMOOTH",
"303 925 OFFCURVE",
"281 913 OFFCURVE",
"281 893 CURVE SMOOTH",
"281 884 OFFCURVE",
"285 874 OFFCURVE",
"294 863 CURVE"
);
}
);
width = 750;
}
);
note = Ugrave;
unicode = 00D9;
},
{
glyphname = Uhungarumlaut;
layers = (
{
layerId = "7A03799E-F594-4F0C-AED7-187FAD140615";
name = Regular;
paths = (
{
closed = 1;
nodes = (
"570 664 LINE",
"570 302 LINE SMOOTH",
"570 141 OFFCURVE",
"501 70 OFFCURVE",
"396 70 CURVE SMOOTH",
"292 70 OFFCURVE",
"205 133 OFFCURVE",
"205 281 CURVE SMOOTH",
"205 664 LINE",
"266 664 LINE SMOOTH",
"273 664 OFFCURVE",
"275 672 OFFCURVE",
"275 682 CURVE SMOOTH",
"275 692 OFFCURVE",
"273 700 OFFCURVE",
"266 700 CURVE SMOOTH",
"39 700 LINE SMOOTH",
"33 700 OFFCURVE",
"31 692 OFFCURVE",
"31 682 CURVE SMOOTH",
"31 672 OFFCURVE",
"33 664 OFFCURVE",
"39 664 CURVE SMOOTH",
"89 664 LINE",
"91 634 OFFCURVE",
"99 358 OFFCURVE",
"99 251 CURVE SMOOTH",
"99 71 OFFCURVE",
"227 -17 OFFCURVE",
"367 -17 CURVE SMOOTH",
"509 -17 OFFCURVE",
"647 75 OFFCURVE",
"647 266 CURVE SMOOTH",
"647 357 OFFCURVE",
"649 586 OFFCURVE",
"651 664 CURVE",
"700 664 LINE SMOOTH",
"707 664 OFFCURVE",
"709 672 OFFCURVE",
"709 682 CURVE SMOOTH",
"709 692 OFFCURVE",
"707 700 OFFCURVE",
"700 700 CURVE SMOOTH",
"509 700 LINE SMOOTH",
"502 700 OFFCURVE",
"500 692 OFFCURVE",
"500 682 CURVE SMOOTH",
"500 672 OFFCURVE",
"502 664 OFFCURVE",
"509 664 CURVE SMOOTH"
);
},
{
closed = 1;
nodes = (
"399 861 LINE",
"407 875 OFFCURVE",
"411 886 OFFCURVE",
"411 893 CURVE SMOOTH",
"411 913 OFFCURVE",
"394 925 OFFCURVE",
"375 925 CURVE SMOOTH",
"363 925 OFFCURVE",
"346 913 OFFCURVE",
"339 901 CURVE",
"267 749 LINE",
"268 741 OFFCURVE",
"277 733 OFFCURVE",
"285 733 CURVE SMOOTH",
"289 733 OFFCURVE",
"293 736 OFFCURVE",
"296 739 CURVE"
);
},
{
closed = 1;
nodes = (
"528 861 LINE",
"536 875 OFFCURVE",
"540 886 OFFCURVE",
"540 893 CURVE SMOOTH",
"540 913 OFFCURVE",
"523 925 OFFCURVE",
"505 925 CURVE SMOOTH",
"492 925 OFFCURVE",
"475 913 OFFCURVE",
"468 901 CURVE",
"396 749 LINE",
"397 741 OFFCURVE",
"407 733 OFFCURVE",
"415 733 CURVE SMOOTH",
"418 733 OFFCURVE",
"422 736 OFFCURVE",
"425 739 CURVE"
);
}
);
width = 750;
}
);
note = Uhungarumlaut;
unicode = 0170;
},
{
glyphname = Umacron;
layers = (
{
layerId = "7A03799E-F594-4F0C-AED7-187FAD140615";
name = Regular;
paths = (
{
closed = 1;
nodes = (
"570 664 LINE",
"570 302 LINE SMOOTH",
"570 141 OFFCURVE",
"501 70 OFFCURVE",
"396 70 CURVE SMOOTH",
"292 70 OFFCURVE",
"205 133 OFFCURVE",
"205 281 CURVE SMOOTH",
"205 664 LINE",
"266 664 LINE SMOOTH",
"273 664 OFFCURVE",
"275 672 OFFCURVE",
"275 682 CURVE SMOOTH",
"275 692 OFFCURVE",
"273 700 OFFCURVE",
"266 700 CURVE SMOOTH",
"39 700 LINE SMOOTH",
"33 700 OFFCURVE",
"31 692 OFFCURVE",
"31 682 CURVE SMOOTH",
"31 672 OFFCURVE",
"33 664 OFFCURVE",
"39 664 CURVE SMOOTH",
"89 664 LINE",
"91 634 OFFCURVE",
"99 358 OFFCURVE",
"99 251 CURVE SMOOTH",
"99 71 OFFCURVE",
"227 -17 OFFCURVE",
"367 -17 CURVE SMOOTH",
"509 -17 OFFCURVE",
"647 75 OFFCURVE",
"647 266 CURVE SMOOTH",
"647 357 OFFCURVE",
"649 586 OFFCURVE",
"651 664 CURVE",
"700 664 LINE SMOOTH",
"707 664 OFFCURVE",
"709 672 OFFCURVE",
"709 682 CURVE SMOOTH",
"709 692 OFFCURVE",
"707 700 OFFCURVE",
"700 700 CURVE SMOOTH",
"509 700 LINE SMOOTH",
"502 700 OFFCURVE",
"500 692 OFFCURVE",
"500 682 CURVE SMOOTH",
"500 672 OFFCURVE",
"502 664 OFFCURVE",
"509 664 CURVE SMOOTH"
);
},
{
closed = 1;
nodes = (
"236 823 LINE",
"236 767 LINE",
"504 767 LINE",
"504 823 LINE"
);
}
);
width = 750;
}
);
note = Umacron;
unicode = 016A;
},
{
glyphname = Uogonek;
layers = (
{
layerId = "7A03799E-F594-4F0C-AED7-187FAD140615";
name = Regular;
paths = (
{
closed = 1;
nodes = (
"570 664 LINE",
"570 302 LINE SMOOTH",
"570 141 OFFCURVE",
"501 70 OFFCURVE",
"396 70 CURVE SMOOTH",
"292 70 OFFCURVE",
"205 133 OFFCURVE",
"205 281 CURVE SMOOTH",
"205 664 LINE",
"266 664 LINE SMOOTH",
"273 664 OFFCURVE",
"275 672 OFFCURVE",
"275 682 CURVE SMOOTH",
"275 692 OFFCURVE",
"273 700 OFFCURVE",
"266 700 CURVE SMOOTH",
"39 700 LINE SMOOTH",
"33 700 OFFCURVE",
"31 692 OFFCURVE",
"31 682 CURVE SMOOTH",
"31 672 OFFCURVE",
"33 664 OFFCURVE",
"39 664 CURVE SMOOTH",
"89 664 LINE",
"91 634 OFFCURVE",
"99 358 OFFCURVE",
"99 251 CURVE SMOOTH",
"99 71 OFFCURVE",
"226 -16 OFFCURVE",
"366 -17 CURVE",
"316 -47 OFFCURVE",
"276 -91 OFFCURVE",
"276 -145 CURVE SMOOTH",
"276 -215 OFFCURVE",
"325 -240 OFFCURVE",
"386 -240 CURVE SMOOTH",
"431 -240 OFFCURVE",
"477 -219 OFFCURVE",
"508 -185 CURVE SMOOTH",
"521 -171 OFFCURVE",
"504 -156 OFFCURVE",
"494 -162 CURVE",
"474 -176 OFFCURVE",
"451 -183 OFFCURVE",
"429 -183 CURVE SMOOTH",
"394 -183 OFFCURVE",
"363 -169 OFFCURVE",
"363 -122 CURVE SMOOTH",
"363 -75 OFFCURVE",
"393 -38 OFFCURVE",
"435 -9 CURVE",
"550 16 OFFCURVE",
"647 106 OFFCURVE",
"647 266 CURVE SMOOTH",
"647 357 OFFCURVE",
"649 586 OFFCURVE",
"651 664 CURVE",
"700 664 LINE SMOOTH",
"707 664 OFFCURVE",
"709 672 OFFCURVE",
"709 682 CURVE SMOOTH",
"709 692 OFFCURVE",
"707 700 OFFCURVE",
"700 700 CURVE SMOOTH",
"509 700 LINE SMOOTH",
"502 700 OFFCURVE",
"500 692 OFFCURVE",
"500 682 CURVE SMOOTH",
"500 672 OFFCURVE",
"502 664 OFFCURVE",
"509 664 CURVE SMOOTH"
);
}
);
width = 750;
}
);
note = Uogonek;
unicode = 0172;
},
{
glyphname = Uring;
layers = (
{
layerId = "7A03799E-F594-4F0C-AED7-187FAD140615";
name = Regular;
paths = (
{
closed = 1;
nodes = (
"570 664 LINE",
"570 302 LINE SMOOTH",
"570 141 OFFCURVE",
"501 70 OFFCURVE",
"396 70 CURVE SMOOTH",
"292 70 OFFCURVE",
"205 133 OFFCURVE",
"205 281 CURVE SMOOTH",
"205 664 LINE",
"266 664 LINE SMOOTH",
"273 664 OFFCURVE",
"275 672 OFFCURVE",
"275 682 CURVE SMOOTH",
"275 692 OFFCURVE",
"273 700 OFFCURVE",
"266 700 CURVE SMOOTH",
"39 700 LINE SMOOTH",
"33 700 OFFCURVE",
"31 692 OFFCURVE",
"31 682 CURVE SMOOTH",
"31 672 OFFCURVE",
"33 664 OFFCURVE",
"39 664 CURVE SMOOTH",
"89 664 LINE",
"91 634 OFFCURVE",
"99 358 OFFCURVE",
"99 251 CURVE SMOOTH",
"99 71 OFFCURVE",
"227 -17 OFFCURVE",
"367 -17 CURVE SMOOTH",
"509 -17 OFFCURVE",
"647 75 OFFCURVE",
"647 266 CURVE SMOOTH",
"647 357 OFFCURVE",
"649 586 OFFCURVE",
"651 664 CURVE",
"700 664 LINE SMOOTH",
"707 664 OFFCURVE",
"709 672 OFFCURVE",
"709 682 CURVE SMOOTH",
"709 692 OFFCURVE",
"707 700 OFFCURVE",
"700 700 CURVE SMOOTH",
"509 700 LINE SMOOTH",
"502 700 OFFCURVE",
"500 692 OFFCURVE",
"500 682 CURVE SMOOTH",
"500 672 OFFCURVE",
"502 664 OFFCURVE",
"509 664 CURVE SMOOTH"
);
},
{
closed = 1;
nodes = (
"316 930 OFFCURVE",
"262 890 OFFCURVE",
"262 822 CURVE SMOOTH",
"262 763 OFFCURVE",
"316 724 OFFCURVE",
"384 724 CURVE SMOOTH",
"452 724 OFFCURVE",
"506 763 OFFCURVE",
"506 822 CURVE SMOOTH",
"506 890 OFFCURVE",
"452 930 OFFCURVE",
"384 930 CURVE SMOOTH"
);
},
{
closed = 1;
nodes = (
"424 878 OFFCURVE",
"443 861 OFFCURVE",
"443 822 CURVE SMOOTH",
"443 791 OFFCURVE",
"424 773 OFFCURVE",
"384 773 CURVE SMOOTH",
"344 773 OFFCURVE",
"325 791 OFFCURVE",
"325 822 CURVE SMOOTH",
"325 861 OFFCURVE",
"344 878 OFFCURVE",
"384 878 CURVE SMOOTH"
);
}
);
width = 750;
}
);
note = Uring;
unicode = 016E;
},
{
glyphname = Utilde;
layers = (
{
layerId = "7A03799E-F594-4F0C-AED7-187FAD140615";
name = Regular;
paths = (
{
closed = 1;
nodes = (
"570 664 LINE",
"570 302 LINE SMOOTH",
"570 141 OFFCURVE",
"501 70 OFFCURVE",
"396 70 CURVE SMOOTH",
"292 70 OFFCURVE",
"205 133 OFFCURVE",
"205 281 CURVE SMOOTH",
"205 664 LINE",
"266 664 LINE SMOOTH",
"273 664 OFFCURVE",
"275 672 OFFCURVE",
"275 682 CURVE SMOOTH",
"275 692 OFFCURVE",
"273 700 OFFCURVE",
"266 700 CURVE SMOOTH",
"39 700 LINE SMOOTH",
"33 700 OFFCURVE",
"31 692 OFFCURVE",
"31 682 CURVE SMOOTH",
"31 672 OFFCURVE",
"33 664 OFFCURVE",
"39 664 CURVE SMOOTH",
"89 664 LINE",
"91 634 OFFCURVE",
"99 358 OFFCURVE",
"99 251 CURVE SMOOTH",
"99 71 OFFCURVE",
"227 -17 OFFCURVE",
"367 -17 CURVE SMOOTH",
"509 -17 OFFCURVE",
"647 75 OFFCURVE",
"647 266 CURVE SMOOTH",
"647 357 OFFCURVE",
"649 586 OFFCURVE",
"651 664 CURVE",
"700 664 LINE SMOOTH",
"707 664 OFFCURVE",
"709 672 OFFCURVE",
"709 682 CURVE SMOOTH",
"709 692 OFFCURVE",
"707 700 OFFCURVE",
"700 700 CURVE SMOOTH",
"509 700 LINE SMOOTH",
"502 700 OFFCURVE",
"500 692 OFFCURVE",
"500 682 CURVE SMOOTH",
"500 672 OFFCURVE",
"502 664 OFFCURVE",
"509 664 CURVE SMOOTH"
);
},
{
closed = 1;
nodes = (
"270 815 OFFCURVE",
"293 827 OFFCURVE",
"316 827 CURVE SMOOTH",
"338 827 OFFCURVE",
"357 812 OFFCURVE",
"376 798 CURVE",
"394 782 OFFCURVE",
"414 767 OFFCURVE",
"442 767 CURVE SMOOTH",
"474 767 OFFCURVE",
"507 785 OFFCURVE",
"544 874 CURVE",
"548 890 OFFCURVE",
"523 900 OFFCURVE",
"519 897 CURVE",
"489 849 OFFCURVE",
"476 840 OFFCURVE",
"457 840 CURVE SMOOTH",
"435 840 OFFCURVE",
"414 856 OFFCURVE",
"396 870 CURVE SMOOTH",
"376 886 OFFCURVE",
"357 901 OFFCURVE",
"329 901 CURVE SMOOTH",
"296 901 OFFCURVE",
"256 885 OFFCURVE",
"219 795 CURVE",
"214 784 OFFCURVE",
"242 769 OFFCURVE",
"246 776 CURVE SMOOTH"
);
}
);
width = 750;
}
);
note = Utilde;
unicode = 0168;
},
{
glyphname = Wcircumflex;
layers = (
{
layerId = "7A03799E-F594-4F0C-AED7-187FAD140615";
name = Regular;
paths = (
{
closed = 1;
nodes = (
"890 664 LINE",
"935 664 LINE SMOOTH",
"942 664 OFFCURVE",
"944 672 OFFCURVE",
"944 682 CURVE SMOOTH",
"944 692 OFFCURVE",
"942 700 OFFCURVE",
"935 700 CURVE SMOOTH",
"737 700 LINE SMOOTH",
"731 700 OFFCURVE",
"729 692 OFFCURVE",
"729 682 CURVE SMOOTH",
"729 672 OFFCURVE",
"731 664 OFFCURVE",
"737 664 CURVE SMOOTH",
"792 664 LINE",
"787 616 OFFCURVE",
"733 398 OFFCURVE",
"649 143 CURVE",
"607 289 OFFCURVE",
"524 542 OFFCURVE",
"490 664 CURVE",
"544 664 LINE SMOOTH",
"549 664 OFFCURVE",
"552 672 OFFCURVE",
"552 682 CURVE SMOOTH",
"552 692 OFFCURVE",
"549 700 OFFCURVE",
"544 700 CURVE SMOOTH",
"326 700 LINE SMOOTH",
"319 700 OFFCURVE",
"317 692 OFFCURVE",
"317 682 CURVE SMOOTH",
"317 672 OFFCURVE",
"319 664 OFFCURVE",
"326 664 CURVE SMOOTH",
"371 664 LINE",
"413 535 LINE",
"394 464 OFFCURVE",
"353 335 OFFCURVE",
"290 143 CURVE",
"250 286 OFFCURVE",
"164 545 OFFCURVE",
"132 664 CURVE",
"186 664 LINE SMOOTH",
"193 664 OFFCURVE",
"195 672 OFFCURVE",
"195 682 CURVE SMOOTH",
"195 692 OFFCURVE",
"193 700 OFFCURVE",
"186 700 CURVE SMOOTH",
"-32 700 LINE SMOOTH",
"-38 700 OFFCURVE",
"-40 692 OFFCURVE",
"-40 682 CURVE SMOOTH",
"-40 672 OFFCURVE",
"-38 664 OFFCURVE",
"-32 664 CURVE SMOOTH",
"13 664 LINE",
"240 -17 LINE",
"273 -17 OFFCURVE",
"297 -6 OFFCURVE",
"306 16 CURVE",
"450 427 LINE",
"597 -17 LINE",
"631 -17 OFFCURVE",
"655 -6 OFFCURVE",
"664 16 CURVE"
);
},
{
closed = 1;
nodes = (
"453 825 LINE",
"570 740 LINE",
"569 740 LINE",
"580 729 OFFCURVE",
"601 749 OFFCURVE",
"597 758 CURVE",
"491 901 LINE",
"491 900 LINE",
"482 916 OFFCURVE",
"468 921 OFFCURVE",
"454 921 CURVE SMOOTH",
"442 921 OFFCURVE",
"428 916 OFFCURVE",
"419 900 CURVE",
"419 901 LINE",
"313 758 LINE",
"308 749 OFFCURVE",
"328 730 OFFCURVE",
"338 740 CURVE",
"337 740 LINE"
);
}
);
width = 916;
}
);
note = Wcircumflex;
unicode = 0174;
},
{
glyphname = Wacute;
layers = (
{
layerId = "7A03799E-F594-4F0C-AED7-187FAD140615";
name = Regular;
paths = (
{
closed = 1;
nodes = (
"890 664 LINE",
"935 664 LINE SMOOTH",
"942 664 OFFCURVE",
"944 672 OFFCURVE",
"944 682 CURVE SMOOTH",
"944 692 OFFCURVE",
"942 700 OFFCURVE",
"935 700 CURVE SMOOTH",
"737 700 LINE SMOOTH",
"731 700 OFFCURVE",
"729 692 OFFCURVE",
"729 682 CURVE SMOOTH",
"729 672 OFFCURVE",
"731 664 OFFCURVE",
"737 664 CURVE SMOOTH",
"792 664 LINE",
"787 616 OFFCURVE",
"733 398 OFFCURVE",
"649 143 CURVE",
"607 289 OFFCURVE",
"524 542 OFFCURVE",
"490 664 CURVE",
"544 664 LINE SMOOTH",
"549 664 OFFCURVE",
"552 672 OFFCURVE",
"552 682 CURVE SMOOTH",
"552 692 OFFCURVE",
"549 700 OFFCURVE",
"544 700 CURVE SMOOTH",
"326 700 LINE SMOOTH",
"319 700 OFFCURVE",
"317 692 OFFCURVE",
"317 682 CURVE SMOOTH",
"317 672 OFFCURVE",
"319 664 OFFCURVE",
"326 664 CURVE SMOOTH",
"371 664 LINE",
"413 535 LINE",
"394 464 OFFCURVE",
"353 335 OFFCURVE",
"290 143 CURVE",
"250 286 OFFCURVE",
"164 545 OFFCURVE",
"132 664 CURVE",
"186 664 LINE SMOOTH",
"193 664 OFFCURVE",
"195 672 OFFCURVE",
"195 682 CURVE SMOOTH",
"195 692 OFFCURVE",
"193 700 OFFCURVE",
"186 700 CURVE SMOOTH",
"-32 700 LINE SMOOTH",
"-38 700 OFFCURVE",
"-40 692 OFFCURVE",
"-40 682 CURVE SMOOTH",
"-40 672 OFFCURVE",
"-38 664 OFFCURVE",
"-32 664 CURVE SMOOTH",
"13 664 LINE",
"240 -17 LINE",
"273 -17 OFFCURVE",
"297 -6 OFFCURVE",
"306 16 CURVE",
"450 427 LINE",
"597 -17 LINE",
"631 -17 OFFCURVE",
"655 -6 OFFCURVE",
"664 16 CURVE"
);
},
{
closed = 1;
nodes = (
"534 863 LINE",
"543 874 OFFCURVE",
"547 884 OFFCURVE",
"547 893 CURVE SMOOTH",
"547 913 OFFCURVE",
"524 925 OFFCURVE",
"503 925 CURVE SMOOTH",
"484 925 OFFCURVE",
"464 917 OFFCURVE",
"456 901 CURVE",
"457 902 LINE",
"363 749 LINE",
"364 741 OFFCURVE",
"376 733 OFFCURVE",
"386 733 CURVE SMOOTH",
"392 733 OFFCURVE",
"396 736 OFFCURVE",
"399 739 CURVE"
);
}
);
width = 916;
}
);
note = Wacute;
unicode = 1E82;
},
{
glyphname = Wgrave;
layers = (
{
layerId = "7A03799E-F594-4F0C-AED7-187FAD140615";
name = Regular;
paths = (
{
closed = 1;
nodes = (
"890 664 LINE",
"935 664 LINE SMOOTH",
"942 664 OFFCURVE",
"944 672 OFFCURVE",
"944 682 CURVE SMOOTH",
"944 692 OFFCURVE",
"942 700 OFFCURVE",
"935 700 CURVE SMOOTH",
"737 700 LINE SMOOTH",
"731 700 OFFCURVE",
"729 692 OFFCURVE",
"729 682 CURVE SMOOTH",
"729 672 OFFCURVE",
"731 664 OFFCURVE",
"737 664 CURVE SMOOTH",
"792 664 LINE",
"787 616 OFFCURVE",
"733 398 OFFCURVE",
"649 143 CURVE",
"607 289 OFFCURVE",
"524 542 OFFCURVE",
"490 664 CURVE",
"544 664 LINE SMOOTH",
"549 664 OFFCURVE",
"552 672 OFFCURVE",
"552 682 CURVE SMOOTH",
"552 692 OFFCURVE",
"549 700 OFFCURVE",
"544 700 CURVE SMOOTH",
"326 700 LINE SMOOTH",
"319 700 OFFCURVE",
"317 692 OFFCURVE",
"317 682 CURVE SMOOTH",
"317 672 OFFCURVE",
"319 664 OFFCURVE",
"326 664 CURVE SMOOTH",
"371 664 LINE",
"413 535 LINE",
"394 464 OFFCURVE",
"353 335 OFFCURVE",
"290 143 CURVE",
"250 286 OFFCURVE",
"164 545 OFFCURVE",
"132 664 CURVE",
"186 664 LINE SMOOTH",
"193 664 OFFCURVE",
"195 672 OFFCURVE",
"195 682 CURVE SMOOTH",
"195 692 OFFCURVE",
"193 700 OFFCURVE",
"186 700 CURVE SMOOTH",
"-32 700 LINE SMOOTH",
"-38 700 OFFCURVE",
"-40 692 OFFCURVE",
"-40 682 CURVE SMOOTH",
"-40 672 OFFCURVE",
"-38 664 OFFCURVE",
"-32 664 CURVE SMOOTH",
"13 664 LINE",
"240 -17 LINE",
"273 -17 OFFCURVE",
"297 -6 OFFCURVE",
"306 16 CURVE",
"450 427 LINE",
"597 -17 LINE",
"631 -17 OFFCURVE",
"655 -6 OFFCURVE",
"664 16 CURVE"
);
},
{
closed = 1;
nodes = (
"490 739 LINE",
"493 736 OFFCURVE",
"497 733 OFFCURVE",
"503 733 CURVE SMOOTH",
"513 733 OFFCURVE",
"524 741 OFFCURVE",
"526 749 CURVE",
"432 902 LINE",
"433 901 LINE",
"425 917 OFFCURVE",
"405 925 OFFCURVE",
"387 925 CURVE SMOOTH",
"364 925 OFFCURVE",
"342 913 OFFCURVE",
"342 893 CURVE SMOOTH",
"342 884 OFFCURVE",
"346 874 OFFCURVE",
"355 863 CURVE"
);
}
);
width = 916;
}
);
note = Wgrave;
unicode = 1E80;
},
{
glyphname = Wdieresis;
layers = (
{
layerId = "7A03799E-F594-4F0C-AED7-187FAD140615";
name = Regular;
paths = (
{
closed = 1;
nodes = (
"890 664 LINE",
"935 664 LINE SMOOTH",
"942 664 OFFCURVE",
"944 672 OFFCURVE",
"944 682 CURVE SMOOTH",
"944 692 OFFCURVE",
"942 700 OFFCURVE",
"935 700 CURVE SMOOTH",
"737 700 LINE SMOOTH",
"731 700 OFFCURVE",
"729 692 OFFCURVE",
"729 682 CURVE SMOOTH",
"729 672 OFFCURVE",
"731 664 OFFCURVE",
"737 664 CURVE SMOOTH",
"792 664 LINE",
"787 616 OFFCURVE",
"733 398 OFFCURVE",
"649 143 CURVE",
"607 289 OFFCURVE",
"524 542 OFFCURVE",
"490 664 CURVE",
"544 664 LINE SMOOTH",
"549 664 OFFCURVE",
"552 672 OFFCURVE",
"552 682 CURVE SMOOTH",
"552 692 OFFCURVE",
"549 700 OFFCURVE",
"544 700 CURVE SMOOTH",
"326 700 LINE SMOOTH",
"319 700 OFFCURVE",
"317 692 OFFCURVE",
"317 682 CURVE SMOOTH",
"317 672 OFFCURVE",
"319 664 OFFCURVE",
"326 664 CURVE SMOOTH",
"371 664 LINE",
"413 535 LINE",
"394 464 OFFCURVE",
"353 335 OFFCURVE",
"290 143 CURVE",
"250 286 OFFCURVE",
"164 545 OFFCURVE",
"132 664 CURVE",
"186 664 LINE SMOOTH",
"193 664 OFFCURVE",
"195 672 OFFCURVE",
"195 682 CURVE SMOOTH",
"195 692 OFFCURVE",
"193 700 OFFCURVE",
"186 700 CURVE SMOOTH",
"-32 700 LINE SMOOTH",
"-38 700 OFFCURVE",
"-40 692 OFFCURVE",
"-40 682 CURVE SMOOTH",
"-40 672 OFFCURVE",
"-38 664 OFFCURVE",
"-32 664 CURVE SMOOTH",
"13 664 LINE",
"240 -17 LINE",
"273 -17 OFFCURVE",
"297 -6 OFFCURVE",
"306 16 CURVE",
"450 427 LINE",
"597 -17 LINE",
"631 -17 OFFCURVE",
"655 -6 OFFCURVE",
"664 16 CURVE"
);
},
{
closed = 1;
nodes = (
"329 852 OFFCURVE",
"306 830 OFFCURVE",
"306 799 CURVE SMOOTH",
"306 767 OFFCURVE",
"329 746 OFFCURVE",
"357 746 CURVE SMOOTH",
"386 746 OFFCURVE",
"408 767 OFFCURVE",
"408 799 CURVE SMOOTH",
"408 830 OFFCURVE",
"386 852 OFFCURVE",
"357 852 CURVE SMOOTH"
);
},
{
closed = 1;
nodes = (
"514 852 OFFCURVE",
"492 830 OFFCURVE",
"492 799 CURVE SMOOTH",
"492 767 OFFCURVE",
"514 746 OFFCURVE",
"543 746 CURVE SMOOTH",
"571 746 OFFCURVE",
"593 767 OFFCURVE",
"593 799 CURVE SMOOTH",
"593 830 OFFCURVE",
"571 852 OFFCURVE",
"543 852 CURVE SMOOTH"
);
}
);
width = 916;
}
);
note = Wdieresis;
unicode = 1E84;
},
{
glyphname = Yacute;
layers = (
{
layerId = "7A03799E-F594-4F0C-AED7-187FAD140615";
name = Regular;
paths = (
{
closed = 1;
nodes = (
"353 366 OFFCURVE",
"539 622 OFFCURVE",
"592 664 CURVE",
"634 664 LINE SMOOTH",
"641 664 OFFCURVE",
"643 672 OFFCURVE",
"643 682 CURVE SMOOTH",
"643 692 OFFCURVE",
"641 700 OFFCURVE",
"634 700 CURVE SMOOTH",
"427 700 LINE SMOOTH",
"420 700 OFFCURVE",
"418 692 OFFCURVE",
"418 682 CURVE SMOOTH",
"418 672 OFFCURVE",
"420 664 OFFCURVE",
"427 664 CURVE SMOOTH",
"486 664 LINE",
"423 560 OFFCURVE",
"359 456 OFFCURVE",
"323 394 CURVE",
"282 472 OFFCURVE",
"201 603 OFFCURVE",
"155 664 CURVE",
"210 664 LINE SMOOTH",
"217 664 OFFCURVE",
"219 672 OFFCURVE",
"219 682 CURVE SMOOTH",
"219 692 OFFCURVE",
"217 700 OFFCURVE",
"210 700 CURVE SMOOTH",
"-27 700 LINE SMOOTH",
"-34 700 OFFCURVE",
"-35 692 OFFCURVE",
"-35 682 CURVE SMOOTH",
"-35 672 OFFCURVE",
"-34 664 OFFCURVE",
"-27 664 CURVE SMOOTH",
"16 664 LINE",
"77 599 OFFCURVE",
"245 350 OFFCURVE",
"245 309 CURVE SMOOTH",
"245 36 LINE",
"181 36 LINE SMOOTH",
"175 36 OFFCURVE",
"173 27 OFFCURVE",
"173 18 CURVE SMOOTH",
"173 8 OFFCURVE",
"175 0 OFFCURVE",
"181 0 CURVE SMOOTH",
"414 0 LINE SMOOTH",
"421 0 OFFCURVE",
"423 8 OFFCURVE",
"423 18 CURVE SMOOTH",
"423 27 OFFCURVE",
"421 36 OFFCURVE",
"414 36 CURVE SMOOTH",
"350 36 LINE",
"350 125 OFFCURVE",
"351 226 OFFCURVE",
"352 327 CURVE SMOOTH"
);
},
{
closed = 1;
nodes = (
"424 863 LINE",
"433 874 OFFCURVE",
"437 884 OFFCURVE",
"437 893 CURVE SMOOTH",
"437 913 OFFCURVE",
"414 925 OFFCURVE",
"393 925 CURVE SMOOTH",
"374 925 OFFCURVE",
"354 917 OFFCURVE",
"346 901 CURVE",
"347 902 LINE",
"253 749 LINE",
"254 741 OFFCURVE",
"266 733 OFFCURVE",
"276 733 CURVE SMOOTH",
"282 733 OFFCURVE",
"286 736 OFFCURVE",
"289 739 CURVE"
);
}
);
width = 598;
}
);
note = Yacute;
unicode = 00DD;
},
{
glyphname = Ycircumflex;
layers = (
{
layerId = "7A03799E-F594-4F0C-AED7-187FAD140615";
name = Regular;
paths = (
{
closed = 1;
nodes = (
"353 366 OFFCURVE",
"539 622 OFFCURVE",
"592 664 CURVE",
"634 664 LINE SMOOTH",
"641 664 OFFCURVE",
"643 672 OFFCURVE",
"643 682 CURVE SMOOTH",
"643 692 OFFCURVE",
"641 700 OFFCURVE",
"634 700 CURVE SMOOTH",
"427 700 LINE SMOOTH",
"420 700 OFFCURVE",
"418 692 OFFCURVE",
"418 682 CURVE SMOOTH",
"418 672 OFFCURVE",
"420 664 OFFCURVE",
"427 664 CURVE SMOOTH",
"486 664 LINE",
"423 560 OFFCURVE",
"359 456 OFFCURVE",
"323 394 CURVE",
"282 472 OFFCURVE",
"201 603 OFFCURVE",
"155 664 CURVE",
"210 664 LINE SMOOTH",
"217 664 OFFCURVE",
"219 672 OFFCURVE",
"219 682 CURVE SMOOTH",
"219 692 OFFCURVE",
"217 700 OFFCURVE",
"210 700 CURVE SMOOTH",
"-27 700 LINE SMOOTH",
"-34 700 OFFCURVE",
"-35 692 OFFCURVE",
"-35 682 CURVE SMOOTH",
"-35 672 OFFCURVE",
"-34 664 OFFCURVE",
"-27 664 CURVE SMOOTH",
"16 664 LINE",
"77 599 OFFCURVE",
"245 350 OFFCURVE",
"245 309 CURVE SMOOTH",
"245 36 LINE",
"181 36 LINE SMOOTH",
"175 36 OFFCURVE",
"173 27 OFFCURVE",
"173 18 CURVE SMOOTH",
"173 8 OFFCURVE",
"175 0 OFFCURVE",
"181 0 CURVE SMOOTH",
"414 0 LINE SMOOTH",
"421 0 OFFCURVE",
"423 8 OFFCURVE",
"423 18 CURVE SMOOTH",
"423 27 OFFCURVE",
"421 36 OFFCURVE",
"414 36 CURVE SMOOTH",
"350 36 LINE",
"350 125 OFFCURVE",
"351 226 OFFCURVE",
"352 327 CURVE SMOOTH"
);
},
{
closed = 1;
nodes = (
"315 825 LINE",
"432 740 LINE",
"431 740 LINE",
"442 729 OFFCURVE",
"463 749 OFFCURVE",
"459 758 CURVE",
"353 901 LINE",
"353 900 LINE",
"344 916 OFFCURVE",
"330 921 OFFCURVE",
"316 921 CURVE SMOOTH",
"304 921 OFFCURVE",
"290 916 OFFCURVE",
"281 900 CURVE",
"281 901 LINE",
"175 758 LINE",
"170 749 OFFCURVE",
"190 730 OFFCURVE",
"200 740 CURVE",
"199 740 LINE"
);
}
);
width = 598;
}
);
note = Ycircumflex;
unicode = 0176;
},
{
glyphname = Ydieresis;
layers = (
{
layerId = "7A03799E-F594-4F0C-AED7-187FAD140615";
name = Regular;
paths = (
{
closed = 1;
nodes = (
"353 366 OFFCURVE",
"539 622 OFFCURVE",
"592 664 CURVE",
"634 664 LINE SMOOTH",
"641 664 OFFCURVE",
"643 672 OFFCURVE",
"643 682 CURVE SMOOTH",
"643 692 OFFCURVE",
"641 700 OFFCURVE",
"634 700 CURVE SMOOTH",
"427 700 LINE SMOOTH",
"420 700 OFFCURVE",
"418 692 OFFCURVE",
"418 682 CURVE SMOOTH",
"418 672 OFFCURVE",
"420 664 OFFCURVE",
"427 664 CURVE SMOOTH",
"486 664 LINE",
"423 560 OFFCURVE",
"359 456 OFFCURVE",
"323 394 CURVE",
"282 472 OFFCURVE",
"201 603 OFFCURVE",
"155 664 CURVE",
"210 664 LINE SMOOTH",
"217 664 OFFCURVE",
"219 672 OFFCURVE",
"219 682 CURVE SMOOTH",
"219 692 OFFCURVE",
"217 700 OFFCURVE",
"210 700 CURVE SMOOTH",
"-27 700 LINE SMOOTH",
"-34 700 OFFCURVE",
"-35 692 OFFCURVE",
"-35 682 CURVE SMOOTH",
"-35 672 OFFCURVE",
"-34 664 OFFCURVE",
"-27 664 CURVE SMOOTH",
"16 664 LINE",
"77 599 OFFCURVE",
"245 350 OFFCURVE",
"245 309 CURVE SMOOTH",
"245 36 LINE",
"181 36 LINE SMOOTH",
"175 36 OFFCURVE",
"173 27 OFFCURVE",
"173 18 CURVE SMOOTH",
"173 8 OFFCURVE",
"175 0 OFFCURVE",
"181 0 CURVE SMOOTH",
"414 0 LINE SMOOTH",
"421 0 OFFCURVE",
"423 8 OFFCURVE",
"423 18 CURVE SMOOTH",
"423 27 OFFCURVE",
"421 36 OFFCURVE",
"414 36 CURVE SMOOTH",
"350 36 LINE",
"350 125 OFFCURVE",
"351 226 OFFCURVE",
"352 327 CURVE SMOOTH"
);
},
{
closed = 1;
nodes = (
"193 852 OFFCURVE",
"170 830 OFFCURVE",
"170 799 CURVE SMOOTH",
"170 767 OFFCURVE",
"193 746 OFFCURVE",
"221 746 CURVE SMOOTH",
"250 746 OFFCURVE",
"272 767 OFFCURVE",
"272 799 CURVE SMOOTH",
"272 830 OFFCURVE",
"250 852 OFFCURVE",
"221 852 CURVE SMOOTH"
);
},
{
closed = 1;
nodes = (
"378 852 OFFCURVE",
"356 830 OFFCURVE",
"356 799 CURVE SMOOTH",
"356 767 OFFCURVE",
"378 746 OFFCURVE",
"407 746 CURVE SMOOTH",
"435 746 OFFCURVE",
"457 767 OFFCURVE",
"457 799 CURVE SMOOTH",
"457 830 OFFCURVE",
"435 852 OFFCURVE",
"407 852 CURVE SMOOTH"
);
}
);
width = 598;
}
);
note = Ydieresis;
unicode = 0178;
},
{
glyphname = Ygrave;
layers = (
{
layerId = "7A03799E-F594-4F0C-AED7-187FAD140615";
name = Regular;
paths = (
{
closed = 1;
nodes = (
"353 366 OFFCURVE",
"539 622 OFFCURVE",
"592 664 CURVE",
"634 664 LINE SMOOTH",
"641 664 OFFCURVE",
"643 672 OFFCURVE",
"643 682 CURVE SMOOTH",
"643 692 OFFCURVE",
"641 700 OFFCURVE",
"634 700 CURVE SMOOTH",
"427 700 LINE SMOOTH",
"420 700 OFFCURVE",
"418 692 OFFCURVE",
"418 682 CURVE SMOOTH",
"418 672 OFFCURVE",
"420 664 OFFCURVE",
"427 664 CURVE SMOOTH",
"486 664 LINE",
"423 560 OFFCURVE",
"359 456 OFFCURVE",
"323 394 CURVE",
"282 472 OFFCURVE",
"201 603 OFFCURVE",
"155 664 CURVE",
"210 664 LINE SMOOTH",
"217 664 OFFCURVE",
"219 672 OFFCURVE",
"219 682 CURVE SMOOTH",
"219 692 OFFCURVE",
"217 700 OFFCURVE",
"210 700 CURVE SMOOTH",
"-27 700 LINE SMOOTH",
"-34 700 OFFCURVE",
"-35 692 OFFCURVE",
"-35 682 CURVE SMOOTH",
"-35 672 OFFCURVE",
"-34 664 OFFCURVE",
"-27 664 CURVE SMOOTH",
"16 664 LINE",
"77 599 OFFCURVE",
"245 350 OFFCURVE",
"245 309 CURVE SMOOTH",
"245 36 LINE",
"181 36 LINE SMOOTH",
"175 36 OFFCURVE",
"173 27 OFFCURVE",
"173 18 CURVE SMOOTH",
"173 8 OFFCURVE",
"175 0 OFFCURVE",
"181 0 CURVE SMOOTH",
"414 0 LINE SMOOTH",
"421 0 OFFCURVE",
"423 8 OFFCURVE",
"423 18 CURVE SMOOTH",
"423 27 OFFCURVE",
"421 36 OFFCURVE",
"414 36 CURVE SMOOTH",
"350 36 LINE",
"350 125 OFFCURVE",
"351 226 OFFCURVE",
"352 327 CURVE SMOOTH"
);
},
{
closed = 1;
nodes = (
"319 739 LINE",
"322 736 OFFCURVE",
"326 733 OFFCURVE",
"332 733 CURVE SMOOTH",
"342 733 OFFCURVE",
"353 741 OFFCURVE",
"355 749 CURVE",
"261 902 LINE",
"262 901 LINE",
"254 917 OFFCURVE",
"234 925 OFFCURVE",
"216 925 CURVE SMOOTH",
"193 925 OFFCURVE",
"171 913 OFFCURVE",
"171 893 CURVE SMOOTH",
"171 884 OFFCURVE",
"175 874 OFFCURVE",
"184 863 CURVE"
);
}
);
width = 598;
}
);
note = Ygrave;
unicode = 1EF2;
},
{
glyphname = Zacute;
layers = (
{
layerId = "7A03799E-F594-4F0C-AED7-187FAD140615";
name = Regular;
paths = (
{
closed = 1;
nodes = (
"94 614 LINE",
"146 629 OFFCURVE",
"331 640 OFFCURVE",
"434 641 CURVE",
"345 507 OFFCURVE",
"65 68 OFFCURVE",
"29 27 CURVE",
"26 23 OFFCURVE",
"25 19 OFFCURVE",
"25 14 CURVE SMOOTH",
"25 6 OFFCURVE",
"29 0 OFFCURVE",
"35 0 CURVE SMOOTH",
"576 0 LINE",
"576 55 OFFCURVE",
"578 106 OFFCURVE",
"584 165 CURVE",
"582 172 OFFCURVE",
"575 175 OFFCURVE",
"568 175 CURVE SMOOTH",
"560 175 OFFCURVE",
"553 172 OFFCURVE",
"553 166 CURVE",
"544 104 LINE",
"448 71 OFFCURVE",
"325 61 OFFCURVE",
"239 61 CURVE SMOOTH",
"215 61 OFFCURVE",
"193 62 OFFCURVE",
"179 63 CURVE",
"241 153 OFFCURVE",
"545 634 OFFCURVE",
"581 675 CURVE",
"582 678 OFFCURVE",
"582 682 OFFCURVE",
"582 686 CURVE SMOOTH",
"582 694 OFFCURVE",
"580 700 OFFCURVE",
"572 700 CURVE SMOOTH",
"63 700 LINE",
"63 644 OFFCURVE",
"61 598 OFFCURVE",
"55 547 CURVE",
"57 541 OFFCURVE",
"63 539 OFFCURVE",
"70 539 CURVE SMOOTH",
"75 539 OFFCURVE",
"83 541 OFFCURVE",
"84 547 CURVE SMOOTH"
);
},
{
closed = 1;
nodes = (
"410 863 LINE",
"419 874 OFFCURVE",
"423 884 OFFCURVE",
"423 893 CURVE SMOOTH",
"423 913 OFFCURVE",
"400 925 OFFCURVE",
"379 925 CURVE SMOOTH",
"360 925 OFFCURVE",
"340 917 OFFCURVE",
"332 901 CURVE",
"333 902 LINE",
"239 749 LINE",
"240 741 OFFCURVE",
"252 733 OFFCURVE",
"262 733 CURVE SMOOTH",
"268 733 OFFCURVE",
"272 736 OFFCURVE",
"275 739 CURVE"
);
}
);
width = 627;
}
);
note = Zacute;
unicode = 0179;
},
{
glyphname = Zcaron;
layers = (
{
layerId = "7A03799E-F594-4F0C-AED7-187FAD140615";
name = Regular;
paths = (
{
closed = 1;
nodes = (
"94 614 LINE",
"146 629 OFFCURVE",
"331 640 OFFCURVE",
"434 641 CURVE",
"345 507 OFFCURVE",
"65 68 OFFCURVE",
"29 27 CURVE",
"26 23 OFFCURVE",
"25 19 OFFCURVE",
"25 14 CURVE SMOOTH",
"25 6 OFFCURVE",
"29 0 OFFCURVE",
"35 0 CURVE SMOOTH",
"576 0 LINE",
"576 55 OFFCURVE",
"578 106 OFFCURVE",
"584 165 CURVE",
"582 172 OFFCURVE",
"575 175 OFFCURVE",
"568 175 CURVE SMOOTH",
"560 175 OFFCURVE",
"553 172 OFFCURVE",
"553 166 CURVE",
"544 104 LINE",
"448 71 OFFCURVE",
"325 61 OFFCURVE",
"239 61 CURVE SMOOTH",
"215 61 OFFCURVE",
"193 62 OFFCURVE",
"179 63 CURVE",
"241 153 OFFCURVE",
"545 634 OFFCURVE",
"581 675 CURVE",
"582 678 OFFCURVE",
"582 682 OFFCURVE",
"582 686 CURVE SMOOTH",
"582 694 OFFCURVE",
"580 700 OFFCURVE",
"572 700 CURVE SMOOTH",
"63 700 LINE",
"63 644 OFFCURVE",
"61 598 OFFCURVE",
"55 547 CURVE",
"57 541 OFFCURVE",
"63 539 OFFCURVE",
"70 539 CURVE SMOOTH",
"75 539 OFFCURVE",
"83 541 OFFCURVE",
"84 547 CURVE SMOOTH"
);
},
{
closed = 1;
nodes = (
"321 837 LINE",
"205 921 LINE",
"206 921 LINE",
"195 932 OFFCURVE",
"174 912 OFFCURVE",
"178 904 CURVE",
"284 761 LINE",
"284 762 LINE",
"292 746 OFFCURVE",
"306 741 OFFCURVE",
"320 741 CURVE SMOOTH",
"333 741 OFFCURVE",
"346 746 OFFCURVE",
"355 762 CURVE",
"355 761 LINE",
"461 904 LINE",
"466 912 OFFCURVE",
"445 931 OFFCURVE",
"435 921 CURVE",
"436 921 LINE"
);
}
);
width = 627;
}
);
note = Zcaron;
unicode = 017D;
},
{
glyphname = Zdotaccent;
layers = (
{
layerId = "7A03799E-F594-4F0C-AED7-187FAD140615";
name = Regular;
paths = (
{
closed = 1;
nodes = (
"94 614 LINE",
"146 629 OFFCURVE",
"331 640 OFFCURVE",
"434 641 CURVE",
"345 507 OFFCURVE",
"65 68 OFFCURVE",
"29 27 CURVE",
"26 23 OFFCURVE",
"25 19 OFFCURVE",
"25 14 CURVE SMOOTH",
"25 6 OFFCURVE",
"29 0 OFFCURVE",
"35 0 CURVE SMOOTH",
"576 0 LINE",
"576 55 OFFCURVE",
"578 106 OFFCURVE",
"584 165 CURVE",
"582 172 OFFCURVE",
"575 175 OFFCURVE",
"568 175 CURVE SMOOTH",
"560 175 OFFCURVE",
"553 172 OFFCURVE",
"553 166 CURVE",
"544 104 LINE",
"448 71 OFFCURVE",
"325 61 OFFCURVE",
"239 61 CURVE SMOOTH",
"215 61 OFFCURVE",
"193 62 OFFCURVE",
"179 63 CURVE",
"241 153 OFFCURVE",
"545 634 OFFCURVE",
"581 675 CURVE",
"582 678 OFFCURVE",
"582 682 OFFCURVE",
"582 686 CURVE SMOOTH",
"582 694 OFFCURVE",
"580 700 OFFCURVE",
"572 700 CURVE SMOOTH",
"63 700 LINE",
"63 644 OFFCURVE",
"61 598 OFFCURVE",
"55 547 CURVE",
"57 541 OFFCURVE",
"63 539 OFFCURVE",
"70 539 CURVE SMOOTH",
"75 539 OFFCURVE",
"83 541 OFFCURVE",
"84 547 CURVE SMOOTH"
);
},
{
closed = 1;
nodes = (
"291 871 OFFCURVE",
"267 846 OFFCURVE",
"267 817 CURVE SMOOTH",
"267 787 OFFCURVE",
"291 763 OFFCURVE",
"320 763 CURVE SMOOTH",
"350 763 OFFCURVE",
"374 787 OFFCURVE",
"374 817 CURVE SMOOTH",
"374 846 OFFCURVE",
"350 871 OFFCURVE",
"320 871 CURVE SMOOTH"
);
}
);
width = 627;
}
);
note = Zdotaccent;
unicode = 017B;
},
{
glyphname = AEacute;
layers = (
{
layerId = "7A03799E-F594-4F0C-AED7-187FAD140615";
name = Regular;
paths = (
{
closed = 1;
nodes = (
"411 700 LINE SMOOTH",
"404 700 OFFCURVE",
"402 692 OFFCURVE",
"402 682 CURVE SMOOTH",
"402 672 OFFCURVE",
"404 664 OFFCURVE",
"411 664 CURVE SMOOTH",
"471 664 LINE",
"10 36 LINE",
"-34 36 LINE SMOOTH",
"-40 36 OFFCURVE",
"-42 27 OFFCURVE",
"-42 18 CURVE SMOOTH",
"-42 8 OFFCURVE",
"-40 0 OFFCURVE",
"-34 0 CURVE SMOOTH",
"178 0 LINE SMOOTH",
"185 0 OFFCURVE",
"187 8 OFFCURVE",
"187 18 CURVE SMOOTH",
"187 27 OFFCURVE",
"183 36 OFFCURVE",
"177 36 CURVE SMOOTH",
"116 36 LINE",
"129 65 OFFCURVE",
"175 135 OFFCURVE",
"245 241 CURVE",
"472 241 LINE",
"472 36 LINE",
"411 36 LINE SMOOTH",
"404 36 OFFCURVE",
"402 27 OFFCURVE",
"402 18 CURVE SMOOTH",
"402 8 OFFCURVE",
"406 0 OFFCURVE",
"412 0 CURVE SMOOTH",
"885 0 LINE",
"885 55 OFFCURVE",
"887 97 OFFCURVE",
"894 148 CURVE",
"894 155 OFFCURVE",
"885 158 OFFCURVE",
"878 158 CURVE SMOOTH",
"870 158 OFFCURVE",
"862 156 OFFCURVE",
"862 150 CURVE",
"860 135 OFFCURVE",
"856 120 OFFCURVE",
"854 105 CURVE",
"814 79 OFFCURVE",
"728 53 OFFCURVE",
"637 53 CURVE SMOOTH",
"600 53 OFFCURVE",
"577 54 OFFCURVE",
"577 68 CURVE SMOOTH",
"577 205 OFFCURVE",
"579 270 OFFCURVE",
"579 335 CURVE",
"660 333 OFFCURVE",
"750 322 OFFCURVE",
"771 318 CURVE",
"783 259 LINE",
"783 253 OFFCURVE",
"788 251 OFFCURVE",
"795 251 CURVE SMOOTH",
"803 251 OFFCURVE",
"813 256 OFFCURVE",
"813 262 CURVE",
"811 295 OFFCURVE",
"809 326 OFFCURVE",
"809 358 CURVE SMOOTH",
"809 393 OFFCURVE",
"811 419 OFFCURVE",
"813 444 CURVE",
"814 451 OFFCURVE",
"803 455 OFFCURVE",
"795 455 CURVE SMOOTH",
"788 455 OFFCURVE",
"783 454 OFFCURVE",
"783 447 CURVE",
"783 448 LINE",
"772 388 LINE",
"762 385 OFFCURVE",
"665 375 OFFCURVE",
"580 373 CURVE",
"582 507 OFFCURVE",
"586 598 OFFCURVE",
"589 652 CURVE",
"693 652 OFFCURVE",
"766 647 OFFCURVE",
"808 630 CURVE",
"819 559 LINE",
"823 551 OFFCURVE",
"830 549 OFFCURVE",
"836 549 CURVE SMOOTH",
"845 549 OFFCURVE",
"852 553 OFFCURVE",
"852 560 CURVE",
"845 603 OFFCURVE",
"843 645 OFFCURVE",
"843 700 CURVE"
);
},
{
closed = 1;
nodes = (
"279 292 LINE",
"336 379 OFFCURVE",
"396 466 OFFCURVE",
"472 571 CURVE",
"472 292 LINE"
);
},
{
closed = 1;
nodes = (
"737 863 LINE",
"746 874 OFFCURVE",
"750 884 OFFCURVE",
"750 893 CURVE SMOOTH",
"750 913 OFFCURVE",
"727 925 OFFCURVE",
"706 925 CURVE SMOOTH",
"687 925 OFFCURVE",
"667 917 OFFCURVE",
"659 901 CURVE",
"660 902 LINE",
"566 749 LINE",
"567 741 OFFCURVE",
"579 733 OFFCURVE",
"589 733 CURVE SMOOTH",
"595 733 OFFCURVE",
"599 736 OFFCURVE",
"602 739 CURVE"
);
}
);
width = 954;
}
);
note = AEacute;
unicode = 01FC;
},
{
glyphname = Oslashacute;
layers = (
{
layerId = "7A03799E-F594-4F0C-AED7-187FAD140615";
name = Regular;
paths = (
{
closed = 1;
nodes = (
"650 777 LINE",
"585 673 LINE",
"533 699 OFFCURVE",
"474 714 OFFCURVE",
"414 714 CURVE SMOOTH",
"204 714 OFFCURVE",
"35 550 OFFCURVE",
"35 348 CURVE SMOOTH",
"35 229 OFFCURVE",
"96 120 OFFCURVE",
"189 54 CURVE",
"125 -48 LINE",
"174 -72 LINE",
"235 27 LINE",
"288 -1 OFFCURVE",
"350 -17 OFFCURVE",
"414 -17 CURVE SMOOTH",
"624 -17 OFFCURVE",
"794 147 OFFCURVE",
"794 348 CURVE SMOOTH",
"794 473 OFFCURVE",
"731 583 OFFCURVE",
"631 649 CURVE",
"698 754 LINE"
);
},
{
closed = 1;
nodes = (
"671 178 OFFCURVE",
"558 42 OFFCURVE",
"414 42 CURVE SMOOTH",
"363 42 OFFCURVE",
"315 60 OFFCURVE",
"276 89 CURVE",
"587 578 LINE",
"636 522 OFFCURVE",
"671 438 OFFCURVE",
"671 348 CURVE SMOOTH"
);
},
{
closed = 1;
nodes = (
"462 656 OFFCURVE",
"508 640 OFFCURVE",
"545 613 CURVE",
"236 126 LINE",
"187 182 OFFCURVE",
"158 260 OFFCURVE",
"158 348 CURVE SMOOTH",
"158 519 OFFCURVE",
"270 656 OFFCURVE",
"414 656 CURVE SMOOTH"
);
},
{
closed = 1;
nodes = (
"512 863 LINE",
"521 874 OFFCURVE",
"525 884 OFFCURVE",
"525 893 CURVE SMOOTH",
"525 913 OFFCURVE",
"502 925 OFFCURVE",
"481 925 CURVE SMOOTH",
"462 925 OFFCURVE",
"442 917 OFFCURVE",
"434 901 CURVE",
"435 902 LINE",
"341 749 LINE",
"342 741 OFFCURVE",
"354 733 OFFCURVE",
"364 733 CURVE SMOOTH",
"370 733 OFFCURVE",
"374 736 OFFCURVE",
"377 739 CURVE"
);
}
);
width = 840;
}
);
note = Oslashacute;
unicode = 01FE;
},
